<?xml version="1.0" encoding="utf-8"?>
<!-- Generator: Adobe Illustrator 22.0.0, SVG Export Plug-In . SVG Version: 6.00 Build 0)  -->
<svg version="1.0" xmlns="http://www.w3.org/2000/svg" xmlns:xlink="http://www.w3.org/1999/xlink" x="0px" y="0px"
	 width="425.19684px" height="425.19684px" viewBox="0 0 425.19684 425.19684" enable-background="new 0 0 425.19684 425.19684"
	 xml:space="preserve">
<g id="VERSIONES_ORIGINALES" display="none">
	<g display="inline">
		<g>
			<path fill="#494B5A" d="M311.71304,159.58186c-10.87296-21.05423-31.42487-35.52379-55.12051-35.52379
				c-4.1796,0-8.30548,0.44357-12.32959,1.27861c2.67834-5.23828,3.37914-11.39833,1.81389-18.03029
				c-1.36043-5.75879-6.4597-9.78095-12.40028-9.78095c-1.01299,0-2.02699,0.12119-3.01271,0.36005
				c-7.50253,1.81837-13.25362,5.62459-16.86934,10.79722l-0.00026-0.00032c0,0-9.10175,9.75267-6.8222,24.77374
				c-9.82425-5.95409-21.32933-9.39806-33.63245-9.39806c-60.50059,0-68.02194,61.79907-68.98425,68.5136
				c-0.82716,5.77798-1.34122,13.0108-1.34122,18.87614c0,1.30916,0.02601,2.61415,0.07777,3.91447
				c0.7766,19.50438,7.35749,37.94997,19.15791,53.60118c0.21613,0.31812,0.45145,0.62616,0.70596,0.92358
				c1.47536,1.90891,3.02553,3.75262,4.63439,5.54025c4.24909,4.7215,8.9454,9.01428,14.03976,12.80466
				c1.1985,1.03345,2.39587,2.03903,3.5916,3.01932c1.05371,0.86505,2.1153,1.70804,3.17935,2.54385
				c0.11337,0.08881,0.22717,0.18335,0.34048,0.27173c17.87729,13.9762,37.19476,23.83856,57.54311,29.35004
				c0.13766,0.03726,0.27559,0.0517,0.41345,0.08307c10.31326,2.76962,18.62497,3.77844,23.83263,4.12897
				c0.42419,0.02829,0.84636,0.04242,1.26549,0.04242c9.78346,0,17.81567-7.35199,18.68019-17.10062
				c0.15459-1.74301,0.13982-3.55063,0.00726-5.39716c1.02486,0.14151,2.05988,0.23727,3.10948,0.23727
				c3.87218,0,7.71004-0.99936,11.09743-2.8895c19.8447-11.07318,36.14844-28.46216,45.90869-48.96584
				C317.65363,238.72629,332.08896,199.03743,311.71304,159.58186z"/>
			<path fill="#494B5A" d="M231.79593,328.81891c-0.44264,0-0.89401-0.01501-1.34158-0.04483
				c-5.19598-0.34985-13.58052-1.35547-24.02808-4.159c-0.03363-0.00696-0.06747-0.01254-0.10109-0.01837
				c-0.11362-0.01996-0.22681-0.04147-0.34021-0.07193c-20.4563-5.54092-39.95335-15.48422-57.95038-29.55377l-0.34201-0.27319
				c-0.8772-0.68896-2.03299-1.60223-3.19931-2.55966c-1.21136-0.9931-2.41646-2.00589-3.58165-3.01038
				c-5.1012-3.79883-9.87022-8.15012-14.17445-12.93283c-1.66656-1.85147-3.2383-3.73004-4.67223-5.58395
				c-0.26647-0.31308-0.51816-0.6423-0.74811-0.97894c-11.88865-15.77734-18.58736-34.52765-19.37155-54.22395
				c-0.05222-1.31133-0.07867-2.64371-0.07867-3.96019c0-5.91406,0.51839-13.20917,1.35278-19.03874l0.05984-0.42447
				c2.49356-17.79443,8.33569-30.31442,12.79745-37.68393c5.59672-9.24426,12.66299-16.57207,21.00202-21.77971
				c10.21135-6.37711,22.4113-9.61048,36.26076-9.61048c11.29497,0,22.38687,2.89742,32.22639,8.39889
				c-1.12306-13.62132,6.51559-22.44693,7.33185-23.34744c3.85866-5.48331,9.90652-9.35229,17.4959-11.19164
				c1.07443-0.26043,2.17889-0.39243,3.2829-0.39243c6.47527,0,12.03387,4.38557,13.51711,10.66473
				c1.4003,5.93311,1.05986,11.67775-0.97223,16.75585c3.45099-0.58966,6.93001-0.88796,10.37114-0.88796
				c23.11481,0,44.62625,13.84992,56.14017,36.14489c8.91772,17.26797,12.23154,36.40555,9.84961,56.88066
				c-2.02335,17.39191-7.7272,31.3438-10.9469,38.11221c-9.86172,20.71603-26.33496,38.28656-46.3858,49.47507
				c-3.55814,1.98547-7.58893,3.03503-11.65669,3.03503c-0.60468,0-1.22281-0.02869-1.88754-0.08875
				c0.05962,1.49667,0.03093,2.88171-0.08606,4.20224C250.70177,321.01752,242.17961,328.81891,231.79593,328.81891z
				 M173.33948,125.20556c-52.69567,0-64.96039,46.92326-67.78744,67.0976l-0.06096,0.43121
				c-0.82005,5.72961-1.32948,12.90031-1.32948,18.71353c0,1.28622,0.02577,2.58791,0.07687,3.86876
				c0.76582,19.23685,7.311,37.54877,18.92757,52.9561l0.03294,0.04593c0.19229,0.28284,0.40364,0.55942,0.62843,0.82208
				l0.03631,0.04459c1.40343,1.81583,2.94426,3.65765,4.57921,5.47437c4.21255,4.68073,8.87962,8.93723,13.87189,12.65155
				l0.06454,0.05176c1.16049,1.0007,2.36154,2.01038,3.56955,3.00098c1.14996,0.944,2.2932,1.8472,3.16077,2.52875l0.3373,0.26938
				c17.75543,13.88086,36.97884,23.68698,57.1375,29.14722c0.04483,0.01208,0.09077,0.01859,0.13649,0.02667
				c0.07664,0.01343,0.15331,0.02731,0.22995,0.04459l0.0446,0.01099c10.28059,2.76093,18.51474,3.74951,23.61212,4.09265
				c0.39624,0.02621,0.7963,0.03967,1.18828,0.03967c9.18622,0,16.7256-6.90201,17.53735-16.0546
				c0.1412-1.59326,0.14299-3.29858,0.00562-5.21368l-0.1013-1.41241l1.40276,0.19363
				c1.12015,0.15466,2.05855,0.22659,2.95256,0.22659c3.67714,0,7.3213-0.94891,10.53831-2.74411
				c19.63895-10.95856,35.77332-28.1676,45.43198-48.45714c7.08307-14.89006,21.37338-53.75554,1.13-92.95383
				c-11.11768-21.5287-31.8483-34.90282-54.10068-34.90282c-4.01466,0-8.08444,0.42224-12.09642,1.25462l-2.34518,0.48679
				l1.09035-2.13272c2.59105-5.06757,3.18518-11.03049,1.71877-17.24421c-1.23737-5.23835-5.87753-8.8971-11.28352-8.8971
				c-0.92203,0-1.84473,0.11027-2.74232,0.32789c-7.06671,1.7125-12.66837,5.28788-16.19937,10.33931l-0.40431,0.57867
				l-0.07327-0.01031c-1.64639,2.0247-8.0524,10.84402-6.15074,23.37545l0.368,2.42453l-2.09731-1.27098
				C196.4117,128.39792,184.98743,125.20556,173.33948,125.20556z"/>
		</g>
		<linearGradient id="SVGID_2_" gradientUnits="userSpaceOnUse" x1="212.98059" y1="192.82817" x2="302.82181" y2="125.22919">
			<stop  offset="0" style="stop-color:#73DDF4"/>
			<stop  offset="0.18103" style="stop-color:#7FE1F3"/>
			<stop  offset="0.50528" style="stop-color:#9EEBF0"/>
			<stop  offset="0.9327" style="stop-color:#CFFCEB"/>
			<stop  offset="1" style="stop-color:#D8FFEA"/>
		</linearGradient>
		<path fill="url(#SVGID_2_)" d="M302.29373,163.85399c-5.4606-1.66504-12.28629-3.59898-18.29498-3.59898
			c-20.28061,0-37.74821,8.79068-47.73854,26.86844c0.11375-1.35478,0.16545-2.73029,0.16545-4.11607
			c0-13.65143-5.18135-26.09286-13.69278-35.45235c8.92514-8.17012,20.80806-13.15497,33.85965-13.15497
			C276.91452,134.40005,294.41315,146.47948,302.29373,163.85399z"/>
		<linearGradient id="SVGID_3_" gradientUnits="userSpaceOnUse" x1="215.33717" y1="149.80173" x2="145.52881" y2="190.9111">
			<stop  offset="0" style="stop-color:#73DDF4"/>
			<stop  offset="0.18103" style="stop-color:#7FE1F3"/>
			<stop  offset="0.50528" style="stop-color:#9EEBF0"/>
			<stop  offset="0.9327" style="stop-color:#CFFCEB"/>
			<stop  offset="1" style="stop-color:#D8FFEA"/>
		</linearGradient>
		<path fill="url(#SVGID_3_)" d="M188.7162,164.96696c11.04422,1.5686,30.34686,9.0024,39.3889,26.25591
			c0.02412-0.66801,0.04697-1.33643,0.04697-2.01031c0-30.27214-24.54036-54.8125-54.81248-54.8125
			c-25.98782,0-47.74626,18.08786-53.38593,42.35951C133.15312,170.12256,158.33588,160.65584,188.7162,164.96696z"/>
		<linearGradient id="SVGID_5_" gradientUnits="userSpaceOnUse" x1="238.30428" y1="98.54997" x2="221.75711" y2="130.95485">
			<stop  offset="0" style="stop-color:#73DDF4"/>
			<stop  offset="0.18103" style="stop-color:#7FE1F3"/>
			<stop  offset="0.50528" style="stop-color:#9EEBF0"/>
			<stop  offset="0.9327" style="stop-color:#CFFCEB"/>
			<stop  offset="1" style="stop-color:#D8FFEA"/>
		</linearGradient>
		<path fill="url(#SVGID_5_)" d="M233.10002,107.93671c-4.92528,1.19379-15.83992,5.48712-12.83296,19.80553
			c0.29808,1.41946,1.76413,2.2804,3.13686,1.81213c5.02762-1.71509,15.65955-6.9411,12.60788-19.87107
			C235.70795,108.39591,234.38554,107.62513,233.10002,107.93671z"/>
		<linearGradient id="SVGID_6_" gradientUnits="userSpaceOnUse" x1="222.73288" y1="158.15744" x2="302.29373" y2="158.15744">
			<stop  offset="0" style="stop-color:#73DDF4"/>
			<stop  offset="0.18103" style="stop-color:#7FE1F3"/>
			<stop  offset="0.50528" style="stop-color:#9EEBF0"/>
			<stop  offset="0.9327" style="stop-color:#CFFCEB"/>
			<stop  offset="1" style="stop-color:#D8FFEA"/>
		</linearGradient>
		<path fill="url(#SVGID_6_)" d="M285.56488,160.31415c-10.89612-9.4183-29.8754-15.3147-62.49556-13.05353
			c-0.05428,0.0488-0.11084,0.09532-0.16493,0.14436c3.03795,0.76309,21.26299,5.94682,29.14659,22.13249
			c9.0421-6.20474,19.9987-9.28247,31.94777-9.28247C284.51303,160.255,285.04004,160.2872,285.56488,160.31415z"/>
		<path opacity="0.8" fill="#FFFFFF" d="M285.56488,160.31415c-10.89612-9.4183-29.8754-15.3147-62.49556-13.05353
			c-0.05428,0.0488-0.11084,0.09532-0.16493,0.14436c3.03795,0.76309,21.26299,5.94682,29.14659,22.13249
			c9.0421-6.20474,19.9987-9.28247,31.94777-9.28247C284.51303,160.255,285.04004,160.2872,285.56488,160.31415z"/>
		<linearGradient id="SVGID_8_" gradientUnits="userSpaceOnUse" x1="119.95365" y1="156.53337" x2="194.57718" y2="156.53337">
			<stop  offset="0" style="stop-color:#73DDF4"/>
			<stop  offset="0.18103" style="stop-color:#7FE1F3"/>
			<stop  offset="0.50528" style="stop-color:#9EEBF0"/>
			<stop  offset="0.9327" style="stop-color:#CFFCEB"/>
			<stop  offset="1" style="stop-color:#D8FFEA"/>
		</linearGradient>
		<path fill="url(#SVGID_8_)" d="M158.97569,136.30717c-19.35637,5.24402-34.4612,20.82359-39.02204,40.45239
			c13.19947-6.63701,38.38223-16.10373,68.76255-11.7926c1.76698,0.25098,3.74701,0.65414,5.86098,1.22156
			C187.41286,151.88554,174.55873,140.93651,158.97569,136.30717z"/>
		<g>
			<defs>
				<path id="SVGID_53_" d="M211.6049,250.23024h-24.82076c21.70453,0,39.29953-17.595,39.29953-39.29953
					s-17.58138-38.26532-39.29953-40.33372c-17.35747-1.65311-33.09433-2.06839-68.61131,12.51869
					c-3.1226,1.28246-4.81674,18.40031-4.81674,28.33214c0,19.45105,6.52149,37.37163,17.47992,51.72302l-0.0265-0.01312
					c0.03598,0.04007,0.07214,0.077,0.10812,0.11703c4.90367,6.40131,10.68701,12.08975,17.1801,16.87793
					c35.47058,30.71277,69.50917,36.24115,83.1277,37.15756c4.56035,0.30692,8.54552-3.10007,8.94925-7.65283
					C242.09991,287.94778,211.6049,250.23024,211.6049,250.23024z"/>
			</defs>
			<clipPath id="SVGID_9_">
				<use xlink:href="#SVGID_53_"  overflow="visible"/>
			</clipPath>
			
				<linearGradient id="SVGID_11_" gradientUnits="userSpaceOnUse" x1="-1519.66235" y1="2771.20703" x2="-1519.20337" y2="2771.20703" gradientTransform="matrix(270.56641 -11.24088 -11.24088 -270.56641 442434.78125 732963.875)">
				<stop  offset="0" style="stop-color:#FAE9F2"/>
				<stop  offset="0.00562" style="stop-color:#FAE9F2"/>
				<stop  offset="0.44944" style="stop-color:#F7CFE2"/>
				<stop  offset="1" style="stop-color:#F4B8D4"/>
			</linearGradient>
			<polygon clip-path="url(#SVGID_9_)" fill="url(#SVGID_11_)" points="105.97171,172.46252 241.50539,166.83174 
				248.0242,323.73944 112.49055,329.37033 			"/>
		</g>
		
			<ellipse transform="matrix(0.97014 -0.24254 0.24254 0.97014 -46.70647 41.42562)" fill="#FFFFFF" cx="144.89914" cy="210.4136" rx="12.41038" ry="20.68396"/>
		
			<ellipse transform="matrix(0.76712 -0.6415 0.6415 0.76712 -117.74902 158.42661)" fill="#FFFFFF" cx="159.33011" cy="241.39175" rx="4.85071" ry="8.08451"/>
		<path opacity="0.25" fill="#FFFFFF" d="M140.7809,174.97188c-6.58235,1.96803-14.01173,4.61324-22.60806,8.1438
			c-3.1226,1.28246-4.81674,18.40031-4.81674,28.33214c0,19.45105,6.52149,37.37163,17.47992,51.72302l-0.0265-0.01312
			c0.03598,0.04007,0.07214,0.077,0.10812,0.11703c4.90367,6.40131,10.68701,12.08975,17.1801,16.87793
			c22.48781,19.47144,44.39192,28.81317,60.89005,33.2818h0.00014C121.0927,270.65445,140.76158,175.06561,140.7809,174.97188z"/>
		<g>
			<defs>
				<path id="SVGID_56_" d="M310.88791,206.27682c0,15.3371-3.45425,29.85728-9.62839,42.83646
					c-8.92981,18.75989-23.54459,34.29749-41.60864,44.37714c-4.61372,2.57443-10.3913,1.97339-14.27278-1.61102
					c-13.43108-12.40317-22.18045-29.80383-23.30711-49.26085c6.21553-4.80904,10.21788-12.34833,10.21788-20.82875
					c0-1.32381-0.09311-2.61656-0.28961-3.8886c3.9093,13.19637,15.53368,18.52252,20.45647,21.46996
					c0,0-13.44456-10.34198-13.96167-29.99174c-0.17357-6.5959,1.44791-12.83443,4.05405-18.45012v-0.01035
					c1.27209-2.74059,2.81305-5.31573,4.59183-7.71509c3.84726-5.18134,8.82175-9.49393,14.55118-12.57588
					c6.17419-3.31973,13.24808-5.20198,20.75638-5.20198c1.84088,0,3.65073,0.11375,5.42953,0.33095
					c2.00137,0.2459,3.961,0.62714,5.86923,1.13367c6.74591,1.79066,12.06067,7.08916,13.84106,13.83778
					C309.73868,188.88313,310.88791,197.44571,310.88791,206.27682z"/>
			</defs>
			<clipPath id="SVGID_12_">
				<use xlink:href="#SVGID_56_"  overflow="visible"/>
			</clipPath>
			
				<linearGradient id="SVGID_14_" gradientUnits="userSpaceOnUse" x1="-1518.07593" y1="2770.60229" x2="-1517.61694" y2="2770.60229" gradientTransform="matrix(189.54077 13.94247 13.94247 -189.54077 249330.29688 546534.375)">
				<stop  offset="0" style="stop-color:#FAE9F2"/>
				<stop  offset="0.00562" style="stop-color:#FAE9F2"/>
				<stop  offset="0.44944" style="stop-color:#F7CFE2"/>
				<stop  offset="1" style="stop-color:#F4B8D4"/>
			</linearGradient>
			<polygon clip-path="url(#SVGID_12_)" fill="url(#SVGID_14_)" points="221.20241,156.24545 321.72049,163.6395 
				311.4425,303.36374 210.92439,295.9697 			"/>
		</g>
		
			<ellipse transform="matrix(0.5 -0.86603 0.86603 0.5 -53.48417 365.32547)" fill="#FFFFFF" cx="289.63907" cy="228.98138" rx="8.08451" ry="4.85071"/>
		
			<ellipse transform="matrix(0.12901 -0.99164 0.99164 0.12901 6.28605 487.92639)" fill="#FFFFFF" cx="280.90042" cy="240.3848" rx="2.71618" ry="4.52696"/>
		<path opacity="0.5" fill="#FFFFFF" d="M250.38733,209.96765c-2.67696,6.58372-8.27359,25.26671,8.27359,32.03275
			c0,0,36.06784,16.46555,40.33371-33.48021c1.05093-12.30426,1.8248-29.21356-7.85635-42.22733
			c-1.07446-0.21564-2.15991-0.40065-3.26126-0.53592c-1.77881-0.21719-3.58865-0.33095-5.42953-0.33095
			c-7.5083,0-14.58218,1.88225-20.75638,5.20198c-2.62683,1.41299-5.08539,3.09584-7.35893,4.99135
			C256.71194,184.33218,256.24515,195.56084,250.38733,209.96765z"/>
	</g>
</g>
<g id="Capa_2" display="none">
	<path display="inline" fill="#494B5A" d="M312.73267,159.05548c-11.51392-22.29498-33.02533-36.1449-56.14014-36.1449
		c-3.44116,0-6.92017,0.29828-10.37115,0.88794c2.0321-5.07806,2.37256-10.82269,0.97223-16.75586
		c-1.48322-6.27911-7.04181-10.66473-13.51709-10.66473c-1.104,0-2.2085,0.13202-3.2829,0.39246
		c-7.58936,1.83936-13.63721,5.70831-17.49591,11.19165c-0.81622,0.90051-8.4549,9.72614-7.33185,23.34741
		c-9.83954-5.50146-20.9314-8.39886-32.22638-8.39886c-13.84949,0-26.04944,3.23334-36.26074,9.61047
		c-8.33905,5.20764-15.40533,12.53546-21.00201,21.77972c-4.46179,7.36951-10.30389,19.88947-12.79749,37.6839l-0.05981,0.4245
		c-0.83441,5.82959-1.35278,13.12463-1.35278,19.03876c0,1.31647,0.02643,2.64886,0.07867,3.96014
		c0.78418,19.69635,7.48285,38.44659,19.37152,54.22394c0.22998,0.33667,0.48163,0.66589,0.74811,0.979
		c1.4339,1.85388,3.00568,3.73248,4.67224,5.58392c4.3042,4.78271,9.07324,9.13397,14.17444,12.9328
		c1.16522,1.00452,2.3703,2.01733,3.58167,3.01038c1.16632,0.95746,2.32208,1.87073,3.19928,2.55969l0.34204,0.27319
		c17.99701,14.06958,37.49408,24.01288,57.95038,29.55377c0.1134,0.03046,0.22656,0.052,0.34021,0.0719
		c0.03363,0.00586,0.06744,0.01147,0.10107,0.01843c10.44757,2.80347,18.83209,3.80908,24.02808,4.15894
		c0.44757,0.02985,0.89893,0.04486,1.34155,0.04486c10.38373,0,18.90588-7.80139,19.82343-18.14697
		c0.11694-1.3205,0.14569-2.70557,0.08606-4.20227c0.66473,0.06006,1.28284,0.08881,1.88751,0.08881
		c4.06775,0,8.09857-1.04956,11.65668-3.03503c20.0509-11.18854,36.52411-28.75903,46.3858-49.4751
		c3.21973-6.76843,8.92358-20.72034,10.9469-38.11224C324.96423,195.461,321.65039,176.32343,312.73267,159.05548z"/>
	<linearGradient id="SVGID_15_" gradientUnits="userSpaceOnUse" x1="212.98059" y1="192.82817" x2="302.82181" y2="125.22919">
		<stop  offset="0" style="stop-color:#73DDF4"/>
		<stop  offset="0.18103" style="stop-color:#7FE1F3"/>
		<stop  offset="0.50528" style="stop-color:#9EEBF0"/>
		<stop  offset="0.9327" style="stop-color:#CFFCEB"/>
		<stop  offset="1" style="stop-color:#D8FFEA"/>
	</linearGradient>
	<path display="inline" fill="url(#SVGID_15_)" d="M302.29373,163.85399c-5.4606-1.66504-12.28629-3.59898-18.29498-3.59898
		c-20.28061,0-37.74821,8.79068-47.73854,26.86844c0.11375-1.35478,0.16545-2.73029,0.16545-4.11607
		c0-13.65143-5.18135-26.09286-13.69278-35.45235c8.92514-8.17012,20.80806-13.15497,33.85965-13.15497
		C276.91452,134.40005,294.41315,146.47948,302.29373,163.85399z"/>
	<linearGradient id="SVGID_17_" gradientUnits="userSpaceOnUse" x1="215.33717" y1="149.80173" x2="145.52881" y2="190.9111">
		<stop  offset="0" style="stop-color:#73DDF4"/>
		<stop  offset="0.18103" style="stop-color:#7FE1F3"/>
		<stop  offset="0.50528" style="stop-color:#9EEBF0"/>
		<stop  offset="0.9327" style="stop-color:#CFFCEB"/>
		<stop  offset="1" style="stop-color:#D8FFEA"/>
	</linearGradient>
	<path display="inline" fill="url(#SVGID_17_)" d="M188.7162,164.96696c11.04422,1.5686,30.34686,9.0024,39.3889,26.25591
		c0.02412-0.66801,0.04697-1.33643,0.04697-2.01031c0-30.27214-24.54036-54.8125-54.81248-54.8125
		c-25.98782,0-47.74626,18.08786-53.38593,42.35951C133.15312,170.12256,158.33588,160.65584,188.7162,164.96696z"/>
	<linearGradient id="SVGID_18_" gradientUnits="userSpaceOnUse" x1="238.30428" y1="98.54997" x2="221.75711" y2="130.95485">
		<stop  offset="0" style="stop-color:#73DDF4"/>
		<stop  offset="0.18103" style="stop-color:#7FE1F3"/>
		<stop  offset="0.50528" style="stop-color:#9EEBF0"/>
		<stop  offset="0.9327" style="stop-color:#CFFCEB"/>
		<stop  offset="1" style="stop-color:#D8FFEA"/>
	</linearGradient>
	<path display="inline" fill="url(#SVGID_18_)" d="M233.10002,107.93671c-4.92528,1.19379-15.83992,5.48712-12.83296,19.80553
		c0.29808,1.41946,1.76413,2.2804,3.13686,1.81213c5.02762-1.71509,15.65955-6.9411,12.60788-19.87107
		C235.70795,108.39591,234.38554,107.62513,233.10002,107.93671z"/>
	<linearGradient id="SVGID_19_" gradientUnits="userSpaceOnUse" x1="222.73288" y1="158.15744" x2="302.29373" y2="158.15744">
		<stop  offset="0" style="stop-color:#73DDF4"/>
		<stop  offset="0.18103" style="stop-color:#7FE1F3"/>
		<stop  offset="0.50528" style="stop-color:#9EEBF0"/>
		<stop  offset="0.9327" style="stop-color:#CFFCEB"/>
		<stop  offset="1" style="stop-color:#D8FFEA"/>
	</linearGradient>
	<path display="inline" fill="url(#SVGID_19_)" d="M285.56488,160.31415c-10.89612-9.4183-29.8754-15.3147-62.49556-13.05353
		c-0.05428,0.0488-0.11084,0.09532-0.16493,0.14436c3.03795,0.76309,21.26299,5.94682,29.14659,22.13249
		c9.0421-6.20474,19.9987-9.28247,31.94777-9.28247C284.51303,160.255,285.04004,160.2872,285.56488,160.31415z"/>
	<path display="inline" opacity="0.8" fill="#FFFFFF" d="M285.56488,160.31415c-10.89612-9.4183-29.8754-15.3147-62.49556-13.05353
		c-0.05428,0.0488-0.11084,0.09532-0.16493,0.14436c3.03795,0.76309,21.26299,5.94682,29.14659,22.13249
		c9.0421-6.20474,19.9987-9.28247,31.94777-9.28247C284.51303,160.255,285.04004,160.2872,285.56488,160.31415z"/>
	<linearGradient id="SVGID_20_" gradientUnits="userSpaceOnUse" x1="119.95365" y1="156.53337" x2="194.57718" y2="156.53337">
		<stop  offset="0" style="stop-color:#73DDF4"/>
		<stop  offset="0.18103" style="stop-color:#7FE1F3"/>
		<stop  offset="0.50528" style="stop-color:#9EEBF0"/>
		<stop  offset="0.9327" style="stop-color:#CFFCEB"/>
		<stop  offset="1" style="stop-color:#D8FFEA"/>
	</linearGradient>
	<path display="inline" fill="url(#SVGID_20_)" d="M158.97569,136.30717c-19.35637,5.24402-34.4612,20.82359-39.02204,40.45239
		c13.19947-6.63701,38.38223-16.10373,68.76255-11.7926c1.76698,0.25098,3.74701,0.65414,5.86098,1.22156
		C187.41286,151.88554,174.55873,140.93651,158.97569,136.30717z"/>
	
		<linearGradient id="SVGID_21_" gradientUnits="userSpaceOnUse" x1="-1519.66235" y1="2771.21997" x2="-1519.20337" y2="2771.21997" gradientTransform="matrix(270.56641 -11.24088 -11.24088 -270.56641 442434.78125 732963.875)">
		<stop  offset="0" style="stop-color:#FAE9F2"/>
		<stop  offset="0.00562" style="stop-color:#FAE9F2"/>
		<stop  offset="0.44944" style="stop-color:#F7CFE2"/>
		<stop  offset="1" style="stop-color:#F4B8D4"/>
	</linearGradient>
	<path display="inline" fill="url(#SVGID_21_)" d="M130.80951,263.15771c0.03595,0.0401,0.07214,0.07703,0.10815,0.117
		c4.90363,6.40131,10.68695,12.08978,17.18005,16.87793c35.47058,30.71283,69.50916,36.24121,83.12775,37.15759
		c4.5603,0.30695,8.54547-3.10004,8.94922-7.65283c1.92523-21.70966-28.56976-59.42719-28.56976-59.42719h-24.8208
		c21.70453,0,39.29956-17.59497,39.29956-39.2995s-17.58136-38.26532-39.29956-40.33374
		c-17.35742-1.65314-33.0943-2.06842-68.61127,12.51868c-3.12262,1.28247-4.81677,18.40033-4.81677,28.33215
		c0,19.45105,6.52148,37.37164,17.47992,51.72302L130.80951,263.15771z"/>
	
		<ellipse transform="matrix(0.97014 -0.24254 0.24254 0.97014 -46.70647 41.42562)" display="inline" fill="#FFFFFF" cx="144.89914" cy="210.4136" rx="12.41038" ry="20.68396"/>
	
		<ellipse transform="matrix(0.76712 -0.6415 0.6415 0.76712 -117.74902 158.42661)" display="inline" fill="#FFFFFF" cx="159.33011" cy="241.39175" rx="4.85071" ry="8.08451"/>
	<path display="inline" opacity="0.25" fill="#FFFFFF" d="M140.7809,174.97188c-6.58235,1.96803-14.01173,4.61324-22.60806,8.1438
		c-3.1226,1.28246-4.81674,18.40031-4.81674,28.33214c0,19.45105,6.52149,37.37163,17.47992,51.72302l-0.0265-0.01312
		c0.03598,0.04007,0.07214,0.077,0.10812,0.11703c4.90367,6.40131,10.68701,12.08975,17.1801,16.87793
		c22.48781,19.47144,44.39192,28.81317,60.89005,33.2818h0.00014C121.0927,270.65445,140.76158,175.06561,140.7809,174.97188z"/>
	
		<linearGradient id="SVGID_22_" gradientUnits="userSpaceOnUse" x1="-1518.07593" y1="2770.60083" x2="-1517.61694" y2="2770.60083" gradientTransform="matrix(189.54077 13.94247 13.94247 -189.54077 249330.29688 546534.375)">
		<stop  offset="0" style="stop-color:#FAE9F2"/>
		<stop  offset="0.00562" style="stop-color:#FAE9F2"/>
		<stop  offset="0.44944" style="stop-color:#F7CFE2"/>
		<stop  offset="1" style="stop-color:#F4B8D4"/>
	</linearGradient>
	<path display="inline" fill="url(#SVGID_22_)" d="M293.74622,166.89063c-1.9082-0.50653-3.86786-0.88776-5.8692-1.13367
		c-1.77881-0.21722-3.58862-0.33093-5.42957-0.33093c-7.5083,0-14.58215,1.8822-20.75635,5.20197
		c-5.72943,3.08197-10.70392,7.39453-14.55115,12.57587c-1.77881,2.39935-3.31976,4.97449-4.59186,7.71509v0.01038
		c-2.60614,5.61566-4.2276,11.85419-4.05408,18.45007c0.51715,19.64978,13.96173,29.99176,13.96173,29.99176
		c-4.92279-2.94745-16.54718-8.27356-20.45648-21.46997c0.19647,1.27203,0.28961,2.56482,0.28961,3.88861
		c0,8.48041-4.00238,16.01971-10.2179,20.82874c1.12665,19.45703,9.87604,36.85773,23.30713,49.26086
		c3.88147,3.58441,9.65906,4.18542,14.27277,1.61102c18.06403-10.07965,32.67883-25.61725,41.60864-44.37714
		c6.17413-12.97919,9.62836-27.49933,9.62836-42.83649c0-8.83112-1.14917-17.39368-3.30054-25.5484
		C305.80688,173.97974,300.49213,168.68127,293.74622,166.89063z"/>
	
		<ellipse transform="matrix(0.5 -0.86603 0.86603 0.5 -53.48417 365.32547)" display="inline" fill="#FFFFFF" cx="289.63907" cy="228.98138" rx="8.08451" ry="4.85071"/>
	
		<ellipse transform="matrix(0.12901 -0.99164 0.99164 0.12901 6.28605 487.92639)" display="inline" fill="#FFFFFF" cx="280.90042" cy="240.3848" rx="2.71618" ry="4.52696"/>
	<path display="inline" opacity="0.5" fill="#FFFFFF" d="M250.38733,209.96765c-2.67696,6.58372-8.27359,25.26671,8.27359,32.03275
		c0,0,36.06784,16.46555,40.33371-33.48021c1.05093-12.30426,1.8248-29.21356-7.85635-42.22733
		c-1.07446-0.21564-2.15991-0.40065-3.26126-0.53592c-1.77881-0.21719-3.58865-0.33095-5.42953-0.33095
		c-7.5083,0-14.58218,1.88225-20.75638,5.20198c-2.62683,1.41299-5.08539,3.09584-7.35893,4.99135
		C256.71194,184.33218,256.24515,195.56084,250.38733,209.96765z"/>
</g>
<g id="Capa_3">
	<path fill="#494B5A" d="M312.73267,159.05548c-11.51392-22.29498-33.02533-36.1449-56.14014-36.1449
		c-3.44116,0-6.92017,0.29828-10.37115,0.88794c2.0321-5.07806,2.37256-10.82269,0.97223-16.75586
		c-1.48322-6.27911-7.04181-10.66473-13.51709-10.66473c-1.104,0-2.2085,0.13202-3.2829,0.39246
		c-7.58936,1.83936-13.63721,5.70831-17.49591,11.19165c-0.81622,0.90051-8.4549,9.72614-7.33185,23.34741
		c-9.83954-5.50146-20.9314-8.39886-32.22638-8.39886c-13.84949,0-26.04944,3.23334-36.26074,9.61047
		c-8.33905,5.20764-15.40533,12.53546-21.00201,21.77972c-4.46179,7.36951-10.30389,19.88947-12.79749,37.6839l-0.05981,0.4245
		c-0.83441,5.82959-1.35278,13.12463-1.35278,19.03876c0,1.31647,0.02643,2.64886,0.07867,3.96014
		c0.78418,19.69635,7.48285,38.44659,19.37152,54.22394c0.22998,0.33667,0.48163,0.66589,0.74811,0.979
		c1.4339,1.85388,3.00568,3.73248,4.67224,5.58392c4.3042,4.78271,9.07324,9.13397,14.17444,12.9328
		c1.16522,1.00452,2.3703,2.01733,3.58167,3.01038c1.16632,0.95746,2.32208,1.87073,3.19928,2.55969l0.34204,0.27319
		c17.99701,14.06958,37.49408,24.01288,57.95038,29.55377c0.1134,0.03046,0.22656,0.052,0.34021,0.0719
		c0.03363,0.00586,0.06744,0.01147,0.10107,0.01843c10.44757,2.80347,18.83209,3.80908,24.02808,4.15894
		c0.44757,0.02985,0.89893,0.04486,1.34155,0.04486c10.38373,0,18.90588-7.80139,19.82343-18.14697
		c0.11694-1.3205,0.14569-2.70557,0.08606-4.20227c0.66473,0.06006,1.28284,0.08881,1.88751,0.08881
		c4.06775,0,8.09857-1.04956,11.65668-3.03503c20.0509-11.18854,36.52411-28.75903,46.3858-49.4751
		c3.21973-6.76843,8.92358-20.72034,10.9469-38.11224C324.96423,195.461,321.65039,176.32343,312.73267,159.05548z"/>
	<linearGradient id="SVGID_23_" gradientUnits="userSpaceOnUse" x1="212.98059" y1="192.82817" x2="302.82181" y2="125.22919">
		<stop  offset="0" style="stop-color:#73DDF4"/>
		<stop  offset="0.18103" style="stop-color:#7FE1F3"/>
		<stop  offset="0.50528" style="stop-color:#9EEBF0"/>
		<stop  offset="0.9327" style="stop-color:#CFFCEB"/>
		<stop  offset="1" style="stop-color:#D8FFEA"/>
	</linearGradient>
	<path fill="url(#SVGID_23_)" d="M302.29373,163.85399c-5.4606-1.66504-12.28629-3.59898-18.29498-3.59898
		c-20.28061,0-37.74821,8.79068-47.73854,26.86844c0.11375-1.35478,0.16545-2.73029,0.16545-4.11607
		c0-13.65143-5.18135-26.09286-13.69278-35.45235c8.92514-8.17012,20.80806-13.15497,33.85965-13.15497
		C276.91452,134.40005,294.41315,146.47948,302.29373,163.85399z"/>
	<linearGradient id="SVGID_25_" gradientUnits="userSpaceOnUse" x1="215.33717" y1="149.80173" x2="145.52881" y2="190.9111">
		<stop  offset="0" style="stop-color:#73DDF4"/>
		<stop  offset="0.18103" style="stop-color:#7FE1F3"/>
		<stop  offset="0.50528" style="stop-color:#9EEBF0"/>
		<stop  offset="0.9327" style="stop-color:#CFFCEB"/>
		<stop  offset="1" style="stop-color:#D8FFEA"/>
	</linearGradient>
	<path fill="url(#SVGID_25_)" d="M188.7162,164.96696c11.04422,1.5686,30.34686,9.0024,39.3889,26.25591
		c0.02412-0.66801,0.04697-1.33643,0.04697-2.01031c0-30.27214-24.54036-54.8125-54.81248-54.8125
		c-25.98782,0-47.74626,18.08786-53.38593,42.35951C133.15312,170.12256,158.33588,160.65584,188.7162,164.96696z"/>
	<linearGradient id="SVGID_26_" gradientUnits="userSpaceOnUse" x1="238.30428" y1="98.54997" x2="221.75711" y2="130.95485">
		<stop  offset="0" style="stop-color:#73DDF4"/>
		<stop  offset="0.18103" style="stop-color:#7FE1F3"/>
		<stop  offset="0.50528" style="stop-color:#9EEBF0"/>
		<stop  offset="0.9327" style="stop-color:#CFFCEB"/>
		<stop  offset="1" style="stop-color:#D8FFEA"/>
	</linearGradient>
	<path fill="url(#SVGID_26_)" d="M233.10002,107.93671c-4.92528,1.19379-15.83992,5.48712-12.83296,19.80553
		c0.29808,1.41946,1.76413,2.2804,3.13686,1.81213c5.02762-1.71509,15.65955-6.9411,12.60788-19.87107
		C235.70795,108.39591,234.38554,107.62513,233.10002,107.93671z"/>
	<linearGradient id="SVGID_28_" gradientUnits="userSpaceOnUse" x1="222.73288" y1="158.15744" x2="302.29373" y2="158.15744">
		<stop  offset="0" style="stop-color:#73DDF4"/>
		<stop  offset="0.18103" style="stop-color:#7FE1F3"/>
		<stop  offset="0.50528" style="stop-color:#9EEBF0"/>
		<stop  offset="0.9327" style="stop-color:#CFFCEB"/>
		<stop  offset="1" style="stop-color:#D8FFEA"/>
	</linearGradient>
	<path fill="url(#SVGID_28_)" d="M285.56488,160.31415c-10.89612-9.4183-29.8754-15.3147-62.49556-13.05353
		c-0.05428,0.0488-0.11084,0.09532-0.16493,0.14436c3.03795,0.76309,21.26299,5.94682,29.14659,22.13249
		c9.0421-6.20474,19.9987-9.28247,31.94777-9.28247C284.51303,160.255,285.04004,160.2872,285.56488,160.31415z"/>
	<path opacity="0.8" fill="#FFFFFF" d="M285.56488,160.31415c-10.89612-9.4183-29.8754-15.3147-62.49556-13.05353
		c-0.05428,0.0488-0.11084,0.09532-0.16493,0.14436c3.03795,0.76309,21.26299,5.94682,29.14659,22.13249
		c9.0421-6.20474,19.9987-9.28247,31.94777-9.28247C284.51303,160.255,285.04004,160.2872,285.56488,160.31415z"/>
	<linearGradient id="SVGID_29_" gradientUnits="userSpaceOnUse" x1="119.95365" y1="156.53337" x2="194.57718" y2="156.53337">
		<stop  offset="0" style="stop-color:#73DDF4"/>
		<stop  offset="0.18103" style="stop-color:#7FE1F3"/>
		<stop  offset="0.50528" style="stop-color:#9EEBF0"/>
		<stop  offset="0.9327" style="stop-color:#CFFCEB"/>
		<stop  offset="1" style="stop-color:#D8FFEA"/>
	</linearGradient>
	<path fill="url(#SVGID_29_)" d="M158.97569,136.30717c-19.35637,5.24402-34.4612,20.82359-39.02204,40.45239
		c13.19947-6.63701,38.38223-16.10373,68.76255-11.7926c1.76698,0.25098,3.74701,0.65414,5.86098,1.22156
		C187.41286,151.88554,174.55873,140.93651,158.97569,136.30717z"/>
	
		<linearGradient id="SVGID_31_" gradientUnits="userSpaceOnUse" x1="-1519.66235" y1="2771.21997" x2="-1519.20337" y2="2771.21997" gradientTransform="matrix(270.56641 -11.24088 -11.24088 -270.56641 442434.78125 732963.875)">
		<stop  offset="0" style="stop-color:#FAE9F2"/>
		<stop  offset="0.00562" style="stop-color:#FAE9F2"/>
		<stop  offset="0.44944" style="stop-color:#F7CFE2"/>
		<stop  offset="1" style="stop-color:#F4B8D4"/>
	</linearGradient>
	<path fill="url(#SVGID_31_)" d="M130.80951,263.15771c0.03595,0.0401,0.07214,0.07703,0.10815,0.117
		c4.90363,6.40131,10.68695,12.08978,17.18005,16.87793c35.47058,30.71283,69.50916,36.24121,83.12775,37.15759
		c4.5603,0.30695,8.54547-3.10004,8.94922-7.65283c1.92523-21.70966-28.56976-59.42719-28.56976-59.42719h-24.8208
		c21.70453,0,39.29956-17.59497,39.29956-39.2995s-17.58136-38.26532-39.29956-40.33374
		c-17.35742-1.65314-33.0943-2.06842-68.61127,12.51868c-3.12262,1.28247-4.81677,18.40033-4.81677,28.33215
		c0,19.45105,6.52148,37.37164,17.47992,51.72302L130.80951,263.15771z"/>
	
		<ellipse transform="matrix(0.97014 -0.24254 0.24254 0.97014 -46.70647 41.42562)" fill="#FFFFFF" cx="144.89914" cy="210.4136" rx="12.41038" ry="20.68396"/>
	
		<ellipse transform="matrix(0.76712 -0.6415 0.6415 0.76712 -117.74902 158.42661)" fill="#FFFFFF" cx="159.33011" cy="241.39175" rx="4.85071" ry="8.08451"/>
	<path opacity="0.25" fill="#FFFFFF" d="M140.7809,174.97188c-6.58235,1.96803-14.01173,4.61324-22.60806,8.1438
		c-3.1226,1.28246-4.81674,18.40031-4.81674,28.33214c0,19.45105,6.52149,37.37163,17.47992,51.72302l-0.0265-0.01312
		c0.03598,0.04007,0.07214,0.077,0.10812,0.11703c4.90367,6.40131,10.68701,12.08975,17.1801,16.87793
		c22.48781,19.47144,44.39192,28.81317,60.89005,33.2818h0.00014C121.0927,270.65445,140.76158,175.06561,140.7809,174.97188z"/>
	
		<linearGradient id="SVGID_32_" gradientUnits="userSpaceOnUse" x1="-1518.07593" y1="2770.60083" x2="-1517.61694" y2="2770.60083" gradientTransform="matrix(189.54077 13.94247 13.94247 -189.54077 249330.29688 546534.375)">
		<stop  offset="0" style="stop-color:#FAE9F2"/>
		<stop  offset="0.00562" style="stop-color:#FAE9F2"/>
		<stop  offset="0.44944" style="stop-color:#F7CFE2"/>
		<stop  offset="1" style="stop-color:#F4B8D4"/>
	</linearGradient>
	<path fill="url(#SVGID_32_)" d="M293.74622,166.89063c-1.9082-0.50653-3.86786-0.88776-5.8692-1.13367
		c-1.77881-0.21722-3.58862-0.33093-5.42957-0.33093c-7.5083,0-14.58215,1.8822-20.75635,5.20197
		c-5.72943,3.08197-10.70392,7.39453-14.55115,12.57587c-1.77881,2.39935-3.31976,4.97449-4.59186,7.71509v0.01038
		c-2.60614,5.61566-4.2276,11.85419-4.05408,18.45007c0.51715,19.64978,13.96173,29.99176,13.96173,29.99176
		c-4.92279-2.94745-16.54718-8.27356-20.45648-21.46997c0.19647,1.27203,0.28961,2.56482,0.28961,3.88861
		c0,8.48041-4.00238,16.01971-10.2179,20.82874c1.12665,19.45703,9.87604,36.85773,23.30713,49.26086
		c3.88147,3.58441,9.65906,4.18542,14.27277,1.61102c18.06403-10.07965,32.67883-25.61725,41.60864-44.37714
		c6.17413-12.97919,9.62836-27.49933,9.62836-42.83649c0-8.83112-1.14917-17.39368-3.30054-25.5484
		C305.80688,173.97974,300.49213,168.68127,293.74622,166.89063z"/>
	
		<ellipse transform="matrix(0.5 -0.86603 0.86603 0.5 -53.48417 365.32547)" fill="#FFFFFF" cx="289.63907" cy="228.98138" rx="8.08451" ry="4.85071"/>
	
		<ellipse transform="matrix(0.12901 -0.99164 0.99164 0.12901 6.28605 487.92639)" fill="#FFFFFF" cx="280.90042" cy="240.3848" rx="2.71618" ry="4.52696"/>
	<path opacity="0.5" fill="#FFFFFF" d="M250.38733,209.96765c-2.67696,6.58372-8.27359,25.26671,8.27359,32.03275
		c0,0,36.06784,16.46555,40.33371-33.48021c1.05093-12.30426,1.8248-29.21356-7.85635-42.22733
		c-1.07446-0.21564-2.15991-0.40065-3.26126-0.53592c-1.77881-0.21719-3.58865-0.33095-5.42953-0.33095
		c-7.5083,0-14.58218,1.88225-20.75638,5.20198c-2.62683,1.41299-5.08539,3.09584-7.35893,4.99135
		C256.71194,184.33218,256.24515,195.56084,250.38733,209.96765z"/>
</g>
</svg>
