<svg xmlns="http://www.w3.org/2000/svg" width="148.856" height="57.795" viewBox="0 0 148.856 57.795">
  <g id="amazon-web-services-1" transform="translate(-0.498 -0.37)">
    <path id="Trazado_130" data-name="Trazado 130" d="M19.633,55.529,10.9,52.394v-12.8l8.735,2.976V55.529m1.6,0,8.735-3.134v-12.8l-8.735,2.976V55.529m-9.44-16.9,8.841-2.489,8.2,2.643-8.2,2.783L11.8,38.633m-2.562-.991L.5,34.508V21.7L9.233,24.68V37.642m1.6,0,8.736-3.134V21.7L10.836,24.68V37.642M1.4,20.745l8.841-2.488,8.2,2.643-8.2,2.783L1.4,20.746m28.22,16.9L20.88,34.508V21.7l8.736,2.976V37.642m1.6,0,8.736-3.134V21.7L31.218,24.68V37.642m-9.439-16.9,8.841-2.488,8.2,2.643-8.2,2.783-8.841-2.938m18.237-.993L31.28,16.621V3.817l8.736,2.976V19.753m1.6,0,8.735-3.132V3.817L41.618,6.792V19.753M32.179,2.859,41.02.37l8.2,2.643L41.02,5.8,32.179,2.859M60.4,19.753l-8.736-3.132V3.817L60.4,6.792V19.753m1.6,0,8.736-3.132V3.817L62,6.792V19.753M52.561,2.859,61.4.37l8.2,2.643L61.4,5.8,52.561,2.858" transform="translate(0)" fill="#494b5a" fill-rule="evenodd"/>
    <path id="Trazado_131" data-name="Trazado 131" d="M86.382,80.69,83.447,90.884H82.172l-2.285-7.572-2.094,7.572h-1.3L73.442,80.69h1.577l2.221,7.6,2.115-7.6h1.163l2.3,7.621L85.1,80.69h1.281Z" transform="translate(-30.426 -33.502)" fill="#494b5a" fill-rule="evenodd"/>
    <path id="Trazado_132" data-name="Trazado 132" d="M86.382,80.69,83.447,90.884H82.172l-2.285-7.572-2.094,7.572h-1.3L73.442,80.69h1.577l2.221,7.6,2.115-7.6h1.163l2.3,7.621L85.1,80.69h1.281Z" transform="translate(-30.426 -33.502)" fill="#494b5a" stroke="#494b5a" stroke-width="1" fill-rule="evenodd"/>
    <path id="Trazado_133" data-name="Trazado 133" d="M104.193,87.641l1.477.3a4.157,4.157,0,0,1-1.571,2.164,4.528,4.528,0,0,1-2.751.857,4.274,4.274,0,0,1-3.375-1.47,5.628,5.628,0,0,1-1.29-3.855,5.687,5.687,0,0,1,1.34-3.935,4.321,4.321,0,0,1,3.366-1.5,4.064,4.064,0,0,1,3.209,1.381,6.217,6.217,0,0,1,1.244,4.134h-7.4q0,2.313.966,3.12a3.144,3.144,0,0,0,2.044.807,2.793,2.793,0,0,0,2.739-2.007Zm-.086-3.1a4.425,4.425,0,0,0-.282-1.524,2.6,2.6,0,0,0-.886-1.135,2.429,2.429,0,0,0-1.5-.469,2.676,2.676,0,0,0-2,.848,3.508,3.508,0,0,0-.921,2.279h5.589Z" transform="translate(-40.12 -33.3)" fill="#494b5a" fill-rule="evenodd"/>
    <path id="Trazado_134" data-name="Trazado 134" d="M104.193,87.641l1.477.3a4.157,4.157,0,0,1-1.571,2.164,4.528,4.528,0,0,1-2.751.857,4.274,4.274,0,0,1-3.375-1.47,5.628,5.628,0,0,1-1.29-3.855,5.687,5.687,0,0,1,1.34-3.935,4.321,4.321,0,0,1,3.366-1.5,4.064,4.064,0,0,1,3.209,1.381,6.217,6.217,0,0,1,1.244,4.134h-7.4q0,2.313.966,3.12a3.144,3.144,0,0,0,2.044.807,2.793,2.793,0,0,0,2.739-2.007Zm-.086-3.1a4.425,4.425,0,0,0-.282-1.524,2.6,2.6,0,0,0-.886-1.135,2.429,2.429,0,0,0-1.5-.469,2.676,2.676,0,0,0-2,.848,3.508,3.508,0,0,0-.921,2.279h5.589Z" transform="translate(-40.12 -33.3)" fill="#494b5a" stroke="#494b5a" stroke-width="1" fill-rule="evenodd"/>
    <path id="Trazado_135" data-name="Trazado 135" d="M116.74,88.33h-.764V74.566h1.588v5.269a3.32,3.32,0,0,1,3-1.982,3.707,3.707,0,0,1,2.934,1.384,6.027,6.027,0,0,1,1.183,4.021,6.15,6.15,0,0,1-1.163,3.814,3.624,3.624,0,0,1-3.028,1.541,3.479,3.479,0,0,1-3.183-1.97Zm.825-4a3.108,3.108,0,0,0,.963,2.279,2.777,2.777,0,0,0,1.8.709,2.282,2.282,0,0,0,1.951-1.051,4.915,4.915,0,0,0,.74-2.878,5.739,5.739,0,0,0-.715-3.1,2.237,2.237,0,0,0-1.986-1.127,2.492,2.492,0,0,0-1.8.8,3.4,3.4,0,0,0-.953,2.073Z" transform="translate(-48.167 -30.948)" fill="#494b5a" fill-rule="evenodd"/>
    <path id="Trazado_136" data-name="Trazado 136" d="M116.74,88.33h-.764V74.566h1.588v5.269a3.32,3.32,0,0,1,3-1.982,3.707,3.707,0,0,1,2.934,1.384,6.027,6.027,0,0,1,1.183,4.021,6.15,6.15,0,0,1-1.163,3.814,3.624,3.624,0,0,1-3.028,1.541,3.479,3.479,0,0,1-3.183-1.97Zm.825-4a3.108,3.108,0,0,0,.963,2.279,2.777,2.777,0,0,0,1.8.709,2.282,2.282,0,0,0,1.951-1.051,4.915,4.915,0,0,0,.74-2.878,5.739,5.739,0,0,0-.715-3.1,2.237,2.237,0,0,0-1.986-1.127,2.492,2.492,0,0,0-1.8.8,3.4,3.4,0,0,0-.953,2.073Z" transform="translate(-48.167 -30.948)" fill="#494b5a" stroke="#494b5a" stroke-width="1" fill-rule="evenodd"/>
    <path id="Trazado_137" data-name="Trazado 137" d="M137.853,88.04l1.514-.313q.505,1.921,3.191,1.921a3.023,3.023,0,0,0,1.675-.443,1.4,1.4,0,0,0,.687-1.248q0-1.2-1.747-1.52l-2.147-.409a3.92,3.92,0,0,1-2.007-.949,2.453,2.453,0,0,1-.746-1.868,2.7,2.7,0,0,1,1.018-2.144,4.1,4.1,0,0,1,2.742-.863q3.317,0,4.094,2.593l-1.453.312a2.483,2.483,0,0,0-2.569-1.588,2.9,2.9,0,0,0-1.588.4,1.249,1.249,0,0,0-.62,1.11q0,1.124,1.584,1.415l1.985.365q3.117.565,3.116,3.022a2.7,2.7,0,0,1-1.16,2.269,5.043,5.043,0,0,1-3.088.865q-3.622,0-4.48-2.925Z" transform="translate(-57.292 -33.3)" fill="#494b5a" fill-rule="evenodd"/>
    <path id="Trazado_138" data-name="Trazado 138" d="M137.853,88.04l1.514-.313q.505,1.921,3.191,1.921a3.023,3.023,0,0,0,1.675-.443,1.4,1.4,0,0,0,.687-1.248q0-1.2-1.747-1.52l-2.147-.409a3.92,3.92,0,0,1-2.007-.949,2.453,2.453,0,0,1-.746-1.868,2.7,2.7,0,0,1,1.018-2.144,4.1,4.1,0,0,1,2.742-.863q3.317,0,4.094,2.593l-1.453.312a2.483,2.483,0,0,0-2.569-1.588,2.9,2.9,0,0,0-1.588.4,1.249,1.249,0,0,0-.62,1.11q0,1.124,1.584,1.415l1.985.365q3.117.565,3.116,3.022a2.7,2.7,0,0,1-1.16,2.269,5.043,5.043,0,0,1-3.088.865q-3.622,0-4.48-2.925Z" transform="translate(-57.292 -33.3)" fill="#494b5a" stroke="#494b5a" stroke-width="1" fill-rule="evenodd"/>
    <path id="Trazado_139" data-name="Trazado 139" d="M161.943,87.641l1.477.3a4.149,4.149,0,0,1-1.571,2.164,4.525,4.525,0,0,1-2.75.857,4.273,4.273,0,0,1-3.376-1.47,6.426,6.426,0,0,1,.051-7.79,4.32,4.32,0,0,1,3.365-1.5,4.065,4.065,0,0,1,3.209,1.381,6.211,6.211,0,0,1,1.244,4.134h-7.4q0,2.313.966,3.12a3.147,3.147,0,0,0,2.044.807A2.793,2.793,0,0,0,161.943,87.641Zm-.086-3.1a4.426,4.426,0,0,0-.282-1.524,2.6,2.6,0,0,0-.886-1.135,2.431,2.431,0,0,0-1.5-.469,2.678,2.678,0,0,0-2,.848,3.508,3.508,0,0,0-.921,2.279h5.589Z" transform="translate(-64.209 -33.3)" fill="#494b5a" fill-rule="evenodd"/>
    <path id="Trazado_140" data-name="Trazado 140" d="M161.943,87.641l1.477.3a4.149,4.149,0,0,1-1.571,2.164,4.525,4.525,0,0,1-2.75.857,4.273,4.273,0,0,1-3.376-1.47,6.426,6.426,0,0,1,.051-7.79,4.32,4.32,0,0,1,3.365-1.5,4.065,4.065,0,0,1,3.209,1.381,6.211,6.211,0,0,1,1.244,4.134h-7.4q0,2.313.966,3.12a3.147,3.147,0,0,0,2.044.807A2.793,2.793,0,0,0,161.943,87.641Zm-.086-3.1a4.426,4.426,0,0,0-.282-1.524,2.6,2.6,0,0,0-.886-1.135,2.431,2.431,0,0,0-1.5-.469,2.678,2.678,0,0,0-2,.848,3.508,3.508,0,0,0-.921,2.279h5.589Z" transform="translate(-64.209 -33.3)" fill="#494b5a" stroke="#494b5a" stroke-width="1" fill-rule="evenodd"/>
    <path id="Trazado_141" data-name="Trazado 141" d="M174.665,90.682h-1.588V80.488h1.392v2.376a5.056,5.056,0,0,1,1.476-2.164,2.7,2.7,0,0,1,1.518-.5c.161,0,.37.012.625.037v1.514h-.322a2.787,2.787,0,0,0-2.174.973,3.937,3.937,0,0,0-.927,2.556Z" transform="translate(-71.985 -33.3)" fill="#494b5a" fill-rule="evenodd"/>
    <path id="Trazado_142" data-name="Trazado 142" d="M174.665,90.682h-1.588V80.488h1.392v2.376a5.056,5.056,0,0,1,1.476-2.164,2.7,2.7,0,0,1,1.518-.5c.161,0,.37.012.625.037v1.514h-.322a2.787,2.787,0,0,0-2.174.973,3.937,3.937,0,0,0-.927,2.556Z" transform="translate(-71.985 -33.3)" fill="#494b5a" stroke="#494b5a" stroke-width="1" fill-rule="evenodd"/>
    <path id="Trazado_143" data-name="Trazado 143" d="M192.3,80.69l-3.519,10.194h-1.645L183.495,80.69h1.757l2.829,8.286,2.808-8.286Z" transform="translate(-76.33 -33.502)" fill="#494b5a" fill-rule="evenodd"/>
    <path id="Trazado_144" data-name="Trazado 144" d="M192.3,80.69l-3.519,10.194h-1.645L183.495,80.69h1.757l2.829,8.286,2.808-8.286Z" transform="translate(-76.33 -33.502)" fill="#494b5a" stroke="#494b5a" stroke-width="1" fill-rule="evenodd"/>
    <path id="Trazado_145" data-name="Trazado 145" d="M200.774,74.566h1.7v1.76h-1.7Zm.074,3.57h1.588V88.33h-1.588Z" transform="translate(-83.538 -30.948)" fill="#494b5a" fill-rule="evenodd"/>
    <path id="Trazado_146" data-name="Trazado 146" d="M200.774,74.566h1.7v1.76h-1.7Zm.074,3.57h1.588V88.33h-1.588Z" transform="translate(-83.538 -30.948)" fill="#494b5a" stroke="#494b5a" stroke-width="1" fill-rule="evenodd"/>
    <path id="Trazado_147" data-name="Trazado 147" d="M212.979,87.112l1.427.252a4.561,4.561,0,0,1-1.341,2.646,4.048,4.048,0,0,1-5.8-.6,6.4,6.4,0,0,1-1.1-3.8,6.228,6.228,0,0,1,1.165-3.865,3.761,3.761,0,0,1,3.171-1.541,3.617,3.617,0,0,1,2.667,1,4.459,4.459,0,0,1,1.246,2.572l-1.428.272q-.4-2.522-2.438-2.524a2.249,2.249,0,0,0-2.014,1.114,5.325,5.325,0,0,0-.705,2.889,5.589,5.589,0,0,0,.7,3.04,2.22,2.22,0,0,0,1.97,1.084q1.964,0,2.489-2.536Z" transform="translate(-85.783 -33.3)" fill="#494b5a" fill-rule="evenodd"/>
    <path id="Trazado_148" data-name="Trazado 148" d="M212.979,87.112l1.427.252a4.561,4.561,0,0,1-1.341,2.646,4.048,4.048,0,0,1-5.8-.6,6.4,6.4,0,0,1-1.1-3.8,6.228,6.228,0,0,1,1.165-3.865,3.761,3.761,0,0,1,3.171-1.541,3.617,3.617,0,0,1,2.667,1,4.459,4.459,0,0,1,1.246,2.572l-1.428.272q-.4-2.522-2.438-2.524a2.249,2.249,0,0,0-2.014,1.114,5.325,5.325,0,0,0-.705,2.889,5.589,5.589,0,0,0,.7,3.04,2.22,2.22,0,0,0,1.97,1.084q1.964,0,2.489-2.536Z" transform="translate(-85.783 -33.3)" fill="#494b5a" stroke="#494b5a" stroke-width="1" fill-rule="evenodd"/>
    <path id="Trazado_149" data-name="Trazado 149" d="M230.3,87.641l1.477.3a4.152,4.152,0,0,1-1.571,2.164,4.525,4.525,0,0,1-2.751.857,4.274,4.274,0,0,1-3.376-1.47,6.426,6.426,0,0,1,.051-7.79,4.321,4.321,0,0,1,3.366-1.5,4.064,4.064,0,0,1,3.209,1.381,6.211,6.211,0,0,1,1.244,4.134h-7.4q0,2.313.966,3.12a3.147,3.147,0,0,0,2.045.807A2.794,2.794,0,0,0,230.3,87.641Zm-.086-3.1a4.439,4.439,0,0,0-.282-1.524,2.6,2.6,0,0,0-.886-1.135,2.429,2.429,0,0,0-1.5-.469,2.677,2.677,0,0,0-2,.848,3.508,3.508,0,0,0-.921,2.279h5.589Z" transform="translate(-92.721 -33.3)" fill="#494b5a" fill-rule="evenodd"/>
    <path id="Trazado_150" data-name="Trazado 150" d="M230.3,87.641l1.477.3a4.152,4.152,0,0,1-1.571,2.164,4.525,4.525,0,0,1-2.751.857,4.274,4.274,0,0,1-3.376-1.47,6.426,6.426,0,0,1,.051-7.79,4.321,4.321,0,0,1,3.366-1.5,4.064,4.064,0,0,1,3.209,1.381,6.211,6.211,0,0,1,1.244,4.134h-7.4q0,2.313.966,3.12a3.147,3.147,0,0,0,2.045.807A2.794,2.794,0,0,0,230.3,87.641Zm-.086-3.1a4.439,4.439,0,0,0-.282-1.524,2.6,2.6,0,0,0-.886-1.135,2.429,2.429,0,0,0-1.5-.469,2.677,2.677,0,0,0-2,.848,3.508,3.508,0,0,0-.921,2.279h5.589Z" transform="translate(-92.721 -33.3)" fill="#494b5a" stroke="#494b5a" stroke-width="1" fill-rule="evenodd"/>
    <path id="Trazado_151" data-name="Trazado 151" d="M240.042,88.04l1.516-.313q.5,1.921,3.189,1.921a3.024,3.024,0,0,0,1.676-.443,1.4,1.4,0,0,0,.687-1.248q0-1.2-1.748-1.52l-2.147-.409a3.92,3.92,0,0,1-2.007-.949,2.453,2.453,0,0,1-.746-1.868,2.7,2.7,0,0,1,1.018-2.144,4.1,4.1,0,0,1,2.742-.863q3.317,0,4.094,2.593l-1.453.312a2.483,2.483,0,0,0-2.569-1.588,2.9,2.9,0,0,0-1.587.4,1.248,1.248,0,0,0-.62,1.11q0,1.124,1.584,1.415l1.984.365q3.116.565,3.117,3.022a2.7,2.7,0,0,1-1.161,2.269,5.044,5.044,0,0,1-3.088.865Q240.9,90.965,240.042,88.04Z" transform="translate(-99.917 -33.3)" fill="#494b5a" fill-rule="evenodd"/>
    <path id="Trazado_152" data-name="Trazado 152" d="M240.042,88.04l1.516-.313q.5,1.921,3.189,1.921a3.024,3.024,0,0,0,1.676-.443,1.4,1.4,0,0,0,.687-1.248q0-1.2-1.748-1.52l-2.147-.409a3.92,3.92,0,0,1-2.007-.949,2.453,2.453,0,0,1-.746-1.868,2.7,2.7,0,0,1,1.018-2.144,4.1,4.1,0,0,1,2.742-.863q3.317,0,4.094,2.593l-1.453.312a2.483,2.483,0,0,0-2.569-1.588,2.9,2.9,0,0,0-1.587.4,1.248,1.248,0,0,0-.62,1.11q0,1.124,1.584,1.415l1.984.365q3.116.565,3.117,3.022a2.7,2.7,0,0,1-1.161,2.269,5.044,5.044,0,0,1-3.088.865Q240.9,90.965,240.042,88.04Z" transform="translate(-99.917 -33.3)" fill="#494b5a" stroke="#494b5a" stroke-width="1" fill-rule="evenodd"/>
    <path id="Trazado_153" data-name="Trazado 153" d="M134.55,40.772V38.324a.605.605,0,0,1,.621-.621h10.975a.612.612,0,0,1,.634.618v2.1a3.433,3.433,0,0,1-.827,1.541l-5.684,8.117a12.171,12.171,0,0,1,6.26,1.344,1.118,1.118,0,0,1,.582.956v2.612c0,.36-.393.776-.808.56a12.639,12.639,0,0,0-11.6.022c-.382.2-.781-.207-.781-.567V52.521a2.954,2.954,0,0,1,.408-1.683l6.587-9.449h-5.735a.611.611,0,0,1-.634-.617M95.275,56.065H91.936a.628.628,0,0,1-.6-.564l0-17.137a.63.63,0,0,1,.644-.617h3.109a.628.628,0,0,1,.607.575V40.56h.063a4.4,4.4,0,0,1,4.394-3.174c2.088,0,3.4,1.01,4.333,3.174a4.931,4.931,0,0,1,8.477-1.3c1.06,1.442.842,3.534.842,5.373l0,10.814a.63.63,0,0,1-.644.617h-3.335a.627.627,0,0,1-.6-.616V46.365a21.879,21.879,0,0,0-.094-3.209,1.74,1.74,0,0,0-1.963-1.479,2.214,2.214,0,0,0-1.995,1.407,10.352,10.352,0,0,0-.312,3.282v9.083a.63.63,0,0,1-.644.617h-3.335a.627.627,0,0,1-.6-.616l0-9.085c0-1.911.312-4.724-2.056-4.724-2.4,0-2.306,2.741-2.306,4.724l0,9.083a.63.63,0,0,1-.644.617m59.566-18.679c4.916,0,7.575,4.255,7.575,9.664,0,5.229-2.937,9.376-7.575,9.376-4.823,0-7.452-4.255-7.452-9.556,0-5.337,2.66-9.484,7.452-9.484Zm.031,3.939c-2.443,0-2.6,3.353-2.6,5.445s-.031,6.122,2.566,6.122c2.566,0,2.69-3.165,2.69-5.364a15.963,15.963,0,0,0-.494-4.544A2.077,2.077,0,0,0,154.872,41.326Zm14.659,14.739H166.2a.626.626,0,0,1-.6-.615L165.6,38.308a.633.633,0,0,1,.642-.56h3.1a.634.634,0,0,1,.593.48v2.621h.063c.935-2.344,2.244-3.462,4.55-3.462a4.377,4.377,0,0,1,3.9,2.02c.873,1.37.873,3.678.873,5.337V55.525a.633.633,0,0,1-.639.54h-3.348a.63.63,0,0,1-.595-.54v-9.3c0-1.875.219-4.616-2.088-4.616a2.184,2.184,0,0,0-1.932,1.37,7.618,7.618,0,0,0-.53,3.246v9.227a.639.639,0,0,1-.65.617M126.18,47.882a6.555,6.555,0,0,1-.624,3.542,2.713,2.713,0,0,1-2.312,1.518c-1.28,0-2.03-.976-2.03-2.421,0-2.843,2.551-3.361,4.966-3.361v.723Zm3.367,8.141a.692.692,0,0,1-.789.078,8.162,8.162,0,0,1-1.914-2.225,6.616,6.616,0,0,1-5.5,2.427c-2.811,0-5-1.735-5-5.2a5.671,5.671,0,0,1,3.56-5.457c1.812-.8,4.342-.94,6.278-1.156v-.434a4.274,4.274,0,0,0-.406-2.421,2.23,2.23,0,0,0-1.874-.867,2.543,2.543,0,0,0-2.684,2.005.7.7,0,0,1-.58.613l-3.236-.35a.588.588,0,0,1-.5-.7c.744-3.926,4.289-5.113,7.467-5.113a7.575,7.575,0,0,1,5.029,1.662c1.624,1.518,1.468,3.542,1.468,5.746v5.2a4.563,4.563,0,0,0,1.261,3.095.628.628,0,0,1-.012.887c-.682.571-1.893,1.625-2.56,2.218l-.008-.008ZM82.79,47.882a6.55,6.55,0,0,1-.624,3.542,2.711,2.711,0,0,1-2.312,1.518c-1.281,0-2.03-.976-2.03-2.421,0-2.843,2.551-3.361,4.966-3.361v.723Zm3.367,8.141a.692.692,0,0,1-.789.078,8.155,8.155,0,0,1-1.914-2.225,6.615,6.615,0,0,1-5.5,2.427c-2.811,0-5-1.735-5-5.2a5.671,5.671,0,0,1,3.561-5.457c1.812-.8,4.342-.94,6.278-1.156v-.434a4.279,4.279,0,0,0-.406-2.421,2.231,2.231,0,0,0-1.874-.867,2.543,2.543,0,0,0-2.684,2.005.7.7,0,0,1-.58.613l-3.236-.35a.588.588,0,0,1-.5-.7c.744-3.926,4.289-5.113,7.467-5.113a7.575,7.575,0,0,1,5.029,1.662c1.624,1.518,1.468,3.542,1.468,5.746v5.2a4.562,4.562,0,0,0,1.26,3.095.629.629,0,0,1-.01.887c-.682.571-1.894,1.625-2.561,2.218l-.008-.008Z" transform="translate(-30.221 -15.371)" fill="#494b5a" fill-rule="evenodd"/>
  </g>
</svg>
