<svg xmlns="http://www.w3.org/2000/svg" width="149.007" height="40.417" viewBox="0 0 149.007 40.417">
  <g id="Binance_Smart_Chain" data-name="Binance Smart Chain" transform="translate(-163.4 -298.6)">
    <path id="Shape" d="M385.4,324.437h6.855a5.313,5.313,0,0,1,3.839,1.274,3.314,3.314,0,0,1,1.161,2.547h0a4.077,4.077,0,0,1-.112,1.161,4.762,4.762,0,0,1-1.049,1.629,2.514,2.514,0,0,1-.693.468,4.85,4.85,0,0,1,2.1,1.274,3.44,3.44,0,0,1,.693,2.322h0a4.083,4.083,0,0,1-.356,1.742,3.739,3.739,0,0,1-1.161,1.274,10.332,10.332,0,0,1-1.742.805,7.775,7.775,0,0,1-2.322.225h-7.1V324.4H385.4Zm6.274,6.031a4.459,4.459,0,0,0,1.742-.356,1.256,1.256,0,0,0,.693-1.161h0a1.394,1.394,0,0,0-.581-1.161,2.016,2.016,0,0,0-1.629-.356H388.64v3.128h3.015v-.094Zm.805,5.937a4.459,4.459,0,0,0,1.742-.356,1.091,1.091,0,0,0,.581-1.274h0a1.394,1.394,0,0,0-.581-1.161,3.7,3.7,0,0,0-1.854-.468h-3.839v3.259Z" transform="translate(-180.422 -20.968)" fill="#494b5a"/>
    <path id="Path" d="M475.3,324.6h3.259v14.871H475.3Z" transform="translate(-253.485 -21.131)" fill="#494b5a"/>
    <path id="Path_1_" d="M519.4,324.6h3.015l6.967,9.177V324.6h3.24v14.871h-2.772l-7.323-9.421v9.421H519.4Z" transform="translate(-289.325 -21.131)" fill="#494b5a"/>
    <path id="Shape_1_" d="M615.086,324H618.1l6.387,14.983h-3.371l-1.386-3.371h-6.274l-1.386,3.371H608.7Zm3.484,8.821-1.967-4.87-1.966,4.87Z" transform="translate(-361.9 -20.643)" fill="#494b5a"/>
    <path id="Path_2_" d="M711.6,324.6h3.015l6.967,9.177V324.6h3.259v14.871h-2.791l-7.211-9.421v9.421H711.6Z" transform="translate(-445.529 -21.131)" fill="#494b5a"/>
    <path id="Path_3_" d="M812.26,338.72a8.468,8.468,0,0,1-3.015-.581,7.7,7.7,0,0,1-4.064-4.064,8.548,8.548,0,0,1-.581-3.015h0a8.079,8.079,0,0,1,2.21-5.45,7.138,7.138,0,0,1,2.435-1.629,7.464,7.464,0,0,1,3.128-.581,10.275,10.275,0,0,1,1.854.112,5.329,5.329,0,0,1,1.517.468,11.158,11.158,0,0,1,1.273.693,7.275,7.275,0,0,1,1.161.936l-1.966,2.435a14.672,14.672,0,0,0-1.742-1.274,3.913,3.913,0,0,0-1.966-.468,4.459,4.459,0,0,0-1.742.356,3.014,3.014,0,0,0-1.386,1.049,7.658,7.658,0,0,0-.937,1.517,4.825,4.825,0,0,0-.356,1.742h0a5.014,5.014,0,0,0,.356,1.854,4.28,4.28,0,0,0,.937,1.517,4.087,4.087,0,0,0,3.128,1.386,4.949,4.949,0,0,0,2.21-.468,9.91,9.91,0,0,0,1.742-1.274l2.079,2.079-1.161,1.161a8.247,8.247,0,0,1-1.386.805,6.968,6.968,0,0,1-1.629.581,14.732,14.732,0,0,1-2.1.112Z" transform="translate(-521.111 -20.155)" fill="#494b5a"/>
    <path id="Path_4_" d="M898.9,324.6h11.144v2.9h-8.016v3.015h7.08v2.9h-7.08v3.146h8.128v2.9H898.9Z" transform="translate(-597.749 -21.131)" fill="#494b5a"/>
    <path id="Path_5_" d="M388.52,435.694a5.111,5.111,0,0,1-2.322-.468,6.847,6.847,0,0,1-2.1-1.274l1.161-1.274a7.282,7.282,0,0,0,1.517,1.049,4.824,4.824,0,0,0,1.742.356,2.882,2.882,0,0,0,1.386-.356,1.039,1.039,0,0,0,.468-.936h0a.727.727,0,0,0-.112-.468c-.112-.112-.225-.356-.356-.468-.225-.112-.468-.225-.693-.356-.356-.112-.805-.225-1.161-.356a6.726,6.726,0,0,1-1.517-.468,3.162,3.162,0,0,1-1.049-.581,5.129,5.129,0,0,1-.693-.805,2.819,2.819,0,0,1-.225-1.274h0a5.057,5.057,0,0,1,.225-1.274,2.907,2.907,0,0,1,.693-.936,3.752,3.752,0,0,1,1.161-.581,6.107,6.107,0,0,1,1.386-.225,6.411,6.411,0,0,1,2.1.356,11.305,11.305,0,0,1,1.742.936l-.936,1.386a8.247,8.247,0,0,0-1.386-.805,3.041,3.041,0,0,0-1.386-.225,2.209,2.209,0,0,0-1.274.356,1.456,1.456,0,0,0-.468.936h0a1.077,1.077,0,0,0,.112.581c.112.112.225.356.356.468.225.112.468.225.805.356.356.112.693.225,1.274.356a9.093,9.093,0,0,1,1.517.468,4.886,4.886,0,0,1,1.049.581,3.612,3.612,0,0,1,.581.805,3.554,3.554,0,0,1,.225,1.161h0a4.185,4.185,0,0,1-.225,1.274,6.546,6.546,0,0,1-.805,1.049,3.754,3.754,0,0,1-1.161.581C389.569,435.582,388.988,435.694,388.52,435.694Z" transform="translate(-179.365 -102.727)" fill="#494b5a"/>
    <path id="Path_6_" d="M438.7,425.7h1.985l3.128,4.87,3.259-4.87h1.967v10.451h-1.854V428.6l-3.259,4.87h-.112l-3.24-4.87v7.548H438.7Z" transform="translate(-223.74 -103.296)" fill="#494b5a"/>
    <path id="Shape_2_" d="M507.814,425.1h1.742l4.532,10.451h-1.966L511.073,433H506.2l-1.049,2.547H503.3Zm2.678,6.387-1.854-4.177-1.742,4.177Z" transform="translate(-276.241 -102.808)" fill="#494b5a"/>
    <path id="Shape_3_" d="M570.312,425.7h4.645a9.246,9.246,0,0,1,1.742.225,2.96,2.96,0,0,1,1.274.805,3.893,3.893,0,0,1,.693,1.049,4.3,4.3,0,0,1,.225,1.274h0a4.247,4.247,0,0,1-.225,1.161c-.112.356-.356.581-.468.936a5.13,5.13,0,0,1-.805.693,4.3,4.3,0,0,1-1.049.468l2.791,3.952h-2.21l-2.547-3.6h-2.322v3.6H570.2Zm4.532,5.113a2.139,2.139,0,0,0,1.517-.468,1.831,1.831,0,0,0,.581-1.274h0a1.8,1.8,0,0,0-.581-1.273,2.638,2.638,0,0,0-1.629-.468h-2.678v3.484Z" transform="translate(-330.611 -103.296)" fill="#494b5a"/>
    <path id="Path_7_" d="M627.471,427.329H624.1V425.7h8.484v1.629h-3.371v8.821h-1.854Z" transform="translate(-374.416 -103.296)" fill="#494b5a"/>
    <path id="Path_8_" d="M706.721,435.125a4.546,4.546,0,0,1-2.1-.468,5.1,5.1,0,0,1-2.791-2.791,4.561,4.561,0,0,1-.356-2.1h0a6.412,6.412,0,0,1,.356-2.1,5.293,5.293,0,0,1,2.791-2.9,6.928,6.928,0,0,1,2.21-.468,4.414,4.414,0,0,1,1.274.112c.356.112.693.225,1.049.356.356.112.581.356.936.468.225.225.581.468.805.693l-1.161,1.386a5.33,5.33,0,0,0-1.274-.936,3.85,3.85,0,0,0-1.629-.356,5.789,5.789,0,0,0-1.386.225,4.286,4.286,0,0,0-1.161.805,2.334,2.334,0,0,0-.693,1.161,6.1,6.1,0,0,0-.225,1.386h0a5.787,5.787,0,0,0,.225,1.386,2.573,2.573,0,0,0,.693,1.161,3.907,3.907,0,0,0,1.161.805,1.949,1.949,0,0,0,1.386.225,3.588,3.588,0,0,0,1.629-.356,4.924,4.924,0,0,0,1.386-1.049l1.161,1.161-.805.805a4.25,4.25,0,0,1-.937.581,3.521,3.521,0,0,1-1.161.356,1.747,1.747,0,0,1-1.386.449Z" transform="translate(-437.278 -102.158)" fill="#494b5a"/>
    <path id="Path_9_" d="M762.4,425.7h1.742v4.289h5V425.7H771v10.451h-1.854v-4.42h-5v4.42H762.4Z" transform="translate(-486.814 -103.296)" fill="#494b5a"/>
    <path id="Shape_4_" d="M822.814,425.1h1.742l4.532,10.451h-1.966L826.073,433H821.2l-1.049,2.547H818.3Zm2.566,6.387-1.742-4.177-1.742,4.177Z" transform="translate(-532.245 -102.808)" fill="#494b5a"/>
    <path id="Path_10_" d="M885.8,425.7h1.873v10.451H885.8Z" transform="translate(-587.103 -103.296)" fill="#494b5a"/>
    <path id="Path_11_" d="M910.6,425.7h1.629l5.581,7.192V425.7h1.854v10.451h-1.517l-5.675-7.435v7.435H910.6Z" transform="translate(-607.258 -103.296)" fill="#494b5a"/>
    <path id="binancedex" d="M184.545,332.162v4.532l-3.952,2.322-3.839-2.322v-4.532l3.839,2.322ZM163.4,316.486l3.839,2.322v7.772l6.611,3.952v4.532L163.4,328.9Zm34.386,0v12.436l-10.563,6.162v-4.532l6.611-3.952v-7.772ZM187.2,310.324l3.952,2.322h0v4.532l-6.611,3.952v7.885l-3.839,2.322-3.821-2.322v-7.9l-6.855-3.952v-4.532l3.952-2.322,6.611,3.952ZM170.03,320.419l3.839,2.322v4.532l-3.839-2.322Zm21.126,0v4.532l-3.839,2.322v-4.532Zm-23.917-14.047,3.952,2.322-3.952,2.322v4.532l-3.839-2.322v-4.532Zm26.707,0,3.952,2.322v4.532l-3.952,2.322v-4.532l-3.839-2.322Zm-13.354,0,3.952,2.322-3.952,2.322-3.839-2.322Zm0-7.772,10.563,6.162-3.839,2.322-6.611-3.952-6.742,3.952-3.839-2.322Z" fill="#494b5a"/>
  </g>
</svg>
