<svg xmlns="http://www.w3.org/2000/svg" width="165.667" height="45.576" viewBox="0 0 165.667 45.576">
  <g id="CoinGecko" transform="translate(-31.1 -73.1)">
    <path id="Trazado_39" data-name="Trazado 39" d="M53.828,73.1A22.788,22.788,0,1,1,31.1,95.888,22.765,22.765,0,0,1,53.828,73.1ZM36.514,107.787a.886.886,0,0,0,.238.535,18.9,18.9,0,0,0,3.094,3.451,18.515,18.515,0,0,0,1.666,1.368,24.8,24.8,0,0,0,5.3,2.737,22.163,22.163,0,0,0,4.76,1.13,16.3,16.3,0,0,0,3.808,0,9.573,9.573,0,0,0,2.2-.416c.119.059.178-.06.238-.06a19.174,19.174,0,0,0,4.343-1.309A21.03,21.03,0,0,0,74.593,92.794a20.069,20.069,0,0,0-5.236-11.007A20.149,20.149,0,0,0,54.9,74.825a19.216,19.216,0,0,0-7.556,1.011A21.2,21.2,0,0,0,32.706,95.471a17.423,17.423,0,0,0,.238,3.51,20.075,20.075,0,0,0,2.618,7.556C35.919,106.895,36.157,107.371,36.514,107.787Z" fill="#494b5a" fill-rule="evenodd"/>
    <path id="Trazado_40" data-name="Trazado 40" d="M61.262,124.059a5.777,5.777,0,0,1-2.2.416,16.3,16.3,0,0,1-3.808,0,22.163,22.163,0,0,1-4.76-1.13,24.8,24.8,0,0,1-5.3-2.737,18.515,18.515,0,0,1-1.666-1.368,18.9,18.9,0,0,1-3.094-3.451,1.069,1.069,0,0,1-.238-.535A30.868,30.868,0,0,0,42.461,105.2a44.044,44.044,0,0,1,.476-4.819,9.288,9.288,0,0,1,2.32-4.938,11.111,11.111,0,0,1,4.284-2.677,12.29,12.29,0,0,1,4.165-1.071,14.892,14.892,0,0,1,3.986.416,28.715,28.715,0,0,1,5.771,1.963c1.487.595,3.034,1.19,4.581,1.666a14.377,14.377,0,0,1,4.581,2.023,3.953,3.953,0,0,1,1.428,5,9.9,9.9,0,0,1-2.261,3.153c-1.606,1.666-3.332,3.213-4.879,4.938a28.363,28.363,0,0,0-4.522,6.723,11.19,11.19,0,0,0-1.13,6.485Zm11.483-19.575a.219.219,0,0,0-.178.06.128.128,0,0,0-.119.119v.06a.128.128,0,0,0,.119-.119l.178-.119ZM54.539,94.132a4.076,4.076,0,1,0-.059,8.151,4.152,4.152,0,0,0,4.105-4.105,4.012,4.012,0,0,0-4.046-4.046Zm3.332,12.495a3.359,3.359,0,0,0,1.785,1.249,8.808,8.808,0,0,0,4.641.238,20.687,20.687,0,0,0,7.616-3.034c.119-.119.357-.119.416-.357-.119-.059-.178,0-.238.059a18.483,18.483,0,0,1-2.439,1.19,20.207,20.207,0,0,1-6.783,1.606A8.152,8.152,0,0,1,57.871,106.626Zm11.245-3.51a.928.928,0,0,0,.892-.952.847.847,0,0,0-.952-.833.864.864,0,0,0-.833.892A.843.843,0,0,0,69.116,103.116Z" transform="translate(-3.686 -7.526)" fill="#494b5a" fill-rule="evenodd"/>
    <path id="Trazado_42" data-name="Trazado 42" d="M61.505,95.8a4.05,4.05,0,0,1,4.046,4.046h0a4.152,4.152,0,0,1-4.105,4.105,4.076,4.076,0,0,1,.059-8.151Zm2.856,4.105a2.856,2.856,0,1,0-2.915,2.856h.059a2.9,2.9,0,0,0,2.856-2.856Z" transform="translate(-10.652 -9.194)" fill="#fcfdfb" fill-rule="evenodd"/>
    <path id="Trazado_43" data-name="Trazado 43" d="M69.738,106.7a8.634,8.634,0,0,0,5,1.011,18.877,18.877,0,0,0,6.783-1.606,18.484,18.484,0,0,0,2.439-1.19c.059-.06.119-.119.238-.06-.06.178-.238.238-.416.357a20.687,20.687,0,0,1-7.616,3.034,8.778,8.778,0,0,1-4.641-.238,3.516,3.516,0,0,1-1.785-1.309ZM69.5,92.186a5.959,5.959,0,0,1,3.808,0,3.036,3.036,0,0,1,1.963,2.023A23.713,23.713,0,0,0,69.5,92.186Z" transform="translate(-15.553 -7.603)" fill="#7e8295" fill-rule="evenodd"/>
    <path id="Trazado_44" data-name="Trazado 44" d="M88.192,109.685a.915.915,0,0,1-.892-.892.864.864,0,0,1,.833-.892.893.893,0,1,1,.059,1.785Z" transform="translate(-22.762 -14.095)" fill="#fcfdfb" fill-rule="evenodd"/>
    <path id="Trazado_45" data-name="Trazado 45" d="M94.519,113.319a.128.128,0,0,1-.119.119h0c0-.119.059-.178.119-.119Zm.178-.119-.178.119-.059-.059a.45.45,0,0,1,.238-.06Z" transform="translate(-25.638 -16.241)" fill="#a9acbf" fill-rule="evenodd"/>
    <path id="Trazado_46" data-name="Trazado 46" d="M94.9,113.2Z" transform="translate(-25.84 -16.241)" fill="#a9acbf" fill-rule="evenodd"/>
    <path id="Trazado_48" data-name="Trazado 48" d="M65.212,100.715a2.844,2.844,0,0,1-2.8,2.856h-.059a2.857,2.857,0,0,1-2.856-2.856v-.06A2.857,2.857,0,0,1,62.356,97.8a2.908,2.908,0,0,1,2.856,2.915Z" transform="translate(-11.503 -10.004)" fill="#494b5a" fill-rule="evenodd"/>
    <path id="Trazado_49" data-name="Trazado 49" d="M179.841,112.106c-.06.06-.119.06-.178.119A6.167,6.167,0,0,1,173,114.01c-3.094-.773-4.76-2.975-5.414-6.009a9.573,9.573,0,0,1,.476-5.771,7.338,7.338,0,0,1,7.973-4.581,7,7,0,0,1,4.224,1.963,5.772,5.772,0,0,1,1.487,3.153c.06.238-.06.3-.238.3h-2.2c-.178,0-.238-.06-.3-.238a3.473,3.473,0,0,0-2.975-2.8,4.337,4.337,0,0,0-4.522,1.428,6.965,6.965,0,0,0-1.368,4.581,7.777,7.777,0,0,0,.773,3.51,4.819,4.819,0,0,0,6.664,1.844,4.013,4.013,0,0,0,1.844-3.451c0-.3-.178-.238-.357-.238h-3.51c-.357,0-.416-.119-.416-.416v-1.368c0-.3.119-.357.357-.357h6.128c.238,0,.357.06.357.3v7.794c0,.238-.06.3-.3.3a3.737,3.737,0,0,1-1.428-.059c-.357-.238-.238-.833-.357-1.309C179.9,112.4,179.841,112.225,179.841,112.106Zm-47.122-9.044h-1.13c-.238,0-.3-.06-.357-.3a3.6,3.6,0,0,0-3.272-2.856,4.236,4.236,0,0,0-4.462,2.142,7.734,7.734,0,0,0,.06,7.854,4.3,4.3,0,0,0,4.938,1.963,3.971,3.971,0,0,0,2.8-3.332c.119-.654.119-.654.773-.654h1.785c.238,0,.3.059.238.3a6.423,6.423,0,0,1-5.414,6.069,7.491,7.491,0,0,1-8.865-6.485,10.427,10.427,0,0,1,.654-5.712,7.632,7.632,0,0,1,12.078-2.38,5.772,5.772,0,0,1,1.487,3.153c.06.238,0,.3-.238.3A3.159,3.159,0,0,0,132.719,103.063ZM220.3,113.891h-2.856a.4.4,0,0,1-.416-.3c-1.011-1.666-2.082-3.272-3.094-4.938-.178-.3-.238-.3-.535-.059a2.815,2.815,0,0,0-1.249,2.915,12.165,12.165,0,0,1,0,2.082c0,.3-.119.357-.357.357h-1.785c-.3,0-.357-.119-.357-.416V98.422c0-.416.119-.535.535-.476a7.251,7.251,0,0,0,1.606,0c.357,0,.416.119.416.416v8.508l.119.06c.178-.238.417-.476.595-.714,1.19-1.249,2.38-2.439,3.629-3.689a.6.6,0,0,1,.417-.238h2.856c0,.178-.178.238-.238.357-1.249,1.19-2.439,2.38-3.748,3.57-.3.238-.3.416-.06.773l4.284,6.426c0,.178.119.3.238.476Zm-29.392-5.117H187.04c-.3,0-.357.059-.357.357a3.13,3.13,0,0,0,4.4,2.856,2.291,2.291,0,0,0,1.309-1.368.5.5,0,0,1,.535-.357H194.6c.3,0,.357.059.238.357a4.764,4.764,0,0,1-4.224,3.51,5.5,5.5,0,0,1-5.057-1.547,5.99,5.99,0,0,1-1.487-3.689,6.693,6.693,0,0,1,1.19-4.7,5.457,5.457,0,0,1,9.639,1.9,6.372,6.372,0,0,1,.238,2.38c0,.3-.119.357-.357.357C193.526,108.774,192.217,108.774,190.908,108.774Zm-1.249-1.666h2.618c.3,0,.357-.059.3-.357a3.053,3.053,0,0,0-2.856-2.737,2.926,2.926,0,0,0-3.034,2.618c-.06.3,0,.416.357.416.892.059,1.725.059,2.618.059Zm-53.846,1.011a9.332,9.332,0,0,1,.3-2.2,5.939,5.939,0,0,1,10.531-1.19,6.854,6.854,0,0,1-.06,6.842c-1.13,2.082-3.094,2.737-5.355,2.618C137.835,114.01,135.812,111.69,135.812,108.12Zm2.558,0a4.458,4.458,0,0,0,.773,2.737,2.993,2.993,0,0,0,4.165.833,5.137,5.137,0,0,0,.833-.773,5.291,5.291,0,0,0,0-5.533,3.03,3.03,0,0,0-5.057.059A4.648,4.648,0,0,0,138.371,108.12Zm82.583.059a6.2,6.2,0,0,1,1.487-4.4,5.462,5.462,0,0,1,4.343-1.785,5.666,5.666,0,0,1,4.4,1.785,6.565,6.565,0,0,1,1.428,5,6.8,6.8,0,0,1-.417,1.9,5.853,5.853,0,0,1-11.186-2.023c0-.119-.059-.357-.059-.476Zm9.1.119a5.851,5.851,0,0,0-.714-2.915,3,3,0,0,0-4.165-.892,3.187,3.187,0,0,0-.892.892,5.345,5.345,0,0,0,0,5.414,2.993,2.993,0,0,0,4.165.833,2.78,2.78,0,0,0,.833-.833A4.11,4.11,0,0,0,230.057,108.3Zm-72.707-4.343a4.988,4.988,0,0,1,2.677-1.844,4.641,4.641,0,0,1,2.975.238,3.457,3.457,0,0,1,2.082,3.332c.059,2.618,0,5.236,0,7.854,0,.3-.06.357-.357.357h-1.785c-.3,0-.416-.059-.416-.416v-6.664a5.071,5.071,0,0,0-.178-1.368,2.137,2.137,0,0,0-2.856-1.309,2.792,2.792,0,0,0-1.963,2.8v6.485c0,.357-.06.535-.476.476a7.8,7.8,0,0,0-1.666,0c-.3,0-.416-.06-.416-.416v-10.65c0-.416.119-.535.535-.476a13.417,13.417,0,0,0,1.547,0c.3,0,.416.06.357.357a8.788,8.788,0,0,0-.059,1.249Zm48.788,2.261h-.178c-.655.059-1.071,0-1.368-.773-.714-1.785-3.57-1.844-4.76-.178a4.1,4.1,0,0,0-.714,1.9,6.372,6.372,0,0,0,.357,3.332,2.738,2.738,0,0,0,3.034,1.725,2.582,2.582,0,0,0,2.2-2.142c.059-.357.238-.476.595-.416h1.725c.3,0,.357.119.3.357a5.013,5.013,0,0,1-5.593,4.284,5.258,5.258,0,0,1-5.176-5.176,7.863,7.863,0,0,1,.535-3.867,5.269,5.269,0,0,1,5.3-3.153,5.613,5.613,0,0,1,3.808,1.428,4.534,4.534,0,0,1,1.19,2.38q.089.446-.357.357A3.941,3.941,0,0,0,206.139,106.216Zm-53.965,1.963v5.176c0,.476-.119.595-.535.535a6.726,6.726,0,0,0-1.547,0c-.357,0-.476-.059-.476-.476v-10.71c0-.3.06-.357.357-.357h1.785c.357,0,.476.059.476.476C152.174,104.609,152.174,106.394,152.174,108.179Zm-1.19-10.234c.357.06.892-.178,1.13.06s.059.773.059,1.19c0,.357.178.833-.059,1.071s-.714.059-1.071.059c-.476,0-1.071.178-1.368-.059-.238-.3-.06-.892-.06-1.309,0-1.011,0-1.011,1.011-1.011Z" transform="translate(-35.873 -9.912)" fill="#494b5a" fill-rule="evenodd"/>
  </g>
</svg>
