<svg xmlns="http://www.w3.org/2000/svg" width="199.687" height="34.34" viewBox="0 0 199.687 34.34">
  <g id="coinmarketcap-seeklogo.com" transform="translate(-20.2 -269.9)">
    <path id="Trazado_154" data-name="Trazado 154" d="M49.616,290.431a1.824,1.824,0,0,1-1.83.133,2.811,2.811,0,0,1-1.065-2.529v-3.76c0-1.8-.7-3.095-1.9-3.427-2.03-.6-3.56,1.9-4.126,2.828L37.1,289.433v-7.088c-.033-1.63-.566-2.6-1.564-2.895-.666-.2-1.664-.1-2.629,1.364l-8.019,12.844a14.2,14.2,0,0,1-1.631-6.589,13.844,13.844,0,1,1,27.685,0v.067a3.544,3.544,0,0,1-1.331,3.294Zm4.392-3.361h0V287A16.907,16.907,0,1,0,37.1,304.24a16.61,16.61,0,0,0,11.48-4.592,1.555,1.555,0,0,0-2.1-2.3l-.033.033a13.674,13.674,0,0,1-19.7-.9l7.221-11.58v5.357c0,2.562,1,3.394,1.83,3.627s2.1.067,3.461-2.1l3.96-6.422a3.682,3.682,0,0,1,.366-.532V288.1a5.752,5.752,0,0,0,2.629,5.258,4.835,4.835,0,0,0,4.958-.2A6.594,6.594,0,0,0,54.008,287.07Zm23.559-5.857a1.669,1.669,0,0,1,.765,1.3,1.471,1.471,0,0,1-1.431,1.464,2.523,2.523,0,0,1-.532-.1,5.468,5.468,0,0,0-3.228-1.1c-2.828,0-4.758,2.3-4.758,5.158a4.828,4.828,0,0,0,4.758,5.124,5.168,5.168,0,0,0,3.594-1.464,1.456,1.456,0,0,1,.832-.266,1.349,1.349,0,0,1,1.364,1.364,1.417,1.417,0,0,1-.666,1.165,7.9,7.9,0,1,1-5.091-13.976A7.521,7.521,0,0,1,77.567,281.214Zm7.92,3.328a5.526,5.526,0,0,1,5.424,5.59,5.66,5.66,0,0,1-5.424,5.69,5.724,5.724,0,0,1-5.657-5.69A5.638,5.638,0,0,1,85.487,284.541Zm-.033,8.519a2.657,2.657,0,0,0,2.4-2.895,2.5,2.5,0,0,0-2.4-2.729,2.546,2.546,0,0,0-2.562,2.729A2.735,2.735,0,0,0,85.454,293.06Zm7.321,1.032v-7.853a1.534,1.534,0,0,1,1.531-1.564,1.555,1.555,0,0,1,1.531,1.564v7.853a1.555,1.555,0,0,1-1.531,1.564A1.577,1.577,0,0,1,92.774,294.091Zm-.233-12.379a1.79,1.79,0,0,1,1.764-1.83,1.818,1.818,0,0,1,1.8,1.83,1.78,1.78,0,1,1-3.56,0Zm9.151,8.119v4.259a1.531,1.531,0,1,1-3.061,0v-8.219a1.181,1.181,0,1,1,2.363,0,4.441,4.441,0,0,1,3.361-1.331c3.061,0,4.426,2.3,4.426,4.925v4.625a1.531,1.531,0,1,1-3.061,0v-4.259c0-1.331-.166-2.462-2.1-2.462-1.364,0-1.93,1.131-1.93,2.462Zm17,1.631a.992.992,0,0,1-.8-.4l-3.561-3.86v6.888a1.531,1.531,0,1,1-3.061,0V280.448a.648.648,0,0,1,.566-.4,1.071,1.071,0,0,1,.666.4l5.69,6.389a.742.742,0,0,0,.5.3.817.817,0,0,0,.5-.3l5.69-6.389a.99.99,0,0,1,.666-.4.58.58,0,0,1,.566.4v13.643a1.534,1.534,0,0,1-1.531,1.564,1.555,1.555,0,0,1-1.531-1.564V287.2l-3.561,3.86a1.228,1.228,0,0,1-.8.4Zm14.708,1.6a2.711,2.711,0,0,0,2.529-2.895A2.608,2.608,0,0,0,133.4,287.4a2.554,2.554,0,0,0-2.429,2.762A2.679,2.679,0,0,0,133.4,293.06Zm3.261,1.4-.067-.366c-.6,1.165-2.5,1.7-3.694,1.7-2.862,0-4.991-2.6-4.991-5.69a5.309,5.309,0,0,1,5.158-5.59,4.787,4.787,0,0,1,3.561,1.7l.067-.366a1.165,1.165,0,0,1,1.165-1.2,1.215,1.215,0,0,1,1.2,1.2v8.585a1.193,1.193,0,0,1-1.2,1.2,1.146,1.146,0,0,1-1.2-1.165Zm10.815-7.088h-.333c-1.93.1-2.3,1.2-2.3,2.462v4.259a1.531,1.531,0,1,1-3.061,0v-8.219a1.181,1.181,0,1,1,2.363,0,4.244,4.244,0,0,1,2.995-1.331h.3a1.435,1.435,0,0,1,1.4,1.431,1.4,1.4,0,0,1-1.364,1.4Zm11.813,5.99a1.462,1.462,0,0,1,.233.732,1.6,1.6,0,0,1-1.531,1.531,1.889,1.889,0,0,1-1.364-.865l-3.527-4.093v3.394a1.531,1.531,0,1,1-3.061,0V281.58a1.531,1.531,0,1,1,3.061,0v7.787l3.527-3.893a2,2,0,0,1,1.331-.832,1.529,1.529,0,0,1,1.464,1.5,1.31,1.31,0,0,1-.2.7l-2.8,3.061,2.862,3.461Zm5.99-5.956c-.832,0-2.2.433-2.2,1.73h4.426c-.033-1.3-1.431-1.73-2.229-1.73Zm3.993,3.694h-6.189c0,1.83,1.764,2.13,2.529,2.13a4.967,4.967,0,0,0,2-.4,1.507,1.507,0,0,1,.8-.233,1.257,1.257,0,0,1,1.231,1.264,1.348,1.348,0,0,1-.666,1.1,5.5,5.5,0,0,1-3.328.865c-3.095,0-5.657-1.664-5.657-5.557,0-3.061,1.564-5.723,5.224-5.723,2.962,0,5.191,1.93,5.258,5.357a1.215,1.215,0,0,1-1.2,1.2Zm8.519,4.692h-.832c-2.329,0-3.694-1.032-3.694-4.659v-3.76h-.8a1.415,1.415,0,0,1,0-2.828h.8v-2.895a1.534,1.534,0,0,1,1.531-1.564,1.555,1.555,0,0,1,1.531,1.564v2.895h1.264a1.407,1.407,0,0,1,1.364,1.431,1.447,1.447,0,0,1-1.364,1.4h-1.264v3.161c0,2.1.1,2.529,1.032,2.529h.433a1.37,1.37,0,0,1,1.364,1.364,1.393,1.393,0,0,1-1.364,1.364ZM192.6,281.214a1.669,1.669,0,0,1,.765,1.3,1.471,1.471,0,0,1-1.431,1.464,2.523,2.523,0,0,1-.532-.1,5.468,5.468,0,0,0-3.228-1.1c-2.828,0-4.758,2.3-4.758,5.158a4.828,4.828,0,0,0,4.758,5.124,5.168,5.168,0,0,0,3.594-1.464,1.456,1.456,0,0,1,.832-.266,1.349,1.349,0,0,1,1.364,1.364,1.417,1.417,0,0,1-.666,1.165,7.9,7.9,0,1,1-5.091-13.976,7.448,7.448,0,0,1,4.392,1.331Zm7.753,11.846a2.711,2.711,0,0,0,2.529-2.895,2.608,2.608,0,0,0-2.529-2.762,2.534,2.534,0,0,0-2.429,2.762,2.7,2.7,0,0,0,2.429,2.895Zm3.261,1.4-.067-.366c-.6,1.165-2.5,1.7-3.694,1.7-2.862,0-4.991-2.6-4.991-5.69a5.309,5.309,0,0,1,5.158-5.59,4.788,4.788,0,0,1,3.561,1.7l.067-.366a1.165,1.165,0,0,1,1.165-1.2,1.215,1.215,0,0,1,1.2,1.2v8.585a1.193,1.193,0,0,1-1.2,1.2A1.146,1.146,0,0,1,203.616,294.457Zm10.748-1.4a2.679,2.679,0,0,0,2.429-2.895,2.534,2.534,0,0,0-2.429-2.762,2.588,2.588,0,0,0-2.529,2.762A2.711,2.711,0,0,0,214.364,293.06Zm-2.529,1.83v3.893a1.531,1.531,0,1,1-3.061,0V285.872a1.193,1.193,0,0,1,1.2-1.2,1.224,1.224,0,0,1,1.165,1.331,4.921,4.921,0,0,1,3.594-1.464,5.31,5.31,0,0,1,5.158,5.59c0,3.061-2.1,5.69-4.991,5.69a5.869,5.869,0,0,1-3.061-.932Z" fill="#494b5a"/>
  </g>
</svg>
