<svg id="Capa_1" data-name="Capa 1" xmlns="http://www.w3.org/2000/svg" xmlns:xlink="http://www.w3.org/1999/xlink" viewBox="0 0 506.07 182.4"><defs><style>.cls-1{fill:none;}.cls-2{fill:#484a59;}.cls-3{fill:url(#Degradado_sin_nombre_67);}.cls-4{fill:url(#Degradado_sin_nombre_68);}.cls-5{fill:url(#Degradado_sin_nombre_69);}.cls-6{fill:url(#Degradado_sin_nombre_70);}.cls-10,.cls-11,.cls-13,.cls-7{fill:#fff;}.cls-7{opacity:0.8;}.cls-11,.cls-13,.cls-7{isolation:isolate;}.cls-8{fill:url(#Degradado_sin_nombre_71);}.cls-9{fill:url(#Degradado_sin_nombre_72);}.cls-11{opacity:0.25;}.cls-12{fill:url(#Degradado_sin_nombre_73);}.cls-13{opacity:0.5;}.cls-14{fill:#474a5a;}.cls-15{clip-path:url(#clip-path);}.cls-16{fill:url(#Degradado_sin_nombre_74);}.cls-17{clip-path:url(#clip-path-2);}.cls-18{fill:url(#Degradado_sin_nombre_75);}.cls-19{clip-path:url(#clip-path-3);}.cls-20{fill:url(#Degradado_sin_nombre_76);}.cls-21{clip-path:url(#clip-path-4);}.cls-22{fill:url(#Degradado_sin_nombre_77);}.cls-23{clip-path:url(#clip-path-5);}.cls-24{fill:url(#Degradado_sin_nombre_78);}.cls-25{clip-path:url(#clip-path-6);}.cls-26{fill:url(#Degradado_sin_nombre_79);}.cls-27{clip-path:url(#clip-path-7);}.cls-28{fill:url(#Degradado_sin_nombre_80);}.cls-29{clip-path:url(#clip-path-8);}.cls-30{fill:url(#Degradado_sin_nombre_81);}.cls-31{clip-path:url(#clip-path-9);}.cls-32{fill:url(#Degradado_sin_nombre_82);}.cls-33{clip-path:url(#clip-path-10);}.cls-34{fill:url(#Degradado_sin_nombre_83);}.cls-35{clip-path:url(#clip-path-11);}.cls-36{fill:url(#Degradado_sin_nombre_84);}.cls-37{clip-path:url(#clip-path-12);}.cls-38{fill:url(#Degradado_sin_nombre_85);}.cls-39{opacity:0.75;}</style><linearGradient id="Degradado_sin_nombre_67" x1="98.2" y1="230.73" x2="167.83" y2="283.13" gradientTransform="matrix(1, 0, 0, -1, 0, 428)" gradientUnits="userSpaceOnUse"><stop offset="0" stop-color="#73ddf4"/><stop offset="0.18" stop-color="#7fe1f3"/><stop offset="0.51" stop-color="#9eebf0"/><stop offset="0.93" stop-color="#cffceb"/><stop offset="1" stop-color="#d8ffea"/></linearGradient><linearGradient id="Degradado_sin_nombre_68" x1="100.02" y1="264.08" x2="45.91" y2="232.21" xlink:href="#Degradado_sin_nombre_67"/><linearGradient id="Degradado_sin_nombre_69" x1="117.82" y1="303.81" x2="105" y2="278.69" xlink:href="#Degradado_sin_nombre_67"/><linearGradient id="Degradado_sin_nombre_70" x1="105.75" y1="257.6" x2="167.43" y2="257.6" xlink:href="#Degradado_sin_nombre_67"/><linearGradient id="Degradado_sin_nombre_71" x1="26.09" y1="258.86" x2="83.93" y2="258.86" xlink:href="#Degradado_sin_nombre_67"/><linearGradient id="Degradado_sin_nombre_72" x1="-1052.91" y1="-1401.91" x2="-1052.55" y2="-1401.91" gradientTransform="matrix(270.57, -11.24, 11.24, 270.57, 300661.92, 367712.32)" gradientUnits="userSpaceOnUse"><stop offset="0" stop-color="#fae9f2"/><stop offset="0.01" stop-color="#fae9f2"/><stop offset="0.45" stop-color="#f7cfe2"/><stop offset="1" stop-color="#f4b8d4"/></linearGradient><linearGradient id="Degradado_sin_nombre_73" x1="-1051.82" y1="-1399.5" x2="-1051.46" y2="-1399.5" gradientTransform="matrix(189.54, 13.94, -13.94, 189.54, 179955.6, 280151.08)" xlink:href="#Degradado_sin_nombre_72"/><clipPath id="clip-path" transform="translate(-10.95 -121.4)"><path class="cls-1" d="M275.29,226.05a6.76,6.76,0,0,0-6.19-3.23,7.42,7.42,0,0,0-5.26,1.79,11.65,11.65,0,0,0-2.92,5.29L250.85,262,241,230a12.48,12.48,0,0,0-2.95-5.37,6.77,6.77,0,0,0-4.89-1.8,7.08,7.08,0,0,0-5,1.79,13,13,0,0,0-3.07,5.27l-10.3,31.49-9.53-31.46a11.64,11.64,0,0,0-2.92-5.3,7.54,7.54,0,0,0-5.34-1.79c-3.28,0-5.64,1.08-7,3.22s-1.54,4.73-.51,7.7l16,48.62a11.24,11.24,0,0,0,3.24,5.31,8.22,8.22,0,0,0,5.43,1.76,8,8,0,0,0,5.44-1.77,12.1,12.1,0,0,0,3.21-5.2l9.92-30,9.76,29.88a11.15,11.15,0,0,0,3.23,5.31,8.24,8.24,0,0,0,5.43,1.76,8.06,8.06,0,0,0,5.39-1.76,11.43,11.43,0,0,0,3.19-5.21l16.12-48.72C276.75,230.77,276.59,228.18,275.29,226.05Z"/></clipPath><linearGradient id="Degradado_sin_nombre_74" x1="-1058.18" y1="-1408.01" x2="-1057.8" y2="-1408.01" gradientTransform="matrix(-3.34, -493.63, 436.92, -3.78, 611880.66, -527499.05)" gradientUnits="userSpaceOnUse"><stop offset="0" stop-color="#f2afc5"/><stop offset="0.08" stop-color="#f7d6e1"/><stop offset="0.25" stop-color="#8ddaed"/><stop offset="0.92" stop-color="#f6d1dd"/><stop offset="0.98" stop-color="#f5c9d4"/><stop offset="1" stop-color="#f5c9d4"/></linearGradient><clipPath id="clip-path-2" transform="translate(-10.95 -121.4)"><path class="cls-1" d="M196.86,211.17H212c9.56,0,17.11-3,22.42-9s8-14.46,8-25.24-2.7-19.25-8-25.19-12.86-8.92-22.42-8.92h-15.1c-5.36,0-8.19,3.43-8.19,9.92v48.47C188.67,207.74,191.5,211.17,196.86,211.17Zm7.59-16V158.85H211c5.1,0,8.92,1.48,11.38,4.42s3.69,7.54,3.69,13.7-1.23,10.79-3.66,13.75-6.26,4.47-11.41,4.47Z"/></clipPath><linearGradient id="Degradado_sin_nombre_75" x1="-1058.03" y1="-1408.05" x2="-1057.61" y2="-1408.05" xlink:href="#Degradado_sin_nombre_74"/><clipPath id="clip-path-3" transform="translate(-10.95 -121.4)"><path class="cls-1" d="M307.45,230.08a13,13,0,0,0-3.89-5.48,8.71,8.71,0,0,0-5.39-1.78,8.86,8.86,0,0,0-5.48,1.78,13,13,0,0,0-3.89,5.48l-20.38,48c-1.33,3.17-1.3,5.89.07,8.08a7,7,0,0,0,6.35,3.27,7.12,7.12,0,0,0,5.34-1.87,17.37,17.37,0,0,0,3.22-5.51l2.4-6.23h24.65l2.4,6.24a14.47,14.47,0,0,0,3.39,5.54,8,8,0,0,0,5.58,1.83,6.68,6.68,0,0,0,6.11-3.23c1.32-2.17,1.28-4.9-.1-8.12Zm-2.71,31.25H291.43L298.09,244Z"/></clipPath><linearGradient id="Degradado_sin_nombre_76" x1="-1058.18" y1="-1407.86" x2="-1057.8" y2="-1407.86" xlink:href="#Degradado_sin_nombre_74"/><clipPath id="clip-path-4" transform="translate(-10.95 -121.4)"><path class="cls-1" d="M342.12,222.82a8,8,0,0,0-6.17,2.42c-1.47,1.61-2.21,3.94-2.21,6.93v47.91c0,3,.74,5.32,2.21,6.93a9.11,9.11,0,0,0,12.38,0c1.44-1.61,2.17-3.93,2.17-6.92V232.17c0-3-.75-5.32-2.21-6.93A8,8,0,0,0,342.12,222.82Z"/></clipPath><linearGradient id="Degradado_sin_nombre_77" x1="-1058.18" y1="-1407.75" x2="-1057.8" y2="-1407.75" xlink:href="#Degradado_sin_nombre_74"/><clipPath id="clip-path-5" transform="translate(-10.95 -121.4)"><path class="cls-1" d="M393.08,223.62H365.83c-5.7,0-8.71,3.27-8.71,9.44V280c0,3,.76,5.34,2.26,7a8,8,0,0,0,6.21,2.47c5.43,0,8.3-3.26,8.3-9.44V263.55h14.18c4.42,0,6.75-2.52,6.75-7.29s-2.33-7.2-6.75-7.2H373.89V238.21h19.19c4.42,0,6.75-2.56,6.75-7.38S397.5,223.62,393.08,223.62Z"/></clipPath><linearGradient id="Degradado_sin_nombre_78" x1="-1058.18" y1="-1407.67" x2="-1057.8" y2="-1407.67" xlink:href="#Degradado_sin_nombre_74"/><clipPath id="clip-path-6" transform="translate(-10.95 -121.4)"><path class="cls-1" d="M449.15,233.66a7.87,7.87,0,0,0-6.14,2.43,10,10,0,0,0-2.16,6.83V261c0,4.34-.87,7.63-2.58,9.77S434.16,274,430.9,274s-5.76-1-7.46-3.17-2.58-5.43-2.58-9.77V231.69a9.82,9.82,0,0,0-2.21-6.84,9.08,9.08,0,0,0-12.34,0,9.82,9.82,0,0,0-2.21,6.84v29.14c0,9.47,2.33,16.72,6.93,21.54s11.28,7.24,19.87,7.24,15.22-2.44,19.7-7.25,6.77-12.06,6.77-21.53V242.92a10.09,10.09,0,0,0-2.12-6.82A7.71,7.71,0,0,0,449.15,233.66Z"/></clipPath><linearGradient id="Degradado_sin_nombre_79" x1="-1058.18" y1="-1407.56" x2="-1057.8" y2="-1407.56" xlink:href="#Degradado_sin_nombre_74"/><clipPath id="clip-path-7" transform="translate(-10.95 -121.4)"><path class="cls-1" d="M255.4,210.13a15.73,15.73,0,0,0,8.09,2.07,10.77,10.77,0,0,0,6.83-2.22,11.27,11.27,0,0,0,2.88-3.43c.92,3.59,3.23,5.46,6.77,5.46,3.25,0,7.12-1.64,7.12-9.45v-19c0-7.41-1.63-12.95-4.85-16.45s-8.1-5.24-14.59-5.24a30.47,30.47,0,0,0-5.87.63,33.7,33.7,0,0,0-7,2.26,7,7,0,0,0-3.88,3.93,9.14,9.14,0,0,0-.44,5.28,6.6,6.6,0,0,0,2.56,4.12c1.35,1,3,1,4.93.17a26.8,26.8,0,0,1,5-1.79,18.63,18.63,0,0,1,4-.5c2.11,0,3.59.4,4.39,1.2s1.13,2.1,1.13,4v.34h-2.13a52.43,52.43,0,0,0-12.88,1.29,12.82,12.82,0,0,0-7.36,4.54,14.37,14.37,0,0,0-2.36,8.61,17.25,17.25,0,0,0,2,8.4A14.85,14.85,0,0,0,255.4,210.13Zm8.69-17.64c1.3-.72,3.43-1.08,6.33-1.08h2.13v.71a7.55,7.55,0,0,1-1.72,5.21,5.39,5.39,0,0,1-4.26,2,4,4,0,0,1-3.12-1.16,4.06,4.06,0,0,1-1-2.85A3,3,0,0,1,264.09,192.49Z"/></clipPath><linearGradient id="Degradado_sin_nombre_80" x1="-1058.04" y1="-1407.92" x2="-1057.6" y2="-1407.92" xlink:href="#Degradado_sin_nombre_74"/><clipPath id="clip-path-8" transform="translate(-10.95 -121.4)"><path class="cls-1" d="M300.3,212c5.06,0,7.73-3.26,7.73-9.45V187.13c0-2.73.55-4.79,1.62-6.13s2.92-2.2,5.43-2.49l1.78-.19c2.39-.28,4.06-1.2,5-2.76a11.86,11.86,0,0,0,1.3-6c-.05-2.9-.52-4.88-1.41-6a4.48,4.48,0,0,0-4-1.68,12,12,0,0,0-7.36,2.61,13.41,13.41,0,0,0-3.27,3.91,8.85,8.85,0,0,0-1.68-3.87,6.66,6.66,0,0,0-5.47-2.46c-4.91,0-7.5,3.24-7.5,9.36v31.14C292.49,208.75,295.19,212,300.3,212Z"/></clipPath><linearGradient id="Degradado_sin_nombre_81" x1="-1058.04" y1="-1407.77" x2="-1057.6" y2="-1407.77" xlink:href="#Degradado_sin_nombre_74"/><clipPath id="clip-path-9" transform="translate(-10.95 -121.4)"><path class="cls-1" d="M349.36,196.51h0a13.45,13.45,0,0,0-1.34.25,2.82,2.82,0,0,1-3.24-1.14,8.06,8.06,0,0,1-.93-4.44V151.47c0-3-.69-5.38-2-7a7,7,0,0,0-5.68-2.44c-5,0-7.58,3.26-7.58,9.45v40.27c0,6.74,1.23,11.88,3.66,15.28s6.34,5.18,11.55,5.18a20.05,20.05,0,0,0,2.23-.14,11.67,11.67,0,0,0,1.83-.34,5.8,5.8,0,0,0,3.8-2.47,10.15,10.15,0,0,0,1.26-5.56c0-2.75-.24-4.5-.74-5.5A2.9,2.9,0,0,0,349.36,196.51Z"/></clipPath><linearGradient id="Degradado_sin_nombre_82" x1="-1058.04" y1="-1407.69" x2="-1057.6" y2="-1407.69" xlink:href="#Degradado_sin_nombre_74"/><clipPath id="clip-path-10" transform="translate(-10.95 -121.4)"><path class="cls-1" d="M358.25,148.27a9.38,9.38,0,0,1,2.24-6.67,8,8,0,0,1,6.11-2.31c7,0,8.43,4.88,8.43,9,0,2.92-.75,5.2-2.24,6.76a9.34,9.34,0,0,1-12.3,0A9.52,9.52,0,0,1,358.25,148.27ZM366.6,212a6.78,6.78,0,0,0,5.75-2.66c1.32-1.75,2-4.25,2-7.44V172.17c0-3.19-.68-5.7-2-7.45a6.84,6.84,0,0,0-5.71-2.66,6.61,6.61,0,0,0-5.64,2.68c-1.29,1.75-1.94,4.25-1.94,7.43v29.74c0,3.18.65,5.68,1.94,7.43A6.63,6.63,0,0,0,366.6,212Z"/></clipPath><linearGradient id="Degradado_sin_nombre_83" x1="-1058.02" y1="-1407.62" x2="-1057.61" y2="-1407.62" xlink:href="#Degradado_sin_nombre_74"/><clipPath id="clip-path-11" transform="translate(-10.95 -121.4)"><path class="cls-1" d="M405.62,183.46v19.1c0,3,.67,5.38,2,7a7.75,7.75,0,0,0,11.31,0c1.33-1.62,2-4,2-7V182.8c0-7-1.16-12.25-3.45-15.67s-5.93-5.26-10.68-5.26a14.35,14.35,0,0,0-7.48,2,14.54,14.54,0,0,0-4.3,4c-.9-3.84-3.31-5.86-7.09-5.86-4.91,0-7.5,3.24-7.5,9.36v31.14c0,3,.66,5.37,2,7A6.82,6.82,0,0,0,388,212c5.06,0,7.73-3.26,7.73-9.45V184.5a9.23,9.23,0,0,1,1.63-5.78,5.19,5.19,0,0,1,4.35-2.09,3.2,3.2,0,0,1,2.88,1.43C405.28,179.07,405.62,180.88,405.62,183.46Z"/></clipPath><linearGradient id="Degradado_sin_nombre_84" x1="-1058.02" y1="-1407.58" x2="-1057.63" y2="-1407.58" xlink:href="#Degradado_sin_nombre_74"/><clipPath id="clip-path-12" transform="translate(-10.95 -121.4)"><path class="cls-1" d="M462.41,162.06c-3.72,0-6.16,1.9-7.16,5.52a12.57,12.57,0,0,0-3.92-3.68,14.08,14.08,0,0,0-7.33-2,15,15,0,0,0-9.28,3,19.72,19.72,0,0,0-6.19,8.44,37.07,37.07,0,0,0,0,25.16,19.85,19.85,0,0,0,6.19,8.44,15,15,0,0,0,9.28,3,13.8,13.8,0,0,0,7.29-2.08,13.14,13.14,0,0,0,3.69-3.3V206c0,3.11-.67,5.31-2.06,6.73s-3.61,2.17-6.53,2.17a26.1,26.1,0,0,1-4.62-.5,23.83,23.83,0,0,1-6-2.17,4.07,4.07,0,0,0-4.45.43,7.66,7.66,0,0,0-2.52,4.2,9.31,9.31,0,0,0,.22,5.43,7,7,0,0,0,4,4.1c3.83,1.86,8.75,2.8,14.63,2.8,7.05,0,12.57-2.11,16.4-6.27s5.82-10.55,5.82-18.89V171.42C469.92,165.3,467.32,162.06,462.41,162.06Zm-7.58,23.85c0,3.13-.61,5.57-1.81,7.26a5.52,5.52,0,0,1-4.78,2.49,5.46,5.46,0,0,1-4.71-2.49c-1.2-1.69-1.81-4.13-1.81-7.26s.61-5.58,1.81-7.26a5.77,5.77,0,0,1,9.49,0C454.22,180.34,454.83,182.78,454.83,185.91Z"/></clipPath><linearGradient id="Degradado_sin_nombre_85" x1="-1058.05" y1="-1407.47" x2="-1057.57" y2="-1407.47" xlink:href="#Degradado_sin_nombre_74"/></defs><title>isologo 2 </title><g id="Capa_3" data-name="Capa 3"><path class="cls-2" d="M176.51,170.59C167.39,152.93,150.34,142,132,142a49.32,49.32,0,0,0-6.39.42,23.11,23.11,0,0,0,.19-11.87,11.82,11.82,0,0,0-11.56-9.12,12.06,12.06,0,0,0-2.81.33c-6.12,1.49-11,4.62-14.17,9.07a26,26,0,0,0-6,16.89A52.43,52.43,0,0,0,67.47,142c-10.95,0-20.61,2.56-28.7,7.61a51.38,51.38,0,0,0-16.64,17.25,78.17,78.17,0,0,0-10.07,29.63l-.05.33A114.27,114.27,0,0,0,11,211.71c0,1,0,2.08.07,3.11a75.48,75.48,0,0,0,15.2,42.62c.21.29.42.58.62.81,1.13,1.46,2.37,2.93,3.68,4.39a75.57,75.57,0,0,0,11.09,10.12c.91.79,1.85,1.58,2.79,2.35s1.82,1.46,2.49,2l.28.22a127.84,127.84,0,0,0,45.31,23.1,2.41,2.41,0,0,0,.35.07,98.59,98.59,0,0,0,18.84,3.26c.37,0,.74,0,1.11,0a16.45,16.45,0,0,0,16.47-15.08c.07-.71.1-1.43.1-2.18a19.51,19.51,0,0,0,9.9-2.49,88.34,88.34,0,0,0,36.42-38.84,97.83,97.83,0,0,0,8.59-29.9C186.13,199.22,183.52,184.17,176.51,170.59Z" transform="translate(-10.95 -121.4)"/><path class="cls-3" d="M167.43,174.81c-4.24-1.29-9.53-2.79-14.19-2.79-15.72,0-29.26,6.82-37,20.83.09-1,.13-2.11.13-3.19a40.71,40.71,0,0,0-10.62-27.48,38.9,38.9,0,0,1,61.68,12.63Z" transform="translate(-10.95 -121.4)"/><path class="cls-4" d="M79.39,175.68c8.56,1.21,23.52,7,30.53,20.35,0-.52,0-1,0-1.56a42.49,42.49,0,0,0-83.87-9.65C36.32,179.67,55.84,172.34,79.39,175.68Z" transform="translate(-10.95 -121.4)"/><path class="cls-5" d="M113.79,131.47c-3.82.93-12.28,4.25-10,15.35a1.88,1.88,0,0,0,2.43,1.41c3.9-1.33,12.14-5.38,9.78-15.41A1.87,1.87,0,0,0,113.79,131.47Z" transform="translate(-10.95 -121.4)"/><path class="cls-6" d="M154.46,172.07C146,164.77,131.3,160.2,106,162l-.13.11c2.35.6,16.48,4.61,22.59,17.16,7-4.81,15.5-7.2,24.76-7.2C153.64,172,154.05,172.05,154.46,172.07Z" transform="translate(-10.95 -121.4)"/><path class="cls-7" d="M154.46,172.07C146,164.77,131.3,160.2,106,162l-.13.11c2.35.6,16.48,4.61,22.59,17.16,7-4.81,15.5-7.2,24.76-7.2C153.64,172,154.05,172.05,154.46,172.07Z" transform="translate(-10.95 -121.4)"/><path class="cls-8" d="M56.33,153.46a42.55,42.55,0,0,0-30.24,31.36c10.23-5.15,29.75-12.48,53.3-9.14a37.64,37.64,0,0,1,4.54.94A45.42,45.42,0,0,0,56.33,153.46Z" transform="translate(-10.95 -121.4)"/><path class="cls-9" d="M34.5,251.79l.08.09A66.84,66.84,0,0,0,47.9,265c27.5,23.81,53.88,28.09,64.44,28.8a6.52,6.52,0,0,0,6.93-5.93c1.5-16.83-22.14-46.06-22.14-46.06H77.89a30.46,30.46,0,0,0,30.46-30.46c0-16.83-13.63-29.67-30.46-31.27-13.46-1.28-25.65-1.6-53.18,9.71-2.42,1-3.74,14.26-3.74,22A65.88,65.88,0,0,0,34.52,251.8Z" transform="translate(-10.95 -121.4)"/><ellipse class="cls-10" cx="45.42" cy="210.9" rx="9.62" ry="16.03" transform="translate(-60.75 -104.08) rotate(-14.04)"/><ellipse class="cls-10" cx="56.61" cy="234.92" rx="3.76" ry="6.27" transform="translate(-148.47 -30.38) rotate(-39.9)"/><path class="cls-11" d="M42.23,183.43c-5.1,1.53-10.86,3.58-17.52,6.32-2.42,1-3.74,14.26-3.74,22A65.88,65.88,0,0,0,34.52,251.8h0l.08.09A66.84,66.84,0,0,0,47.9,265c17.43,15.1,34.41,22.34,47.2,25.8h0C27,257.6,42.22,183.51,42.23,183.43Z" transform="translate(-10.95 -121.4)"/><path class="cls-12" d="M160.8,177.17A34.24,34.24,0,0,0,152,176a33.83,33.83,0,0,0-16.09,4,34.2,34.2,0,0,0-14.84,15.72h0a31.59,31.59,0,0,0,7.68,37.55c-3.81-2.28-12.82-6.41-15.85-16.64a19.93,19.93,0,0,1,.22,3,20.36,20.36,0,0,1-7.92,16.15,56.29,56.29,0,0,0,18.07,38.18,9.48,9.48,0,0,0,11.06,1.25,77.48,77.48,0,0,0,37.16-87.41A15.12,15.12,0,0,0,160.8,177.17Z" transform="translate(-10.95 -121.4)"/><ellipse class="cls-10" cx="157.62" cy="225.3" rx="6.27" ry="3.76" transform="translate(-127.26 127.75) rotate(-60)"/><ellipse class="cls-10" cx="150.84" cy="234.14" rx="2.11" ry="3.51" transform="translate(-111.75 232.11) rotate(-82.59)"/><path class="cls-13" d="M127.19,210.56c-2.07,5.1-6.41,19.58,6.41,24.83,0,0,28,12.76,31.27-25.95.81-9.54,1.41-22.65-6.09-32.73-.83-.17-1.68-.32-2.53-.42A34.36,34.36,0,0,0,152,176a33.83,33.83,0,0,0-16.09,4,34.59,34.59,0,0,0-5.7,3.86C132.09,190.69,131.73,199.39,127.19,210.56Z" transform="translate(-10.95 -121.4)"/><path class="cls-14" d="M464.73,150.67a18,18,0,0,0-8.49,2,24.56,24.56,0,0,0-10.23-2.2,25.45,25.45,0,0,0-15.19,4.8,28,28,0,0,0-4.21,3.73c-3.3-4.12-9-8.53-18.43-8.53a24.84,24.84,0,0,0-10.62,2.32,17.63,17.63,0,0,0-8.57-2.14,19,19,0,0,0-2.28.14c0-.28,0-.55,0-.83,0-10.55-6-21.19-19.45-21.19A18.39,18.39,0,0,0,354,134.06a19.24,19.24,0,0,0-3.31,4.5c-.33-.44-.66-.85-1-1.22a17.37,17.37,0,0,0-13.38-5.93c-10.37,0-17.56,7.57-18.49,19.08h-.43a22.64,22.64,0,0,0-9.43,2.25,18.05,18.05,0,0,0-21.67,3.75c-5-4-11.63-6-19.61-6a42.91,42.91,0,0,0-7.69.76A47,47,0,0,0,249.9,154a19.42,19.42,0,0,0-2.37,1.2,39.41,39.41,0,0,0-7.37-11.15c-7.47-7.85-17.61-11.83-30.13-11.83H194.68c-11.49,0-19.22,8.87-19.22,22.09v46.56c0,6.06,1.64,11.19,4.51,15a20.31,20.31,0,0,0-1.2,1.68c-3.45,5.49-4.1,12.25-1.82,19l16.18,50a23.36,23.36,0,0,0,7,11.1A18.48,18.48,0,0,0,212.2,302a18.28,18.28,0,0,0,12.31-4.45,24.2,24.2,0,0,0,6.51-10.1,23,23,0,0,0,6.7,10.27,19.2,19.2,0,0,0,24.27-.08l.06-.06A17.52,17.52,0,0,0,274,302a17.23,17.23,0,0,0,12.91-5.24,28.45,28.45,0,0,0,5.43-8.81H303a25.83,25.83,0,0,0,6.11,9.34A18.08,18.08,0,0,0,321.76,302a17.3,17.3,0,0,0,10.08-3.08,19.6,19.6,0,0,0,22.52-1,18.36,18.36,0,0,0,11.9,4.08c11.56,0,19.32-8.77,19.32-21.83v-4.89h3.55A18,18,0,0,0,396,274a37.17,37.17,0,0,0,9,17.39c6.76,7.19,16.09,10.84,27.72,10.84s21-3.69,27.66-10.95,10.14-17.71,10.14-30.85V241.91a26.89,26.89,0,0,0-1-7.34,29.56,29.56,0,0,0,4.16-3.53c4.36-4.48,9.56-12.89,9.56-27.54V172.22C483.24,159.33,475.8,150.67,464.73,150.67Z" transform="translate(-10.95 -121.4)"/><g class="cls-15"><polygon class="cls-16" points="178.25 169.06 175.9 99.99 268 99.83 270.36 168.9 178.25 169.06"/></g><g class="cls-17"><polygon class="cls-18" points="157.98 98.96 155.63 21.19 247.74 21.01 250.09 98.78 157.98 98.96"/></g><path class="cls-1" d="M196.86,211.17H212c9.56,0,17.11-3,22.42-9s8-14.46,8-25.24-2.7-19.25-8-25.19-12.86-8.92-22.42-8.92h-15.1c-5.36,0-8.19,3.43-8.19,9.92v48.47C188.67,207.74,191.5,211.17,196.86,211.17Zm7.59-16V158.85H211c5.1,0,8.92,1.48,11.38,4.42s3.69,7.54,3.69,13.7-1.23,10.79-3.66,13.75-6.26,4.47-11.41,4.47Z" transform="translate(-10.95 -121.4)"/><g class="cls-19"><polygon class="cls-20" points="241.68 169.06 239.33 99.99 331.44 99.83 333.79 168.9 241.68 169.06"/></g><g class="cls-21"><polygon class="cls-22" points="290.47 169.06 288.12 99.99 380.23 99.83 382.58 168.9 290.47 169.06"/></g><g class="cls-23"><polygon class="cls-24" points="324.63 169.06 322.28 99.99 414.39 99.83 416.74 168.9 324.63 169.06"/></g><g class="cls-25"><polygon class="cls-26" points="374.93 169.06 372.57 99.99 464.68 99.83 467.03 168.9 374.93 169.06"/></g><path class="cls-10" d="M408.28,231.42v17.51c0,7.33-.6,15.09,1.92,22.09a21.94,21.94,0,0,0,13.49,13.46c1.14.41,1.63-1.4.5-1.81a19.87,19.87,0,0,1-12-11.65,36.55,36.55,0,0,1-2-13.16V231.42a.94.94,0,0,0-1.88,0Z" transform="translate(-10.95 -121.4)"/><g class="cls-27"><polygon class="cls-28" points="218.41 102.34 216.06 21.19 308.17 21.01 310.52 102.16 218.41 102.34"/></g><g class="cls-29"><polygon class="cls-30" points="280.34 100.09 277.99 21.19 370.1 21.01 372.45 99.91 280.34 100.09"/></g><g class="cls-31"><polygon class="cls-32" points="317.12 100.09 314.77 20.07 406.88 19.88 409.23 99.91 317.12 100.09"/></g><g class="cls-33"><polygon class="cls-34" points="346.4 91.83 344.05 17.31 436.16 17.14 438.51 91.66 346.4 91.83"/></g><g class="cls-35"><polygon class="cls-36" points="366.29 91.83 363.94 20.05 456.05 19.88 458.4 91.67 366.29 91.83"/></g><g class="cls-37"><polygon class="cls-38" points="413.96 108.72 411.61 20.09 503.72 19.88 506.07 108.52 413.96 108.72"/></g><path class="cls-10" d="M254.6,192.9c.13,3,1,8.22,4.92,10.94.54.38.3,1.39-.31,1.32a6.5,6.5,0,0,1-5.66-4s-1.54-4.7-.05-8.52C253.76,192,254.56,192.18,254.6,192.9Z" transform="translate(-10.95 -121.4)"/><g class="cls-39"><path class="cls-10" d="M254.6,192.9c.13,3,1,8.22,4.92,10.94.54.38.3,1.39-.31,1.32a6.5,6.5,0,0,1-5.66-4s-1.54-4.7-.05-8.52C253.76,192,254.56,192.18,254.6,192.9Z" transform="translate(-10.95 -121.4)"/><path class="cls-10" d="M194.17,152.22v47c0,2.14,1.35,3.87,3,3.87h1.91c1.1,0,1.55-1.71.66-2.5a9.35,9.35,0,0,1-3.44-7.13V152.22a1.26,1.26,0,0,0-1.07-1.38h0A1.26,1.26,0,0,0,194.17,152.22Z" transform="translate(-10.95 -121.4)"/><path class="cls-10" d="M337.86,202.71c.79,2-.15,4-1.54,2.52-.15-.17-.29-.33-.41-.49-2.12-3-3.19-7.54-3.19-13.62v-38a.93.93,0,0,1,.83-1h0a.93.93,0,0,1,.82,1v37.9A22.13,22.13,0,0,0,337.86,202.71Z" transform="translate(-10.95 -121.4)"/><path class="cls-10" d="M363.35,173.06v31.37a.94.94,0,0,0,1.87,0V173.06a.94.94,0,0,0-1.87,0Z" transform="translate(-10.95 -121.4)"/><path class="cls-10" d="M296.65,171.43v28c0,2.05-.49,7,2.37,7.26,1.2.13,1.19-1.75,0-1.87.39,0,.11.14.07-.11a1.75,1.75,0,0,0-.13-.28,5.92,5.92,0,0,1-.27-1,10,10,0,0,1-.16-1.73c0-1,0-2,0-3v-27.3a.94.94,0,0,0-1.88,0Z" transform="translate(-10.95 -121.4)"/><path class="cls-10" d="M416.58,204.43V179.52a13.8,13.8,0,0,0-.34-3.74c-1.05-3.93-3.7-7.51-8.09-7.58a.94.94,0,0,0,0,1.88c3.52,0,5.46,3.11,6.28,6.19.11.41.19.83.27,1.24s0-.23,0,.05c-.05.63,0,1.28,0,1.9v25a.94.94,0,0,0,1.88,0Z" transform="translate(-10.95 -121.4)"/><path class="cls-10" d="M432.46,185.9a28.87,28.87,0,0,1,4.32-15.45,22.46,22.46,0,0,0,0,30.9A28.9,28.9,0,0,1,432.46,185.9Z" transform="translate(-10.95 -121.4)"/><path class="cls-10" d="M432.65,185.9a29.08,29.08,0,0,1,4.29-15.36c.11-.18-.14-.37-.3-.23-8.29,8.1-8.29,23.07,0,31.17a.19.19,0,0,0,.3-.23,29,29,0,0,1-4.29-15.35.19.19,0,0,0-.38,0,29.48,29.48,0,0,0,4.35,15.54l.29-.23c-8.15-8-8.15-22.67,0-30.63l-.29-.23a29.49,29.49,0,0,0-4.35,15.55A.19.19,0,0,0,432.65,185.9Z" transform="translate(-10.95 -121.4)"/></g><path class="cls-10" d="M194.33,231.67q2.73,8.34,5.45,16.69,4.31,13.2,8.62,26.39l2,6.09c.38,1.14,2.19.65,1.81-.5q-2.72-8.35-5.45-16.7l-8.61-26.39c-.66-2-1.33-4.06-2-6.08-.37-1.15-2.18-.66-1.81.5Z" transform="translate(-10.95 -121.4)"/><path class="cls-10" d="M274.43,279.89q3.38-7.9,6.76-15.79L292,238.83l2.47-5.77c.47-1.1-1.15-2.05-1.62-.95q-3.37,7.9-6.76,15.8-5.42,12.63-10.82,25.26c-.83,1.92-1.65,3.85-2.47,5.77-.48,1.1,1.14,2.06,1.62.95Z" transform="translate(-10.95 -121.4)"/><path class="cls-10" d="M338.74,230.25v51.12a.94.94,0,0,0,1.87,0V230.25a.94.94,0,0,0-1.87,0Z" transform="translate(-10.95 -121.4)"/><path class="cls-10" d="M362.28,230.25v51.12a.94.94,0,0,0,1.87,0V230.25a.94.94,0,0,0-1.87,0Z" transform="translate(-10.95 -121.4)"/></g></svg>