<svg xmlns="http://www.w3.org/2000/svg" xmlns:xlink="http://www.w3.org/1999/xlink" viewBox="0 0 1288.52 537.48"><defs><style>.cls-1{isolation:isolate;}.cls-10,.cls-15,.cls-2,.cls-3{fill:#494b5a;}.cls-10,.cls-13,.cls-15,.cls-3{stroke:#494b5a;}.cls-10,.cls-15,.cls-19,.cls-3{stroke-miterlimit:10;}.cls-3{stroke-width:31px;}.cls-4{fill:#fdd4c2;}.cls-5{fill:url(#Rojo_2);}.cls-6{fill:url(#Degradado_sin_nombre_6);}.cls-7{fill:#8ddaed;}.cls-8{fill:#aaeffd;}.cls-9{fill:#f6f6f5;}.cls-10{stroke-width:32px;}.cls-11{fill:#f6f6f6;}.cls-12{fill:#e3007e;opacity:0.04;}.cls-13,.cls-16,.cls-19{font-size:242.89px;font-family:Nunito-Black, Nunito;font-weight:800;}.cls-13,.cls-15{stroke-width:37px;}.cls-14{letter-spacing:-0.07em;}.cls-17{fill:url(#Degradado_sin_nombre_55);}.cls-18{mix-blend-mode:overlay;opacity:0.75;}.cls-19{fill:none;stroke:#1c1c1b;stroke-width:3px;}.cls-20{fill:url(#Degradado_sin_nombre_55-6);}.cls-21{fill:#fff;}</style><linearGradient id="Rojo_2" x1="100.04" y1="141.4" x2="290.09" y2="141.4" gradientTransform="translate(178.89 140.7) rotate(4.21)" gradientUnits="userSpaceOnUse"><stop offset="0.01" stop-color="#fae9f2"/><stop offset="0.45" stop-color="#f7cfe2"/><stop offset="1" stop-color="#f4b8d4"/></linearGradient><linearGradient id="Degradado_sin_nombre_6" x1="-129.23" y1="230.97" x2="141.57" y2="230.97" gradientTransform="translate(153.15 95.95) rotate(-2.38)" xlink:href="#Rojo_2"/><linearGradient id="Degradado_sin_nombre_55" x1="887.41" y1="523.88" x2="883.69" y2="38.52" gradientTransform="translate(61.59 -91.17) scale(0.9 1.02)" gradientUnits="userSpaceOnUse"><stop offset="0" stop-color="#f2afc5"/><stop offset="0.08" stop-color="#f7d6e1"/><stop offset="0.25" stop-color="#8ddaed"/><stop offset="0.92" stop-color="#f6d1dd"/><stop offset="0.98" stop-color="#f5c9d4"/></linearGradient><linearGradient id="Degradado_sin_nombre_55-6" x1="916.15" y1="367.78" x2="911.51" y2="-238.39" gradientTransform="translate(58.22 -91.17) scale(0.9 1.02)" xlink:href="#Degradado_sin_nombre_55"/></defs><g class="cls-1"><g id="Capa_2" data-name="Capa 2"><g id="Capa_1-2" data-name="Capa 1"><path class="cls-2" d="M613,141.44h480.35a123.92,123.92,0,0,1,123.92,123.92v96.8a49.93,49.93,0,0,1-49.93,49.93H613A123.92,123.92,0,0,1,489.12,288.17V265.36A123.92,123.92,0,0,1,613,141.44Z"/><path class="cls-3" d="M469.19,255.6c-20,106.42-119.58,196.6-146,196.46-1.6,1.29-3.19,2.48-4.79,3.56,7.05,29.68-4,42-9.49,44.71-5.35,5.75-125.3-4.87-225.35-95.33q-6.3-5.69-12.46-11.8a1.31,1.31,0,0,1-.12-.11h0a198.21,198.21,0,0,1-55.35-130c0-.84-.06-1.68-.08-2.52C12.86,152.46,123.52-3,261,108.25l2.13,1.71c.69-.64,1.38-1.25,2.09-1.87C288.46,87.93,316.46,75.66,347,74.4,432.85,70.83,484.78,172.65,469.19,255.6Z"/><path class="cls-4" d="M163.94,410.6c-4.32-3.74-8.49-7.68-12.46-11.81Q157.65,404.91,163.94,410.6Z"/><path class="cls-4" d="M345.61,113.69c-.7.62-1.4,1.23-2.09,1.86l-2.13-1.7Z"/><path class="cls-2" d="M469.23,256.62c-20,106.42-119.57,196.6-146,196.46-1.61,1.29-3.2,2.48-4.79,3.56,7,29.68-4,42-9.5,44.71-5.35,5.75-125.3-4.87-225.34-95.33q-6.3-5.68-12.47-11.8l-.12-.11h0a198.26,198.26,0,0,1-55.35-130c0-.84-.06-1.68-.08-2.52C12.9,153.47,123.57-2,261.05,109.27c.71.58,1.43,1.15,2.13,1.71.69-.64,1.39-1.25,2.09-1.87C288.5,89,316.51,76.68,347,75.42,432.89,71.85,484.82,173.67,469.23,256.62Z"/><path class="cls-4" d="M95.93,266.16c0,.84,0,1.68.08,2.52"/><path class="cls-2" d="M33.63,211.9c-11.35,11.64-15.07,27-20.2,41.63-1.61,4.63-2,9.76-6.61,13.53,1.39-11.74,2.39-23.55,4.26-35.22,6.54-40.73,19.42-79,45.06-112.07C83.75,84.17,120.6,64.83,164.76,58.6c13.79-1.94,27.3,0,40.37,4.51,22.46,7.67,42.62,19.35,59.36,36.32,3.28,3.31,4.41,1.46,6.67-.43,20-16.66,42.41-28.68,68.27-33.15,45.05-7.78,81.05,8.48,109.07,43.23,26.81,33.27,36.7,72.47,38,114.51,1,31.88-7.83,61.22-21.85,89.26-25.17,50.35-58.41,94.5-101.78,130.71a95,95,0,0,1-19.55,12.76c-5.1,2.46-10.32,3.95-16.4,2.18.34,9.59,2.4,18.68,1.45,28C326.56,504.36,316.94,512.82,299,511c-45-4.6-86.81-19.78-127.2-39.17C124.21,449,81.74,419.17,48.39,377.57c-3.2-4-6.31-8.08-9.21-12.29A133.74,133.74,0,0,1,28.31,346.9c20,14.21,38.31,30.66,58.39,44.72,5.43.71,9.24,4.48,13,7.74,45.37,39.7,98.72,64,155.78,81.16,6.31,1.91,12.76,3.23,19.15,4.84a130.41,130.41,0,0,0,15,3.39c12.69,2.26,20.25-3.61,21-16.63A75,75,0,0,0,309,451.77c-3.77-17.37-11.63-33.08-20.17-48.39-8.89-15.95-18-31.79-28.42-46.84-1.52-2.21-3.13-4.36-4.62-6.57-4.35-6.47-10-9.07-18-8.26-10.89,1.1-21.89,1.14-32.85,1.48-3.06.1-6.35.81-9.26-2.13,1.31-3.09,4.39-3.23,6.95-4.17,17.88-2.81,35.54-6.19,50.31-17.85,16.81-13.28,24.81-31.07,25.68-52a150.33,150.33,0,0,0-1.84-30.57c-5.29-32.27-23.1-54-53.89-65-18.91-7.09-38.46-9.85-58.64-9.85-38.87,0-75.56,9.58-111.19,24.19-8.36,1.92-12.31,7.52-13.87,15.67C38.49,205.35,38,209.81,33.63,211.9Z"/><path class="cls-5" d="M449,165.44c-1.43-3.11-2.17-7-6.51-8.07-11.73-2.84-23.46-5.6-35.68-4.53-28.47-.38-52.9,9.87-74.26,28.19-19.57,14-23.91,35.45-26.53,57.12a53.32,53.32,0,0,0,13.26,42.91,55.82,55.82,0,0,0,23.94,19.48c-1,2.37-2.8,1.06-4.28.85-7.25-1-13.62-4.44-20.16-7.39a112.26,112.26,0,0,1-28.32-28.66c-2.43,23.15-8.37,37.45-22.24,53.48a9.06,9.06,0,0,0-2.07,9.25c8.49,29.76,20.16,58.15,36.83,84.35,3.62,6.86,7.82,13.3,13.69,18.51,10.12,11.56,17.16,13,30.06,5.33,9.7-5.76,30.39-24.83,32.35-26.86a316.89,316.89,0,0,0,37.51-46.81c23.5-35.86,42.55-73.56,45.49-117.32C463.93,217.74,460.71,190.81,449,165.44Zm-26,94c-.92,2.44-1.78,4.89-2.63,7.36-2,.44-2.74,2.62-4.15,3.83-1.83,1.57-3.53,3.54-6.25,2.57s-3.09-3.5-3.54-5.85c-1.37-7.18,1.14-13.2,5.82-18.47,1.62-1.84,3.54-3.4,6.24-2.6s3.23,3.23,3.61,5.67-.08,5,1,7.15C423.05,259.22,423,259.34,423,259.45Z"/><path class="cls-6" d="M308.08,449.86c2.2,8.16,2.89,16.66.6,25-3,10.86-10.42,15.51-21.24,13.14-5.4-1.18-10.71-2.81-16.06-4.25l-.39-.1a1.27,1.27,0,0,0-.18-.06c-39.17-9.12-76.33-23.52-111.88-42.28-26.64-14.08-74.17-55.95-75.52-57.4-24.95-26.71-42.67-57.41-49.27-93.56-4.46-24.46-5.22-49.24-.61-73.95.28-1.46,3.65-14.12,4.76-18.93,1.46-6.29,4.56-10.36,10.14-12.16,2.78-.9,5.54-1.89,8.24-3,50.05-20.23,101.24-30.32,155.21-15.84,3.46.92,7,1.73,10,3.8,24,7.77,40.54,23.76,49.4,47.15a113.53,113.53,0,0,1,6.32,52.73c-3.52,32.6-22.28,53.85-54.47,62.64-7.16,2-26.08,5.32-28.26,5.95.84,2.29,2.81,1,4.09,1,14,.09,28,0,41.88-1.77,4-.53,7,.3,9.38,3.61C274.34,375.13,297.17,409.35,308.08,449.86Z"/><path class="cls-7" d="M127.24,96C168.15,77,233.57,82,262.92,138c12.42,23.72,21.26,54.39,21.63,76.49-1.26.55-1.64-.44-2-1.22-13.8-26.57-35.88-42.85-64-51.63-2-.63-4-1.61-5.94-2.43-5-1.94-7.72-6.43-11-10.11-19.27-21.46-42.76-36.84-68.82-48.69C130.6,99.49,127.11,99.81,127.24,96Z"/><path class="cls-8" d="M127.24,96c15.33,7.37,30.69,14.52,44.58,24.65a207.7,207.7,0,0,1,40.72,38.61c-14.46-2.48-28.85-5.16-43.62-5.56-42.7-1.15-83.4,6.84-121.85,25.69-.8.39-1.63.72-4.13,1.83,12.53-23.43,26.41-43.6,44.94-60.44C99.56,110.14,112,100.88,127.24,96Z"/><path class="cls-7" d="M271.43,109.15c14.77-11.38,31.82-17.71,49.73-21.66,24.15-5.33,48.3-6.24,71.65,3.8,23.06,9.92,39,26.79,47.8,50.36.8,2.14,2.32,4.93.52,6.81-1.54,1.61-4-.14-6-.65-12.72-3.21-25.66-3.91-38.7-3.28-8-4-14.09-10.75-21.81-15.24-20-11.64-41.82-16.56-64.61-18.42a217.06,217.06,0,0,0-29.52-.26C277.38,110.77,274.18,111.27,271.43,109.15Z"/><path class="cls-8" d="M271.43,109.15c28.94-2.29,57.5-.92,85,9.38,15.2,5.68,29.1,13.54,39.95,26-25,3.53-47,14.08-67.14,28.94-2.34.55-2.89-1.39-3.51-2.79-11.32-25.19-30.95-42.93-52.59-58.89C272.47,111,270.54,111,271.43,109.15Z"/><path class="cls-7" d="M273.16,111.79c15.09,7.19,26.24,19,37.21,31.18,8.18,9.07,12.86,20.17,18.89,30.5-8.46,7.74-17.16,15.24-25.77,25.45A164.31,164.31,0,0,0,273.16,111.79Z"/><path class="cls-9" d="M421.72,266.76a7.44,7.44,0,0,0-1.05,1c-2.89,4.07-5.54,9.89-11.48,7.69s-5.28-8.64-5-13.8c.4-6.5,3.77-11.89,8.63-16.08,4.62-4,10.2-1.7,11,4.43.45,3.56.32,7.2.45,10.81Z"/><path class="cls-10" d="M258.36,83.47a82.38,82.38,0,0,1-2-19.81c.57-16.32,7.44-30,22.56-39a69.84,69.84,0,0,1,16.79-7A43.89,43.89,0,0,1,306.12,16,6,6,0,0,1,312,20.11l.19.57a47.71,47.71,0,0,1,2.18,18.45,52.78,52.78,0,0,1-5.41,19.33,58.15,58.15,0,0,1-16.34,19.92,60.92,60.92,0,0,1-23.25,11.19c-1.19.29-2.41.55-3.64.78a6,6,0,0,1-6.74-4.47c-.21-.86-.41-1.72-.6-2.57"/><path class="cls-10" d="M267.32,72.87a52.55,52.55,0,0,1-.94-12.75c.66-10.54,5.32-19.52,15.2-25.59a47.62,47.62,0,0,1,10.92-4.82,28.75,28.75,0,0,1,6.73-1.23A3.62,3.62,0,0,1,302.9,31c0,.12.08.24.11.36a30.39,30.39,0,0,1,1.08,11.87,35.73,35.73,0,0,1-3.82,12.57A40.7,40.7,0,0,1,289.41,69a41.88,41.88,0,0,1-15.15,7.63c-.77.21-1.56.4-2.36.57a3.62,3.62,0,0,1-4.25-2.76c-.12-.56-.23-1.11-.34-1.66"/><path class="cls-8" d="M266.15,71.17a53.09,53.09,0,0,1-.94-12.75c.66-10.55,5.32-19.53,15.2-25.6A48.05,48.05,0,0,1,291.33,28a29.25,29.25,0,0,1,6.73-1.22,3.63,3.63,0,0,1,3.68,2.54c0,.12.07.25.11.37a30.57,30.57,0,0,1,1.07,11.87,35.73,35.73,0,0,1-3.82,12.57,40.77,40.77,0,0,1-10.86,13.14,41.74,41.74,0,0,1-15.15,7.64c-.77.21-1.56.4-2.36.57a3.62,3.62,0,0,1-4.25-2.77c-.12-.55-.23-1.1-.34-1.65"/><path class="cls-11" d="M401.52,288.79c-4.8,4-14.26,3-18.21-1.61-2.38-2.79-1.69-4.78,1.08-6.53,4.12-2.6,14-1.45,17.3,2C403.79,284.84,404.21,287,401.52,288.79Z"/><path class="cls-11" d="M120.54,247c.32,11.92.46,22-2.67,31.84-2.12,6.65-5.44,8.22-12.05,5.86-7.42-2.65-12.56-8.17-16.84-14.3-13.7-19.63-19.78-41.08-13.76-64.88A17.71,17.71,0,0,1,91.92,192c8.76-.42,14.25,3.23,18.15,11.44C116.91,217.8,119.56,233.1,120.54,247Z"/><path class="cls-11" d="M140.75,322.06c-9.56.57-20.3-9.31-20.94-18.59-.4-5.6,2.27-7.43,7.28-7.06,7.44.55,18.57,11,19.48,18.24C147.16,319.27,145.73,322.28,140.75,322.06Z"/><path class="cls-12" d="M314.19,478.13c-2.94,11.05-10.34,15.78-21.1,13.36-5.2-1.18-10.3-2.76-15.43-4.2a1,1,0,0,1-.72-1.23c.35-1.49-1.59-1.39-2.35-1.7-28.89-12.06-55.32-28.47-80.88-46.67-24.76-17.63-46.13-38.86-65.21-62.51a264.82,264.82,0,0,1-27.82-42.42c-12-22.68-22.1-46.13-28.25-71.18-4.06-16.56-8.13-33.1-9.36-50.3-.57-8-1.94-16-2.16-24.1,0-1.68-.31-3.13-1.37-4a1,1,0,0,1,.29-1.74c50.85-21.49,102.85-32.53,157.78-17.4a42.06,42.06,0,0,1,8,2.72c-.26-.61-.52-1.21-.81-1.8,23.93,7.94,40.34,24.23,49.18,48.06a118.09,118.09,0,0,1,6.33,53.69c-3.46,33.17-22.11,54.79-54.12,63.73-3.88,1.08-7.77,2.25-11.73,3.07a1.08,1.08,0,0,0-.27.1c-2.34,1.27-4.73,2.39-6.95,3.86a1.51,1.51,0,0,1-.26.12l-3.65,1.09a1,1,0,0,0,.52,2,10.68,10.68,0,0,1,1.05-.23c41.54-4.77,27.72-2.95,41.54-4.77,4-.53,7.09,3.33,9.46,6.7,24,34.14,46.74,69,57.64,110.25C315.78,461,316.47,469.6,314.19,478.13Z"/><path class="cls-12" d="M464.83,242.82c-3.05,45.35-22.79,84.44-47.16,121.61A328.83,328.83,0,0,1,378.78,413c-2,2.09-3.62,4.79-6.67,5.74-3.89-1.73-2.23-4.48-1.09-6.89,10.85-22.79,20.94-45.94,32.6-68.34,3-5.73,5.22-11.78,8.76-19.26-7.92,3.62-14.38,6.55-20.9,9.3-25.27,10.66-51.36,16.56-78.91,13.27-5.37-.64-7.19,1.18-5.54,6,7.49,21.83,6.88,44.83,9.74,67.32.65,5.09,3,11-2.69,15.18-6.08-5.4-10.43-12.09-14.19-19.2-2-6.83-4-13.67-5.72-20.56C282,373.65,272.91,350.4,266,326.22a8.87,8.87,0,0,1,2-9c13.55-15.66,19.35-29.63,21.72-52.25a109.37,109.37,0,0,0,27.68,28c-.34.14-.67.3-1,.46,6.72,3,13.28,6.54,20.74,7.59,1.54.23,3.39,1.59,4.44-.87,3.16-2.52,6.23-.41,9.25.3,11.86,2.8,23.69,3.62,35.52-.13,17.72-5.63,29.25-17.5,35.15-35,.91-2.6,1.82-5.19,2.78-7.76,9-34.6.79-66.78-13.63-98.13-1.76-3.85-5.81-7.33-3.15-12.38,12.67-1.11,24.82,1.74,37,4.68,4.49,1.09,5.26,5.15,6.75,8.36C463.42,186.36,466.75,214.26,464.83,242.82Z"/><path class="cls-12" d="M332.75,180.66a113.81,113.81,0,0,1,3.65,59.53c-2.73,13.81-9.24,26.26-16.62,38.19a52.06,52.06,0,0,1-12.95-41.91C309.39,215.29,313.62,194.38,332.75,180.66Z"/><path class="cls-15" d="M659.36,454.73c-6.26,0-11.48-1.76-15.5-5.22-3.87-3.31-6.88-8.39-9-15.09L611,358.74l-24.33,76c-2.25,6.54-5.23,11.48-8.87,14.75-3.9,3.5-9.14,5.28-15.58,5.28-6.26,0-11.47-1.76-15.5-5.22-3.86-3.31-6.88-8.39-9-15.09L495.81,302.56c-2.81-8.38-2.31-15.76,1.48-21.9,3.92-6.33,10.63-9.55,20-9.55,6.49,0,11.65,1.81,15.35,5.37,3.49,3.37,6.12,8.28,8.06,15l23.39,79.7,25.28-79.81c2.25-6.73,5-11.59,8.45-14.9,3.7-3.57,8.58-5.38,14.5-5.38s10.57,1.82,14.2,5.41c3.38,3.34,6,8.3,8.11,15.17l24.16,81.25,24.73-81.5c1.92-6.68,4.56-11.59,8-14.95,3.7-3.57,8.79-5.38,15.14-5.38,8,0,14.14,3.33,17.85,9.62,3.59,6.09,4.08,13.43,1.45,21.82L683.59,434.7c-2.08,6.51-5,11.48-8.8,14.78C670.83,453,665.64,454.73,659.36,454.73Z"/><path class="cls-15" d="M862.1,454.73c-6.76,0-12.14-1.84-16-5.47-3.56-3.37-6.6-8.46-9.27-15.59l-5.92-15.86H768.78l-5.91,15.85c-2.83,7.09-5.69,12.11-8.78,15.42-3.5,3.75-8.68,5.65-15.4,5.65-8.08,0-14.39-3.36-18.25-9.7s-3.93-14-.29-23l53.54-130.21c2.83-6.93,6.43-12.14,10.7-15.48A24.69,24.69,0,0,1,800,271.11a24.38,24.38,0,0,1,15.36,5.22c4.27,3.34,7.87,8.55,10.7,15.49L879.56,422c3.78,9.11,3.84,16.89.17,23.11S869.92,454.73,862.1,454.73Zm-47.24-79.17-15.11-40.71-15.1,40.71Z"/><path class="cls-15" d="M915.42,454.73c-7.48,0-13.4-2.42-17.62-7.18s-6.16-11.24-6.16-19.66V298c0-8.42,2.07-15,6.16-19.66s10.14-7.18,17.62-7.18,13.39,2.42,17.61,7.18,6.17,11.24,6.17,19.66V427.89c0,8.41-2,15-6,19.63C929,452.3,923.05,454.73,915.42,454.73Z"/><path class="cls-15" d="M982.71,454.73c-7.47,0-13.44-2.46-17.72-7.3s-6.28-11.35-6.28-19.78V300.37c0-17.45,8.75-27.07,24.64-27.07H1055c12.56,0,19.48,7.46,19.48,21,0,13.86-6.92,21.49-19.48,21.49h-48.68v26.49h44c12.56,0,19.48,7.46,19.48,21,0,13.7-6.92,21.25-19.48,21.25h-44v43.12C1006.27,451.21,991.51,454.73,982.71,454.73Z"/><path class="cls-15" d="M1154.27,455.21c-23.13,0-41.15-6.8-53.56-20.23s-18.59-33.28-18.59-59.31v-78c0-8.26,2.07-14.79,6.16-19.41s10.15-7.18,17.62-7.18,13.4,2.42,17.61,7.18,6.17,11.15,6.17,19.41v78.46c0,11.5,2.18,20.16,6.48,25.73,4.1,5.33,10,7.92,18.11,7.92s13.79-2.59,17.91-7.92c4.29-5.57,6.47-14.23,6.47-25.73V297.7c0-8.24,2-14.76,6-19.38,4.15-4.78,10-7.21,17.54-7.21s13.37,2.44,17.45,7.25c3.91,4.61,5.9,11.12,5.9,19.34v78c0,26-6.1,45.95-18.13,59.28S1177.42,455.21,1154.27,455.21Z"/><path class="cls-15" d="M521.25,267.62c-15.86,0-24.6-9.62-24.6-27.08V115.45c0-17.46,8.74-27.07,24.6-27.07h42.07c27.18,0,48.65,7.92,63.82,23.56s22.8,37.79,22.8,65.93-7.67,50.38-22.79,66.06-36.65,23.69-63.83,23.69Zm39.49-44.19c13.76,0,24-3.68,30.38-10.92s9.83-19,9.83-34.64-3.33-27.18-9.92-34.48-16.66-10.82-30.29-10.82h-16.6v90.86Z"/><path class="cls-15" d="M703.46,270.29A48.41,48.41,0,0,1,680,264.7a41.65,41.65,0,0,1-16.12-15.44A43.06,43.06,0,0,1,658,226.94c0-9.46,2.31-17.2,6.86-23s11.78-9.95,21.5-12.34c9.14-2.25,21.38-3.39,36.37-3.39h4.15c-.08-4.26-1-7.31-2.67-8.85-1.29-1.18-4.23-2.59-10.92-2.59A53.35,53.35,0,0,0,702.46,178a74.53,74.53,0,0,0-13.52,4.5,20.77,20.77,0,0,1-7.84,1.73,13.7,13.7,0,0,1-7.77-2.32,18.37,18.37,0,0,1-7.78-11.52,23,23,0,0,1,1.27-14.35c2.06-5,6-8.68,11.72-11a104.09,104.09,0,0,1,19.8-5.95,94.53,94.53,0,0,1,16.71-1.64c18.62,0,32.75,4.73,42,14.06S771,175.42,771,194.88v49.06c0,22.5-13.53,25.86-21.6,25.86-9.38,0-16-4.13-19.35-11.87a31.31,31.31,0,0,1-6.4,6.24C718.09,268.23,711.3,270.29,703.46,270.29Zm19.31-53.68c-9.66,0-14.43,1.41-16.73,2.59a6.1,6.1,0,0,0-3.73,6,8.74,8.74,0,0,0,2.41,6.44c1.59,1.64,4,2.43,7.32,2.43a13.74,13.74,0,0,0,10.5-4.56c3-3.15,4.39-7.26,4.39-12.57v-.37Z"/><path class="cls-15" d="M808.19,269.8c-15.18,0-23.53-9.18-23.53-25.86v-80.4c0-22.29,14.2-25.61,22.67-25.61,7,0,12.65,2.34,16.65,7a21.61,21.61,0,0,1,3.95,6.85,36.2,36.2,0,0,1,7.27-7.2,36.71,36.71,0,0,1,21.62-7.11h.82c5,0,8.94,1.67,11.68,5s4.08,8.64,4.24,16.43c0,6.66-1.29,12-3.83,16.07-2.82,4.47-7.93,7.14-15.19,7.91l-5,.49c-6.48.7-11.16,2.65-13.89,5.81s-4.18,8.24-4.18,15v39.83C831.5,260.62,823.22,269.8,808.19,269.8Z"/><path class="cls-15" d="M921.93,270.29c-15.12,0-26.44-4.73-33.64-14.07-7-9-10.49-22.54-10.49-40.21v-104c0-22.5,14.33-25.86,22.88-25.86,7.3,0,13.1,2.32,17.24,6.91s6.08,10.84,6.08,19v102.5c0,6.33,1.25,9.32,2.3,10.71a5.65,5.65,0,0,0,4.86,2.54,9.82,9.82,0,0,0,2.22-.27c1.19-.27,2.51-.49,3.93-.67a4.07,4.07,0,0,1,.5,0,9.89,9.89,0,0,1,9.09,5.24c1.51,2.77,2.21,7.47,2.21,14.79,0,6.57-1.23,11.5-3.74,15.06s-6.48,6-11.57,7.05a37.5,37.5,0,0,1-5.41.93A57.51,57.51,0,0,1,921.93,270.29Z"/><path class="cls-15" d="M975.36,269.8c-7.4,0-13.18-2.55-17.18-7.58-3.78-4.75-5.7-11.47-5.7-20V165.49c0-8.5,1.92-15.22,5.7-20,4-5,9.78-7.58,17.18-7.58s13.21,2.52,17.35,7.51c4,4.78,6,11.52,6,20.05v76.75c0,8.52-2,15.25-5.83,20C988.77,267.26,982.89,269.8,975.36,269.8Zm0-141.12c-7.77,0-14-2.18-18.35-6.48s-6.68-10.52-6.68-18.41c0-7.72,2.25-13.83,6.68-18.16s10.58-6.48,18.35-6.48c16.29,0,25.25,8.75,25.25,24.64,0,7.89-2.25,14.09-6.68,18.41S983.28,128.68,975.36,128.68Z"/><path class="cls-15" d="M1106.06,269.8c-7.32,0-13.09-2.33-17.16-6.94C1085,258.41,1083,252,1083,243.94V194.63c0-8-1.4-11.57-2.57-13.2-1.46-2-3.53-3-6.52-3a13,13,0,0,0-10.66,4.76c-2.8,3.37-4.23,8.11-4.23,14.08v46.63c0,16.68-8.28,25.86-23.31,25.86-7.34,0-13.08-2.34-17.08-7-3.85-4.45-5.81-10.81-5.81-18.89v-80.4c0-22.29,14.21-25.61,22.67-25.61,10.14,0,17.18,4.61,20.48,13.18a40.85,40.85,0,0,1,10.3-8.18,44.14,44.14,0,0,1,21.8-5.49c13.89,0,24.4,4.81,31.25,14.29,6.65,9.21,9.88,22.68,9.88,41.2v51c0,8.1-2,14.46-5.94,18.92S1113.38,269.8,1106.06,269.8Z"/><path class="cls-15" d="M1199.2,314c-16.63,0-30.59-2.48-41.5-7.37-6.16-2.54-10.25-6.41-12.15-11.51a23.52,23.52,0,0,1-.64-14.73,21,21,0,0,1,7.58-11.61,13.07,13.07,0,0,1,8-2.68,16.88,16.88,0,0,1,6.32,1.33l.18.08a66.48,66.48,0,0,0,16.08,5.39,74.12,74.12,0,0,0,12.5,1.28c7.63,0,13.31-1.72,16.89-5.1,3.41-3.23,5.19-8.52,5.29-15.75a39.45,39.45,0,0,1-7.55,5.5,42.67,42.67,0,0,1-21.28,5.62c-10.25,0-19.32-2.74-27-8.14s-13.56-12.88-17.77-22.42c-4.14-9.37-6.24-20.46-6.24-33s2.1-23.58,6.24-32.95c4.22-9.53,10.19-17.08,17.77-22.42s16.75-8.14,27-8.14a43.31,43.31,0,0,1,21.37,5.49,36.51,36.51,0,0,1,9.33,7.33c3.48-8.11,10.47-12.33,20.59-12.33,8.47,0,22.67,3.32,22.67,25.61v84.05c0,21.88-5.59,38.6-16.61,49.69S1219.38,314,1199.2,314Zm1.5-136.75a13.81,13.81,0,0,0-11.63,5.72c-3.16,4.12-4.76,10.16-4.76,18s1.6,13.85,4.76,18a13.81,13.81,0,0,0,11.63,5.72,14,14,0,0,0,11.85-5.72c3.16-4.12,4.76-10.17,4.76-18s-1.6-13.85-4.76-18A14,14,0,0,0,1200.7,177.26Z"/><path class="cls-17" d="M659.07,461.32c-6.26,0-11.48-1.76-15.51-5.22-3.86-3.31-6.88-8.39-8.95-15.08l-23.94-75.69-24.33,76c-2.26,6.54-5.23,11.48-8.88,14.75-3.9,3.5-9.14,5.28-15.57,5.28-6.26,0-11.48-1.76-15.51-5.22-3.86-3.31-6.87-8.39-9-15.08L495.51,309.15c-2.8-8.37-2.31-15.76,1.49-21.9,3.91-6.33,10.62-9.54,20-9.54,6.49,0,11.66,1.8,15.35,5.37,3.49,3.36,6.13,8.27,8.06,15l23.39,79.7L589,298c2.26-6.74,5-11.59,8.46-14.91,3.69-3.57,8.57-5.37,14.49-5.37s10.57,1.81,14.21,5.4c3.38,3.34,6,8.31,8.11,15.17l24.16,81.25L683.19,298c1.92-6.68,4.55-11.59,8-14.95,3.7-3.57,8.8-5.37,15.14-5.37,8,0,14.14,3.32,17.85,9.61,3.6,6.1,4.09,13.44,1.45,21.82L683.3,441.29c-2.08,6.51-5,11.48-8.8,14.78C670.53,459.55,665.34,461.32,659.07,461.32Z"/><path class="cls-17" d="M861.8,461.32c-6.76,0-12.13-1.84-16-5.47-3.56-3.36-6.59-8.46-9.27-15.58l-5.91-15.87H768.48l-5.91,15.86c-2.82,7.08-5.68,12.1-8.78,15.42-3.5,3.74-8.68,5.64-15.39,5.64-8.09,0-14.4-3.35-18.26-9.7s-3.93-14-.28-23L773.4,298.4c2.83-6.93,6.43-12.14,10.69-15.47a24.63,24.63,0,0,1,15.58-5.22A24.32,24.32,0,0,1,815,282.93c4.27,3.33,7.87,8.54,10.7,15.48l53.53,130.18c3.79,9.11,3.85,16.89.18,23.11S869.63,461.32,861.8,461.32Zm-47.24-79.17-15.1-40.7-15.11,40.7Z"/><path class="cls-17" d="M915.12,461.32c-7.47,0-13.4-2.42-17.61-7.18s-6.17-11.23-6.17-19.65V304.54c0-8.42,2.08-15,6.17-19.66s10.14-7.17,17.61-7.17,13.4,2.41,17.62,7.18c4.09,4.61,6.16,11.23,6.16,19.65v130c0,8.4-2,15-6,19.62C928.72,458.89,922.75,461.32,915.12,461.32Z"/><path class="cls-17" d="M982.41,461.32c-7.47,0-13.43-2.46-17.72-7.3s-6.27-11.35-6.27-19.78V307c0-17.46,8.75-27.08,24.64-27.08h71.59c12.56,0,19.48,7.46,19.48,21,0,13.86-6.92,21.49-19.48,21.49H1006v26.49h43.94c12.56,0,19.48,7.46,19.48,21s-6.92,21.24-19.48,21.24H1006v43.12C1006,457.8,991.21,461.32,982.41,461.32Z"/><path class="cls-17" d="M1154,461.8c-23.13,0-41.16-6.8-53.57-20.23s-18.59-33.28-18.59-59.31v-78c0-8.26,2.08-14.8,6.17-19.42s10.14-7.17,17.62-7.17,13.39,2.41,17.61,7.18,6.16,11.15,6.16,19.41v78.45c0,11.51,2.18,20.16,6.48,25.73,4.11,5.33,10,7.92,18.12,7.92s13.79-2.59,17.9-7.92c4.3-5.57,6.48-14.23,6.48-25.73V304.3c0-8.25,2-14.77,6-19.38,4.14-4.79,10-7.21,17.53-7.21s13.38,2.43,17.46,7.24c3.91,4.61,5.89,11.12,5.89,19.35v78c0,26-6.1,45.95-18.12,59.28S1177.13,461.8,1154,461.8Z"/><g class="cls-18"></g><path class="cls-20" d="M522.39,262.08c-15.86,0-24.6-9.61-24.6-27.07V109.92c0-17.46,8.74-27.08,24.6-27.08h42.07c27.18,0,48.65,7.93,63.82,23.56s22.8,37.79,22.8,65.94-7.67,50.38-22.8,66-36.64,23.69-63.82,23.69Zm39.49-44.19c13.76,0,24-3.67,30.38-10.91s9.83-19,9.83-34.64-3.34-27.18-9.92-34.48S575.51,127,561.88,127h-16.6v90.85Z"/><path class="cls-20" d="M704.6,264.76a48.3,48.3,0,0,1-23.49-5.6A41.62,41.62,0,0,1,665,243.73a43.06,43.06,0,0,1-5.81-22.32c0-9.47,2.31-17.2,6.86-23s11.78-9.95,21.5-12.34c9.15-2.26,21.38-3.4,36.37-3.4h4.15c-.08-4.25-1-7.3-2.67-8.84-1.29-1.18-4.23-2.59-10.92-2.59a53.51,53.51,0,0,0-10.88,1.25,74.71,74.71,0,0,0-13.51,4.5,20.74,20.74,0,0,1-7.84,1.72,13.7,13.7,0,0,1-7.77-2.32,18.32,18.32,0,0,1-7.78-11.51A23,23,0,0,1,668,150.53c2.06-5,6-8.68,11.72-11a104.52,104.52,0,0,1,19.8-5.95,94.53,94.53,0,0,1,16.71-1.64c18.62,0,32.75,4.73,42,14.05s13.93,23.92,13.93,43.38v49.07c0,22.5-13.53,25.86-21.6,25.86-9.38,0-16-4.14-19.35-11.87a31.56,31.56,0,0,1-6.4,6.24C719.22,262.7,712.44,264.76,704.6,264.76Zm19.31-53.68c-9.66,0-14.43,1.41-16.73,2.59a6.1,6.1,0,0,0-3.73,6,8.79,8.79,0,0,0,2.4,6.44c1.6,1.63,4,2.43,7.33,2.43a13.72,13.72,0,0,0,10.5-4.57c3-3.14,4.39-7.25,4.39-12.56v-.37Z"/><path class="cls-20" d="M809.32,264.27c-15.17,0-23.52-9.18-23.52-25.86V158c0-22.29,14.2-25.62,22.67-25.62,7,0,12.65,2.35,16.65,7a21.77,21.77,0,0,1,4,6.86,36.26,36.26,0,0,1,7.27-7.21,36.79,36.79,0,0,1,21.61-7.1l.83,0c5,0,8.94,1.68,11.68,5s4.08,8.64,4.24,16.43c0,6.66-1.29,12-3.83,16.07-2.83,4.47-7.94,7.13-15.19,7.91l-5,.49c-6.48.69-11.16,2.65-13.89,5.8s-4.18,8.25-4.18,15v39.84C832.64,255.09,824.36,264.27,809.32,264.27Z"/><path class="cls-20" d="M923.07,264.76c-15.12,0-26.44-4.74-33.64-14.07-7-9-10.5-22.54-10.5-40.21v-104c0-22.5,14.34-25.86,22.89-25.86,7.3,0,13.1,2.32,17.24,6.9s6.08,10.85,6.08,19V209c0,6.32,1.25,9.31,2.3,10.71a5.66,5.66,0,0,0,4.86,2.53,9.93,9.93,0,0,0,2.23-.26,39.58,39.58,0,0,1,3.92-.68,4.07,4.07,0,0,1,.5,0,9.89,9.89,0,0,1,9.09,5.25c1.51,2.77,2.2,7.47,2.2,14.78,0,6.58-1.22,11.51-3.73,15.07s-6.48,6-11.57,7.05a39.4,39.4,0,0,1-5.42.93A59.65,59.65,0,0,1,923.07,264.76Z"/><path class="cls-20" d="M976.5,264.27c-7.4,0-13.18-2.55-17.18-7.58-3.78-4.75-5.7-11.47-5.7-20V160c0-8.51,1.91-15.23,5.7-20,4-5,9.78-7.59,17.18-7.59s13.2,2.53,17.35,7.52c4,4.77,6,11.52,6,20.05v76.75c0,8.52-2,15.25-5.83,20C989.91,261.73,984,264.27,976.5,264.27Zm0-141.12c-7.77,0-14-2.18-18.35-6.48s-6.68-10.52-6.68-18.41c0-7.73,2.25-13.84,6.68-18.16s10.58-6.49,18.35-6.49c16.28,0,25.25,8.76,25.25,24.65,0,7.89-2.25,14.08-6.68,18.41S984.42,123.15,976.5,123.15Z"/><path class="cls-20" d="M1107.2,264.27c-7.32,0-13.09-2.33-17.16-6.94-3.94-4.45-5.94-10.82-5.94-18.92V189.1c0-8-1.4-11.58-2.57-13.2-1.46-2-3.53-3-6.52-3a13,13,0,0,0-10.66,4.75c-2.81,3.37-4.23,8.11-4.23,14.08v46.64c0,16.68-8.28,25.86-23.31,25.86-7.34,0-13.09-2.34-17.08-7-3.86-4.46-5.81-10.81-5.81-18.89V158c0-22.29,14.21-25.62,22.67-25.62,10.14,0,17.18,4.61,20.48,13.19a40.23,40.23,0,0,1,10.3-8.18,44,44,0,0,1,21.8-5.49c13.89,0,24.4,4.81,31.25,14.29,6.65,9.2,9.88,22.68,9.88,41.2v51c0,8.09-2,14.46-5.94,18.92C1120.29,261.94,1114.52,264.27,1107.2,264.27Z"/><path class="cls-20" d="M1200.34,308.48c-16.63,0-30.59-2.48-41.5-7.37-6.17-2.54-10.25-6.41-12.15-11.51a23.52,23.52,0,0,1-.64-14.73,21,21,0,0,1,7.58-11.61,13.07,13.07,0,0,1,8-2.68,16.88,16.88,0,0,1,6.32,1.33l.18.07a66.64,66.64,0,0,0,16.07,5.4,74.33,74.33,0,0,0,12.51,1.28c7.63,0,13.31-1.72,16.89-5.1,3.41-3.23,5.19-8.53,5.29-15.75a39.88,39.88,0,0,1-7.55,5.5,42.78,42.78,0,0,1-21.28,5.62c-10.25,0-19.33-2.74-27-8.14s-13.56-12.88-17.77-22.42c-4.14-9.37-6.24-20.46-6.24-33s2.1-23.58,6.24-32.95c4.21-9.54,10.19-17.08,17.77-22.42s16.75-8.14,27-8.14a43.21,43.21,0,0,1,21.37,5.49,36.51,36.51,0,0,1,9.33,7.33c3.48-8.11,10.46-12.34,20.59-12.34,8.47,0,22.67,3.33,22.67,25.62v84c0,21.89-5.59,38.61-16.61,49.7S1220.52,308.48,1200.34,308.48Zm1.5-136.75a13.8,13.8,0,0,0-11.63,5.72c-3.16,4.11-4.76,10.16-4.76,18s1.6,13.85,4.76,18a13.8,13.8,0,0,0,11.63,5.72,14,14,0,0,0,11.85-5.72c3.15-4.12,4.75-10.17,4.75-18s-1.6-13.85-4.75-18A14,14,0,0,0,1201.84,171.73Z"/><g class="cls-18"></g><path class="cls-21" d="M689.4,246.72a20.83,20.83,0,0,1-7.78-2.91,25.57,25.57,0,0,1-8.75-8.92,19.35,19.35,0,0,1-2.8-10.16c0-6.83,1.95-10.48,7.2-13.48.69-.4,1.48-.81,2.38-1.22a32.49,32.49,0,0,0-2,11.61c0,9.7,3.65,18.18,10.29,23.87C688.38,245.93,688.89,246.34,689.4,246.72Z"/><path class="cls-21" d="M915.37,246.28c-7,.82-12-.94-14.93-5.25-4-5.78-4.93-16.95-5.06-25.3l-1.49-111c-.11-7,.84-8.08,4.69-8.54a4.49,4.49,0,0,1,.94,0,25.57,25.57,0,0,1,.53,5.67s1.48,106.92,1.48,107c.23,10.45,2.3,19,6.13,25.4,3.69,6.17,8.48,9.74,13.74,10.33h0l-.3.23a8.57,8.57,0,0,1-1.61.64A24.83,24.83,0,0,1,915.37,246.28Z"/><path class="cls-21" d="M968.34,247.36a4.47,4.47,0,0,1-1,0,25.46,25.46,0,0,1-.46-5.67S966.8,159,966.8,159c0-6.94,1-7.8,4.85-8.21a5.36,5.36,0,0,1,1,0,28.47,28.47,0,0,1,.44,5.74l.13,82.65C973.2,246.09,972.22,247,968.34,247.36Z"/><path class="cls-21" d="M1110.65,246.62a3.83,3.83,0,0,1-.85,0,30.59,30.59,0,0,1-.39-6s.28-49.78.28-49.78c0-11-1.41-19.65-4.43-26.53-1.66-3.76-4.94-9.32-10.48-11.64a16.49,16.49,0,0,1,5.73-1.48c6.41-.55,9.42,3.05,11.12,5.8,2.55,4.12,4,14,3.93,27.1l-.33,54.24C1115.19,245.29,1114.27,246.3,1110.65,246.62Z"/><path class="cls-21" d="M1180.56,239.86c-7.38.94-13.32-1.11-18.13-6.28-4.67-5-7.67-13.18-9.18-25a89.45,89.45,0,0,1,.69-29.54c1.78-8.74,4.77-15.69,9.13-21.27a22.42,22.42,0,0,1,12.87-8.51,27,27,0,0,0-8.13,8.12c-3.94,5.94-6.56,13.41-7.78,22.2a95.42,95.42,0,0,0,0,25.27c1.37,10.67,5,19.79,10.4,26.36a25.7,25.7,0,0,0,11.68,8.34C1181.63,239.7,1181.1,239.79,1180.56,239.86Z"/><path class="cls-21" d="M536.33,246c-8.31,1-14.27-.57-17.71-4.8C514,235.57,513,224.39,513,216V104.72c0-7,1.13-8.13,5.73-8.71a6.71,6.71,0,0,1,1.11-.05,21.12,21.12,0,0,1,.55,5.67s0,107.17,0,107.24c.11,10.47,2.43,19,6.9,25.29,4.3,6.07,9.95,9.51,16.2,9.93v0l-.36.23a10.72,10.72,0,0,1-1.93.69A34.59,34.59,0,0,1,536.33,246Z"/><path class="cls-21" d="M797.88,249.49a2.39,2.39,0,0,1-.71-.05,33.42,33.42,0,0,1-.17-5.68s2.56-82.48,2.56-82.48c.21-6.92,1-7.71,3.91-7.85a2.46,2.46,0,0,1,.72,0,38.85,38.85,0,0,1,.16,5.75l-2.56,82.41C801.58,248.56,800.81,249.35,797.88,249.49Z"/><path class="cls-21" d="M1149.84,441.43c-10,1.48-19.19.51-27.23-2.9-7.13-3-12.72-8.35-17.11-16.27-4.61-8.3-7-20.06-7.21-34.94l-1.2-77.08c-.11-5.43.35-6.65,5.48-7.4a8.26,8.26,0,0,1,2.65-.07,16.85,16.85,0,0,1,.67,4.88s1,75.49,1,75.52c.31,17,4.08,30.57,11.2,40.35,5.68,7.81,16.24,16.58,34.28,13.92,11.93-1.76,21.3-7.46,27.85-16.93,6.41-9.26,14.38-10.26,7.2.9C1180.58,432,1167.94,438.76,1149.84,441.43Z"/><path class="cls-21" d="M554.52,443.33a5.54,5.54,0,0,1-1.56.47,33.47,33.47,0,0,1-2.77-6.5L507.36,308.82c-2.32-7.07-1.7-8.5,1.82-10.07a5,5,0,0,1,1.38-.42,34.93,34.93,0,0,1,2.57,6.27c0,.08,42.86,128.68,42.88,128.71,1.1,3.29,1.63,6,1.41,7.21C557.22,441.58,556.17,442.6,554.52,443.33Z"/><path class="cls-21" d="M731.29,441.94a5.37,5.37,0,0,1-1.48-.67,33.66,33.66,0,0,1,2.16-6.73l51.71-125.16c2.87-6.87,4.29-7.55,8-6.42a5,5,0,0,1,1.32.58A35.56,35.56,0,0,1,790.8,310C790.77,310,739,435.3,739,435.34c-1.31,3.2-2.68,5.59-3.66,6.37S733,442.46,731.29,441.94Z"/><path class="cls-21" d="M908,450.32a5.75,5.75,0,0,1-1.62,0,34.34,34.34,0,0,1-.64-7.05l-1.16-135.41c0-7.45,1-8.62,4.84-9a5,5,0,0,1,1.44,0,35.78,35.78,0,0,1,.5,6.76c0,.08,1.15,135.62,1.15,135.66,0,3.46-.29,6.19-.88,7.29C911.12,449.48,909.8,450.13,908,450.32Z"/><path class="cls-21" d="M973.59,449.53a5.81,5.81,0,0,1-1.63,0,34,34,0,0,1-.63-7.05L970.16,307c0-7.44,1-8.61,4.84-9a5.38,5.38,0,0,1,1.44,0,34.76,34.76,0,0,1,.51,6.77c0,.08,1.14,135.62,1.14,135.65,0,3.47-.28,6.2-.88,7.3C976.7,448.69,975.38,449.34,973.59,449.53Z"/></g></g></g></svg>