<svg xmlns="http://www.w3.org/2000/svg" width="193.284" height="29.82" viewBox="0 0 193.284 29.82">
  <g id="PancakeSwap_CAKE_" data-name="PancakeSwap (CAKE)" transform="translate(-13 -46.5)">
    <path id="Trazado_50" data-name="Trazado 50" d="M44.207,68.415a1.87,1.87,0,0,1-.966-.241A1.745,1.745,0,0,1,43,67.329V53.807a1.407,1.407,0,0,1,.241-.845,1.188,1.188,0,0,1,.966-.362h5.674a7.679,7.679,0,0,1,4.829,1.328,5.544,5.544,0,0,1,1.569,4.1,5.115,5.115,0,0,1-1.569,4.1,7.442,7.442,0,0,1-4.829,1.328H47.708v3.743a1.407,1.407,0,0,1-.241.845c-.241.241-.483.241-.966.241H44.207Zm5.312-8.33a1.924,1.924,0,0,0,1.449-.483,2.792,2.792,0,0,0,0-3.139,1.924,1.924,0,0,0-1.449-.483H47.708v4.1Z" transform="translate(6.218 1.264)" fill="#494b5a"/>
    <path id="Trazado_51" data-name="Trazado 51" d="M59.329,68.052a4.466,4.466,0,0,1-3.5-1.449A5.866,5.866,0,0,1,54.5,62.619a6.124,6.124,0,0,1,.845-3.38,6.683,6.683,0,0,1,2.535-2.294,9.453,9.453,0,0,1,3.743-.845,12.458,12.458,0,0,1,3.139.362A9.461,9.461,0,0,1,67.3,57.549v9.3a.555.555,0,0,1-.724.724H64.158c-.121,0-.362,0-.362-.121l-.241-.241-.362-.724a5.379,5.379,0,0,1-3.863,1.569Zm1.69-3.139a1.924,1.924,0,0,0,1.449-.483,1.4,1.4,0,0,0,.483-1.207V59.6a2.883,2.883,0,0,0-1.087-.241,2.251,2.251,0,0,0-1.932.845,3.6,3.6,0,0,0-.724,2.415C59.208,64.068,59.812,64.913,61.019,64.913Z" transform="translate(8.602 1.99)" fill="#494b5a"/>
    <path id="Trazado_52" data-name="Trazado 52" d="M68.007,67.669a1.87,1.87,0,0,1-.966-.241,1.019,1.019,0,0,1-.241-.845V57.166a.555.555,0,0,1,.724-.724h2.415c.241,0,.362,0,.362.121.121,0,.121.121.241.241l.121.724a3.892,3.892,0,0,1,1.69-.966,7.26,7.26,0,0,1,2.415-.362,3.949,3.949,0,0,1,4.225,4.225v6.157a1.407,1.407,0,0,1-.241.845c-.121.241-.483.241-.966.241H75.492a1.87,1.87,0,0,1-.966-.241,1.019,1.019,0,0,1-.241-.845V60.667c0-.483-.121-.845-.362-.966a1.188,1.188,0,0,0-.966-.362,1.476,1.476,0,0,0-1.087.362,1.371,1.371,0,0,0-.362.966v5.795a1.407,1.407,0,0,1-.241.845c-.121.241-.483.241-.966.241H68.007Z" transform="translate(11.151 2.011)" fill="#494b5a"/>
    <path id="Trazado_53" data-name="Trazado 53" d="M84.881,68.031a7.3,7.3,0,0,1-5.071-1.569A5.231,5.231,0,0,1,78,62.116a5.575,5.575,0,0,1,.845-3.139,5.442,5.442,0,0,1,2.294-2.052,8.821,8.821,0,0,1,3.622-.724,8.3,8.3,0,0,1,2.656.362,4.853,4.853,0,0,1,1.932.966c.121.121.241.241.241.362s-.121.241-.241.483l-.966,1.69q-.181.362-.362.362c-.121,0-.241-.121-.483-.241a5.639,5.639,0,0,0-1.207-.6A4.34,4.34,0,0,0,85,59.339a2.742,2.742,0,0,0-1.932.724,3.27,3.27,0,0,0,0,4.1A2.549,2.549,0,0,0,85,64.892a4.34,4.34,0,0,0,1.328-.241,5.64,5.64,0,0,0,1.207-.6c.241-.121.362-.241.483-.241s.241.121.362.362l1.087,1.811a.444.444,0,0,1,.121.362c0,.121-.121.241-.241.362a9.059,9.059,0,0,1-2.173.966A4.942,4.942,0,0,1,84.881,68.031Z" transform="translate(13.473 2.011)" fill="#494b5a"/>
    <path id="Trazado_54" data-name="Trazado 54" d="M93.629,68.052a4.466,4.466,0,0,1-3.5-1.449A5.866,5.866,0,0,1,88.8,62.619a6.124,6.124,0,0,1,.845-3.38,6.683,6.683,0,0,1,2.535-2.294,9.453,9.453,0,0,1,3.743-.845,12.458,12.458,0,0,1,3.139.362,9.461,9.461,0,0,1,2.535,1.087v9.3a.555.555,0,0,1-.724.724H98.458c-.121,0-.362,0-.362-.121l-.241-.241-.362-.724a4.594,4.594,0,0,1-1.569,1.087A4.317,4.317,0,0,1,93.629,68.052Zm1.811-3.139a1.924,1.924,0,0,0,1.449-.483,1.4,1.4,0,0,0,.483-1.207V59.6a2.883,2.883,0,0,0-1.087-.241,2.251,2.251,0,0,0-1.932.845,3.6,3.6,0,0,0-.724,2.415C93.508,64.068,94.112,64.913,95.44,64.913Z" transform="translate(15.711 1.99)" fill="#494b5a"/>
    <path id="Trazado_55" data-name="Trazado 55" d="M113.776,67.57a.485.485,0,0,1-.362.845h-4.1c-.121,0-.241-.121-.362-.241l-3.139-4.346v3.38a1.407,1.407,0,0,1-.241.845c-.241.241-.483.241-.966.241h-2.294a1.87,1.87,0,0,1-.966-.241,1.745,1.745,0,0,1-.241-.845v-13.4a1.407,1.407,0,0,1,.241-.845,1.188,1.188,0,0,1,.966-.362H104.6a1.188,1.188,0,0,1,.966.362,1.019,1.019,0,0,1,.241.845v7.727l3.018-3.984c.121-.121.241-.241.362-.241s.241-.121.483-.121h3.622a.514.514,0,0,1,.362.845l-3.984,4.588Z" transform="translate(18.261 1.264)" fill="#494b5a"/>
    <path id="Trazado_56" data-name="Trazado 56" d="M118.961,68.011a10.633,10.633,0,0,1-3.5-.6,6.355,6.355,0,0,1-2.415-1.932,5.32,5.32,0,0,1-.845-3.139,5.82,5.82,0,0,1,1.69-4.467,6.658,6.658,0,0,1,4.829-1.569c2.052,0,3.622.483,4.588,1.569a5.383,5.383,0,0,1,1.569,4.225c0,.724-.362,1.207-.966,1.207h-7.244a1.794,1.794,0,0,0,.724,1.569,4.058,4.058,0,0,0,2.294.483,5.9,5.9,0,0,0,1.569-.121c.483-.121.845-.362,1.328-.483a.934.934,0,0,1,.362-.121c.121,0,.241.121.362.241l.845,1.449a.444.444,0,0,1,.121.362c0,.121-.121.241-.241.362a9.059,9.059,0,0,1-2.173.966A23.177,23.177,0,0,0,118.961,68.011Zm1.811-7.244a1.5,1.5,0,0,0-.483-1.328,2.792,2.792,0,0,0-3.139,0,1.649,1.649,0,0,0-.483,1.328Z" transform="translate(20.561 2.031)" fill="#494b5a"/>
    <path id="Trazado_57" data-name="Trazado 57" d="M130.581,68.8a18.743,18.743,0,0,1-3.743-.362,7.406,7.406,0,0,1-2.777-1.207.647.647,0,0,1-.362-.483.444.444,0,0,1,.121-.362l1.087-1.811c.121-.241.241-.241.362-.241a.444.444,0,0,1,.362.121,9.345,9.345,0,0,0,1.932.845,6.836,6.836,0,0,0,2.173.362,2.739,2.739,0,0,0,1.569-.362,1.177,1.177,0,0,0,.483-1.087,1.268,1.268,0,0,0-.6-1.087,9.774,9.774,0,0,0-2.173-.966,12.5,12.5,0,0,1-3.622-1.932,3.924,3.924,0,0,1-1.328-3.018,4.134,4.134,0,0,1,1.69-3.5A6.878,6.878,0,0,1,130.1,52.5a12.149,12.149,0,0,1,3.26.362,8.186,8.186,0,0,1,2.294.966c.241.241.362.362.362.6a.444.444,0,0,1-.121.362L134.807,56.6c-.121.241-.241.241-.362.241a.444.444,0,0,1-.362-.121,5.465,5.465,0,0,0-3.26-.845,2.739,2.739,0,0,0-1.569.362,1.177,1.177,0,0,0-.483,1.087,1.745,1.745,0,0,0,.241.845c.241.241.483.362.724.6.362.121.845.362,1.449.6l.483.121a13.491,13.491,0,0,1,2.656,1.328,3.924,3.924,0,0,1,1.569,1.569,4.134,4.134,0,0,1,.483,2.173,3.748,3.748,0,0,1-1.569,3.26A8.324,8.324,0,0,1,130.581,68.8Z" transform="translate(22.945 1.244)" fill="#494b5a"/>
    <path id="Trazado_58" data-name="Trazado 58" d="M139.143,67.628c-.241,0-.362,0-.483-.121a.627.627,0,0,1-.241-.483L135.4,57v-.241c0-.241.121-.362.483-.362H138.9c.241,0,.362,0,.483.121a.928.928,0,0,1,.241.362l1.207,5.312,1.569-4.225c.121-.241.121-.362.241-.362.121-.121.241-.121.483-.121h1.449c.241,0,.362,0,.483.121s.121.241.241.362l1.569,4.225,1.328-5.312c0-.121.121-.241.241-.362a.444.444,0,0,1,.362-.121h3.139c.362,0,.483.121.483.362V57L149.4,67.024c-.121.241-.121.362-.241.483s-.241.121-.483.121h-2.294c-.241,0-.362,0-.483-.121a.627.627,0,0,1-.241-.483L144.092,62.8l-1.569,4.225c-.121.241-.121.362-.241.483s-.241.121-.483.121Z" transform="translate(25.37 2.052)" fill="#494b5a"/>
    <path id="Trazado_59" data-name="Trazado 59" d="M154.929,68.052a4.466,4.466,0,0,1-3.5-1.449,5.866,5.866,0,0,1-1.328-3.984,6.124,6.124,0,0,1,.845-3.38,6.683,6.683,0,0,1,2.535-2.294,9.453,9.453,0,0,1,3.743-.845,12.458,12.458,0,0,1,3.139.362,9.461,9.461,0,0,1,2.535,1.087v9.3a.555.555,0,0,1-.724.724h-2.415a.444.444,0,0,1-.362-.121l-.241-.241-.362-.724a4.594,4.594,0,0,1-1.569,1.087A4.317,4.317,0,0,1,154.929,68.052Zm1.811-3.139a1.924,1.924,0,0,0,1.449-.483,1.4,1.4,0,0,0,.483-1.207V59.6a2.883,2.883,0,0,0-1.087-.241,2.251,2.251,0,0,0-1.932.845,3.6,3.6,0,0,0-.724,2.415C154.808,64.068,155.412,64.913,156.74,64.913Z" transform="translate(28.417 1.99)" fill="#494b5a"/>
    <path id="Trazado_60" data-name="Trazado 60" d="M163.607,72.357a1.87,1.87,0,0,1-.966-.241,1.745,1.745,0,0,1-.241-.845V57.99a7.718,7.718,0,0,1,2.656-1.207,10.168,10.168,0,0,1,3.26-.483c4.708,0,7,1.932,7,5.916a6.3,6.3,0,0,1-1.449,4.346,5.383,5.383,0,0,1-4.225,1.569,6.06,6.06,0,0,1-1.449-.241,3.615,3.615,0,0,1-1.207-.483V71.27a1.407,1.407,0,0,1-.241.845c-.241.241-.483.241-.966.241Zm5.071-7.485a1.46,1.46,0,0,0,1.449-.724,3.454,3.454,0,0,0,.483-2.052,3.585,3.585,0,0,0-.6-2.173,2.5,2.5,0,0,0-1.811-.6,3.029,3.029,0,0,0-1.207.241v3.622a1.65,1.65,0,0,0,1.69,1.69Z" transform="translate(30.966 2.031)" fill="#494b5a"/>
    <path id="Trazado_61" data-name="Trazado 61" d="M18.433,51.208a3.959,3.959,0,1,1,7.847-.724v4.829h3.26V50.484a3.959,3.959,0,1,1,7.847.724L36.3,56.883c3.622,1.569,6.4,4.346,6.4,7.847v2.052c0,2.9-1.932,5.312-4.588,6.881A19.322,19.322,0,0,1,27.849,76.32a19.322,19.322,0,0,1-10.262-2.656C14.932,72.094,13,69.68,13,66.782V64.73c0-3.5,2.777-6.278,6.4-7.847Zm16.54,6.519,1.207-6.64a2.741,2.741,0,1,0-5.433-.483v6.157c-.362,0-.845-.121-1.207-.121H27.97a7.971,7.971,0,0,0-1.69.121c-.362,0-.845.121-1.207.121V50.725a2.741,2.741,0,1,0-5.433.483l1.207,6.761c-3.863,1.449-6.519,4.1-6.519,7.123v2.052c0,4.588,6.036,8.33,13.521,8.33s13.521-3.743,13.521-8.33V65.092C41.492,61.832,38.836,59.176,34.972,57.728Z" transform="translate(0 0)" fill="#494b5a" fill-rule="evenodd"/>
    <path id="Trazado_62" data-name="Trazado 62" d="M41.243,63.752c0,4.588-6.036,8.33-13.521,8.33S14.2,68.34,14.2,63.752V61.7H41.364v2.052Z" transform="translate(0.249 3.151)" fill="#494b5a"/>
    <path id="Trazado_63" data-name="Trazado 63" d="M19.371,50.76a2.741,2.741,0,1,1,5.433-.483v6.278a23.445,23.445,0,0,1,2.9-.241c.966,0,1.932.121,2.777.121V50.277a2.741,2.741,0,1,1,5.433.483L34.7,57.4c3.984,1.449,6.64,4.1,6.64,7.123,0,4.588-6.036,8.33-13.521,8.33S14.3,69.11,14.3,64.523c0-3.018,2.656-5.674,6.519-7.123Z" transform="translate(0.269 0.207)" fill="#494b5a" fill-rule="evenodd"/>
    <path id="Trazado_64" data-name="Trazado 64" d="M22.8,61.594c0,1.207-.724,2.294-1.449,2.294S19.9,62.922,19.9,61.594c0-1.207.724-2.294,1.449-2.294S22.8,60.266,22.8,61.594Z" transform="translate(1.43 2.653)" fill="#fff"/>
    <path id="Trazado_65" data-name="Trazado 65" d="M31.4,61.594c0,1.207-.724,2.294-1.449,2.294-.845,0-1.449-.966-1.449-2.294,0-1.207.724-2.294,1.449-2.294S31.4,60.266,31.4,61.594Z" transform="translate(3.213 2.653)" fill="#fff"/>
  </g>
</svg>
