<svg id="Iconly_Bold_Paper" data-name="Iconly/Bold/Paper" xmlns="http://www.w3.org/2000/svg" width="17" height="20" viewBox="0 0 17 20">
  <g id="Paper">
    <path id="Paper-2" data-name="Paper" d="M4.674,20A4.7,4.7,0,0,1,0,15.29V4.51A4.493,4.493,0,0,1,4.465,0H9.752a.458.458,0,0,1,.455.46V3.68a3.341,3.341,0,0,0,3.308,3.34c.423,0,.794,0,1.122.006.257,0,.481,0,.68,0,.141,0,.323,0,.521,0,.229,0,.486-.005.716-.005A.448.448,0,0,1,17,7.47v8.04A4.473,4.473,0,0,1,12.554,20Zm.01-6.359a.756.756,0,0,0,.743.75h5.386a.756.756,0,0,0,.743-.75.742.742,0,0,0-.743-.741H5.426A.742.742,0,0,0,4.684,13.64Zm0-4.99a.742.742,0,0,0,.743.74H8.772a.742.742,0,0,0,.743-.74.756.756,0,0,0-.743-.75H5.426A.756.756,0,0,0,4.684,8.65Zm8.964-3.091a2.018,2.018,0,0,1-2-2.017V.906a.473.473,0,0,1,.814-.334l3.986,4.187a.477.477,0,0,1-.34.806h-.691C14.793,5.567,14.149,5.564,13.648,5.559Z" fill="#444654"/>
  </g>
</svg>
