<svg id="Grupo_8" data-name="Grupo 8" xmlns="http://www.w3.org/2000/svg" width="45.495" height="45.495" viewBox="0 0 45.495 45.495">
  <circle id="Elipse_1" data-name="Elipse 1" cx="19.5" cy="19.5" r="19.5" transform="translate(2.93 3.483)" fill="#ffe5f2"/>
  <g id="playwithcircularbuttonwithrightarrowofboldroundedfilledtriangle_80162" transform="translate(0 0)">
    <path id="Trazado_37" data-name="Trazado 37" d="M22.747,0A22.747,22.747,0,1,0,45.495,22.747,22.747,22.747,0,0,0,22.747,0Zm0,41.941A19.193,19.193,0,1,1,41.941,22.747,19.193,19.193,0,0,1,22.747,41.941Z" fill="#494b5a"/>
    <path id="Trazado_38" data-name="Trazado 38" d="M183.131,152.343l-13.7-7.961c-1.5-.886-2.931-.172-2.931,1.586v15.974c0,1.755,1.434,2.47,2.931,1.583l13.591-7.96C184.525,154.678,184.632,153.228,183.131,152.343Z" transform="translate(-151.705 -131.205)" fill="#494b5a"/>
  </g>
</svg>
