<svg id="TWITTER_icon-icons.com_65486" xmlns="http://www.w3.org/2000/svg" width="34.795" height="28.469" viewBox="0 0 34.795 28.469">
  <path id="Trazado_36" data-name="Trazado 36" d="M3.348,98.781a14.574,14.574,0,0,0,10.419-2.975,7.389,7.389,0,0,1-6.707-5,7.951,7.951,0,0,0,3.147-.124,7.392,7.392,0,0,1-5.681-7.148,7.64,7.64,0,0,0,3.236.868,7.249,7.249,0,0,1-3.133-6.2,6.677,6.677,0,0,1,.964-3.354,20.588,20.588,0,0,0,14.784,7.492c-.034-.262-.055-.468-.083-.682a7.139,7.139,0,0,1,5.771-8.008,6.9,6.9,0,0,1,6.253,1.811.815.815,0,0,0,.854.213,17.174,17.174,0,0,0,3.973-1.549,7.442,7.442,0,0,1-2.858,3.842c.31-.055.627-.1.937-.158s.647-.145.971-.234.613-.179.916-.282a6.376,6.376,0,0,1,.985-.282c-.179.248-.351.51-.544.751a16.054,16.054,0,0,1-2.734,2.692.543.543,0,0,0-.186.386,21.083,21.083,0,0,1-9.42,18.028,19.247,19.247,0,0,1-6.556,2.651,21.65,21.65,0,0,1-7.017.3,19.437,19.437,0,0,1-6.7-2.059c-.558-.282-1.095-.6-1.639-.9A.514.514,0,0,0,3.348,98.781Z" transform="translate(-3.3 -73.51)" fill="#494b5a"/>
</svg>
